<svg width="128" height="138" viewBox="0 0 128 138" fill="none" xmlns="http://www.w3.org/2000/svg">
<g clip-path="url(#clip0_38_867)">
<path d="M112 114.261C112.002 114.649 111.85 115.023 111.578 115.299C111.306 115.575 110.935 115.731 110.548 115.733H46.6635C46.2763 115.731 45.9059 115.575 45.6336 115.299C45.3613 115.023 45.2094 114.649 45.2114 114.261V70.4723C45.2094 70.0839 45.3613 69.7105 45.6336 69.4344C45.9059 69.1583 46.2763 69.002 46.6634 69H110.548C110.935 69.002 111.306 69.1583 111.578 69.4344C111.85 69.7105 112.002 70.0838 112 70.4723V114.261Z" fill="#E6E6E6"/>
<path d="M111.246 113.544C111.246 113.921 111.097 114.284 110.831 114.551C110.565 114.818 110.204 114.968 109.828 114.968H47.4275C47.0512 114.968 46.6904 114.818 46.4243 114.551C46.1583 114.284 46.0088 113.921 46.0088 113.544V71.2095C46.0088 70.8319 46.1583 70.4698 46.4243 70.2029C46.6904 69.9359 47.0512 69.7859 47.4275 69.7859H109.831C110.206 69.7866 110.566 69.937 110.832 70.2039C111.097 70.4708 111.246 70.8324 111.246 71.2095V113.544Z" fill="white"/>
<path d="M49.3439 71.6238H107.978C108.201 71.6238 108.415 71.7128 108.573 71.8713C108.731 72.0297 108.82 72.2447 108.82 72.4688V112.12C108.82 112.344 108.731 112.559 108.573 112.718C108.415 112.876 108.201 112.965 107.978 112.965H49.3439C49.2333 112.965 49.1238 112.943 49.0216 112.901C48.9194 112.858 48.8266 112.796 48.7484 112.718C48.6702 112.639 48.6082 112.546 48.5659 112.444C48.5236 112.341 48.5018 112.231 48.5018 112.12V72.4688C48.5018 72.3578 48.5236 72.2479 48.5659 72.1454C48.6082 72.0429 48.6702 71.9497 48.7484 71.8713C48.8266 71.7928 48.9194 71.7306 49.0216 71.6881C49.1238 71.6456 49.2333 71.6238 49.3439 71.6238Z" fill="#E6E6E6"/>
<path d="M50.086 72.5747H107.172C107.395 72.5747 107.61 72.6637 107.767 72.8222C107.925 72.9807 108.014 73.1956 108.014 73.4197V110.955C108.014 111.179 107.925 111.394 107.767 111.553C107.61 111.711 107.395 111.8 107.172 111.8H50.086C49.8627 111.8 49.6485 111.711 49.4906 111.553C49.3327 111.394 49.244 111.179 49.244 110.955V73.4197C49.244 73.1956 49.3327 72.9807 49.4906 72.8222C49.6485 72.6637 49.8627 72.5747 50.086 72.5747Z" fill="white"/>
<path d="M97.2515 119.512C97.2535 119.901 97.1017 120.274 96.8294 120.55C96.5571 120.826 96.1867 120.983 95.7995 120.985H31.915C31.7233 120.984 31.5337 120.945 31.357 120.87C31.1803 120.796 31.0199 120.687 30.8851 120.55C30.7503 120.414 30.6436 120.252 30.5712 120.073C30.4987 119.895 30.462 119.705 30.463 119.512V75.7238C30.4609 75.3353 30.6128 74.962 30.8851 74.6859C31.1574 74.4098 31.5278 74.2535 31.9149 74.2515H95.7995C96.1866 74.2535 96.5571 74.4097 96.8294 74.6858C97.1017 74.9619 97.2535 75.3353 97.2515 75.7237V119.512Z" fill="#E6E6E6"/>
<path d="M96.4979 118.795C96.4979 119.173 96.3485 119.535 96.0824 119.802C95.8164 120.069 95.4555 120.219 95.0792 120.219H32.6791C32.3028 120.219 31.942 120.069 31.6759 119.802C31.4098 119.535 31.2604 119.173 31.2604 118.795V76.461C31.2604 76.0834 31.4098 75.7213 31.6759 75.4543C31.942 75.1873 32.3028 75.0374 32.6791 75.0374H95.0821C95.4579 75.0381 95.818 75.1884 96.0834 75.4553C96.3489 75.7222 96.4979 76.0839 96.4979 76.461V118.795Z" fill="white"/>
<path d="M34.5954 76.8752H93.2295C93.4529 76.8752 93.667 76.9643 93.825 77.1227C93.9829 77.2812 94.0716 77.4961 94.0716 77.7203V117.372C94.0716 117.596 93.9829 117.811 93.825 117.969C93.667 118.128 93.4529 118.217 93.2295 118.217H34.5954C34.3721 118.217 34.1579 118.128 34 117.969C33.8421 117.811 33.7534 117.596 33.7534 117.372V77.7203C33.7534 77.4961 33.8421 77.2812 34 77.1227C34.1579 76.9643 34.3721 76.8752 34.5954 76.8752Z" fill="#E6E6E6"/>
<path d="M35.3376 77.8262H92.4235C92.6469 77.8262 92.8611 77.9152 93.019 78.0737C93.1769 78.2321 93.2656 78.4471 93.2656 78.6712V116.207C93.2656 116.431 93.1769 116.646 93.019 116.804C92.8611 116.963 92.6469 117.052 92.4235 117.052H35.3376C35.1142 117.052 34.9 116.963 34.7421 116.804C34.5842 116.646 34.4955 116.431 34.4955 116.207V78.6712C34.4955 78.4471 34.5842 78.2321 34.7421 78.0737C34.9 77.9152 35.1142 77.8262 35.3376 77.8262Z" fill="white"/>
<path d="M82.7886 125.528C82.7906 125.916 82.6387 126.29 82.3664 126.566C82.0941 126.842 81.7237 126.998 81.3366 127H17.452C17.0649 126.998 16.6945 126.842 16.4222 126.566C16.1499 126.29 15.998 125.916 16 125.528V81.7392C15.998 81.3507 16.1498 80.9774 16.4221 80.7013C16.6944 80.4251 17.0649 80.2689 17.452 80.2668H81.3365C81.5282 80.2678 81.7178 80.3067 81.8945 80.3813C82.0712 80.4558 82.2316 80.5645 82.3664 80.7012C82.5012 80.8379 82.6079 81 82.6804 81.178C82.7528 81.3561 82.7896 81.5468 82.7886 81.7391V125.528Z" fill="#E6E6E6"/>
<path d="M82.0349 124.811C82.0349 125.188 81.8855 125.55 81.6194 125.817C81.3533 126.084 80.9925 126.234 80.6162 126.234H18.2161C17.8398 126.234 17.479 126.084 17.2129 125.817C16.9468 125.55 16.7974 125.188 16.7974 124.811V82.4761C16.7974 82.0985 16.9468 81.7364 17.2129 81.4695C17.479 81.2025 17.8398 81.0525 18.2161 81.0525H80.6191C80.9949 81.0532 81.355 81.2036 81.6204 81.4705C81.8859 81.7374 82.0349 82.099 82.0349 82.4761V124.811Z" fill="white"/>
<path d="M20.1324 82.8906H78.7665C78.9898 82.8906 79.204 82.9797 79.362 83.1381C79.5199 83.2966 79.6086 83.5115 79.6086 83.7356V123.387C79.6086 123.611 79.5199 123.826 79.362 123.985C79.204 124.143 78.9898 124.232 78.7665 124.232H20.1324C19.9091 124.232 19.6949 124.143 19.537 123.985C19.3791 123.826 19.2903 123.611 19.2903 123.387V83.7356C19.2903 83.5115 19.3791 83.2966 19.537 83.1381C19.6949 82.9797 19.9091 82.8906 20.1324 82.8906Z" fill="#E6E6E6"/>
<path d="M20.8746 83.8416H77.9606C78.1839 83.8416 78.3981 83.9306 78.556 84.089C78.714 84.2475 78.8027 84.4625 78.8027 84.6866V122.222C78.8027 122.446 78.714 122.661 78.556 122.82C78.3981 122.978 78.1839 123.067 77.9606 123.067H20.8746C20.6513 123.067 20.4371 122.978 20.2792 122.82C20.1213 122.661 20.0325 122.446 20.0325 122.222V84.6866C20.0325 84.4625 20.1213 84.2475 20.2792 84.089C20.4371 83.9306 20.6513 83.8416 20.8746 83.8416Z" fill="white"/>
<path d="M63.062 91.9728V117.944C63.0618 118.096 63.0017 118.241 62.8946 118.349C62.7876 118.456 62.6424 118.516 62.4911 118.517H35.373C35.2216 118.516 35.0764 118.456 34.9694 118.349C34.8624 118.241 34.8022 118.096 34.8021 117.944V88.9174C34.8022 88.7655 34.8624 88.6198 34.9694 88.5124C35.0764 88.405 35.2216 88.3446 35.373 88.3445H59.0656L63.062 91.9728Z" fill="#2F2E41"/>
<path d="M39.6011 94.6651C39.5074 94.6667 39.4181 94.7052 39.3524 94.7722C39.2867 94.8393 39.2499 94.9295 39.2499 95.0236C39.2499 95.1176 39.2867 95.2079 39.3524 95.2749C39.4181 95.342 39.5074 95.3805 39.6011 95.382H49.0215C49.0686 95.383 49.1153 95.3747 49.1591 95.3575C49.2029 95.3403 49.2429 95.3145 49.2768 95.2818C49.3107 95.249 49.3378 95.2099 49.3566 95.1666C49.3753 95.1233 49.3854 95.0767 49.3861 95.0295C49.3869 94.9823 49.3784 94.9354 49.3611 94.8915C49.3437 94.8476 49.3179 94.8076 49.2851 94.7737C49.2523 94.7399 49.2132 94.7128 49.17 94.6942C49.1268 94.6756 49.0803 94.6657 49.0332 94.6651C49.0293 94.665 49.0254 94.665 49.0215 94.6651H39.6011Z" fill="white"/>
<path d="M39.6011 98.0279C39.5074 98.0295 39.4181 98.0679 39.3524 98.135C39.2867 98.202 39.2499 98.2923 39.2499 98.3864C39.2499 98.4804 39.2867 98.5707 39.3524 98.6377C39.4181 98.7048 39.5074 98.7433 39.6011 98.7448H58.2512C58.3457 98.746 58.4368 98.7096 58.5046 98.6435C58.5724 98.5774 58.6114 98.4871 58.6129 98.3922C58.6145 98.2974 58.5785 98.2058 58.5129 98.1375C58.4473 98.0692 58.3574 98.0298 58.2629 98.0279C58.259 98.0278 58.2551 98.0278 58.2512 98.0279H39.6011Z" fill="white"/>
<path d="M39.6011 101.39C39.5074 101.392 39.4181 101.43 39.3524 101.498C39.2867 101.565 39.2499 101.655 39.2499 101.749C39.2499 101.843 39.2867 101.933 39.3524 102C39.4181 102.067 39.5074 102.106 39.6011 102.107H58.2512C58.2982 102.108 58.345 102.1 58.3888 102.083C58.4326 102.066 58.4726 102.04 58.5064 102.007C58.5403 101.974 58.5674 101.935 58.5861 101.892C58.6049 101.849 58.615 101.802 58.6157 101.755C58.6165 101.708 58.608 101.661 58.5906 101.617C58.5733 101.573 58.5475 101.533 58.5147 101.499C58.482 101.465 58.4429 101.438 58.3996 101.42C58.3564 101.401 58.31 101.391 58.2629 101.39C58.259 101.39 58.2551 101.39 58.2512 101.39H39.6011Z" fill="white"/>
<path d="M39.6011 104.753C39.5074 104.755 39.4181 104.793 39.3524 104.86C39.2867 104.927 39.2499 105.018 39.2499 105.112C39.2499 105.206 39.2867 105.296 39.3524 105.363C39.4181 105.43 39.5074 105.469 39.6011 105.47H58.2512C58.2982 105.471 58.345 105.463 58.3888 105.446C58.4326 105.428 58.4726 105.403 58.5065 105.37C58.5404 105.337 58.5675 105.298 58.5862 105.255C58.605 105.211 58.615 105.165 58.6158 105.118C58.6166 105.07 58.6081 105.024 58.5907 104.98C58.5734 104.936 58.5476 104.896 58.5148 104.862C58.482 104.828 58.4429 104.801 58.3996 104.782C58.3564 104.764 58.31 104.754 58.2629 104.753C58.259 104.753 58.2551 104.753 58.2512 104.753H39.6011Z" fill="white"/>
<path d="M39.6011 108.116C39.5074 108.118 39.4181 108.156 39.3524 108.223C39.2867 108.29 39.2499 108.38 39.2499 108.474C39.2499 108.569 39.2867 108.659 39.3524 108.726C39.4181 108.793 39.5074 108.831 39.6011 108.833H58.2512C58.2982 108.834 58.345 108.826 58.3888 108.808C58.4326 108.791 58.4726 108.765 58.5065 108.733C58.5404 108.7 58.5675 108.661 58.5862 108.617C58.605 108.574 58.615 108.528 58.6158 108.48C58.6166 108.433 58.6081 108.386 58.5907 108.342C58.5734 108.299 58.5476 108.259 58.5148 108.225C58.482 108.191 58.4429 108.164 58.3996 108.145C58.3564 108.126 58.31 108.117 58.2629 108.116C58.259 108.116 58.2551 108.116 58.2512 108.116H39.6011Z" fill="white"/>
<path d="M39.6011 111.479C39.5074 111.48 39.4181 111.519 39.3524 111.586C39.2867 111.653 39.2499 111.743 39.2499 111.837C39.2499 111.931 39.2867 112.022 39.3524 112.089C39.4181 112.156 39.5074 112.194 39.6011 112.196H58.2512C58.2982 112.197 58.345 112.188 58.3888 112.171C58.4326 112.154 58.4726 112.128 58.5065 112.095C58.5404 112.063 58.5675 112.024 58.5862 111.98C58.605 111.937 58.615 111.89 58.6158 111.843C58.6166 111.796 58.6081 111.749 58.5907 111.705C58.5734 111.661 58.5476 111.621 58.5148 111.587C58.482 111.554 58.4429 111.527 58.3996 111.508C58.3564 111.489 58.31 111.479 58.2629 111.479C58.259 111.479 58.2551 111.479 58.2512 111.479H39.6011Z" fill="white"/>
<path d="M63.062 91.9728H59.4462C59.3453 91.9728 59.2485 91.9325 59.1771 91.8609C59.1057 91.7893 59.0656 91.6921 59.0656 91.5908V88.3445L63.062 91.9728Z" fill="#2F2E41"/>
<path opacity="0.2" d="M63.062 91.9728H59.4462C59.3453 91.9728 59.2485 91.9325 59.1771 91.8609C59.1057 91.7893 59.0656 91.6921 59.0656 91.5908V88.3445L63.062 91.9728Z" fill="black"/>
</g>
<defs>
<clipPath id="clip0_38_867">
<rect width="96" height="58" fill="white" transform="translate(16 69)"/>
</clipPath>
</defs>
</svg>
