<svg width="131" height="160" viewBox="0 0 131 160" fill="none" xmlns="http://www.w3.org/2000/svg">
<g filter="url(#filter0_d_38_708)">
<g clip-path="url(#clip0_38_708)">
<path d="M54.6635 130.752C54.3336 129.959 54.2973 129.073 54.5613 128.256C54.8254 127.439 55.3723 126.743 56.1032 126.294C56.3467 126.146 56.1242 125.762 55.8795 125.911C55.0411 126.413 54.4153 127.205 54.1207 128.139C53.826 129.072 53.883 130.082 54.2808 130.976C54.3926 131.238 54.7746 131.012 54.6636 130.752H54.6635Z" fill="#3F3D56"/>
<path d="M54.7904 131.349C54.1925 130.287 54.3332 129.017 54.5482 127.868C54.7727 126.669 55.067 125.452 54.8124 124.233C54.6969 123.641 54.4236 123.091 54.0214 122.642C53.8278 122.432 53.5149 122.747 53.708 122.957C54.4599 123.776 54.5471 124.963 54.4251 126.018C54.2813 127.263 53.8736 128.475 53.9242 129.739C53.9374 130.381 54.1031 131.01 54.4076 131.574C54.4383 131.622 54.4867 131.657 54.5426 131.671C54.5985 131.685 54.6574 131.676 54.7071 131.647C54.7567 131.618 54.7932 131.571 54.8087 131.515C54.8243 131.46 54.8177 131.4 54.7904 131.349L54.7904 131.349Z" fill="#3F3D56"/>
<path d="M57.9992 134.741H50.4633C50.287 134.74 50.118 134.67 49.9933 134.545C49.8687 134.42 49.7985 134.251 49.7983 134.074V131.855C49.799 131.284 50.0252 130.738 50.4275 130.334C50.8297 129.931 51.375 129.704 51.9438 129.704H53.0491C53.1079 129.704 53.1642 129.68 53.2058 129.638C53.2474 129.597 53.2707 129.54 53.2708 129.481V128.444C53.2709 128.346 53.3099 128.252 53.3791 128.183C53.4484 128.113 53.5423 128.074 53.6402 128.074H54.8223C54.9202 128.074 55.0141 128.113 55.0834 128.183C55.1526 128.252 55.1916 128.346 55.1917 128.444V129.481C55.1918 129.54 55.2152 129.597 55.2567 129.638C55.2983 129.68 55.3546 129.704 55.4134 129.704H56.5187C57.0875 129.704 57.6328 129.931 58.035 130.334C58.4373 130.738 58.6635 131.284 58.6642 131.855V134.074C58.664 134.251 58.5938 134.42 58.4692 134.545C58.3445 134.67 58.1755 134.74 57.9992 134.741V134.741Z" fill="#CCCCCC"/>
<path d="M54.347 121.413C54.5056 122.258 54.3092 123.003 53.9082 123.079C53.5072 123.155 53.0536 122.532 52.8949 121.688C52.7362 120.843 53.2242 119.439 53.2242 119.439C53.2242 119.439 54.1883 120.569 54.347 121.413Z" fill="#D8F9FF"/>
<path d="M57.39 125.341C56.8875 126.037 56.2122 126.407 55.8817 126.167C55.5512 125.927 55.6906 125.168 56.193 124.472C56.6955 123.776 58.0478 123.167 58.0478 123.167C58.0478 123.167 57.8924 124.645 57.39 125.341Z" fill="#D8F9FF"/>
<path d="M40.7738 77.4183C40.4438 76.6254 40.4075 75.7402 40.6716 74.9228C40.9356 74.1054 41.4825 73.4097 42.2135 72.9612C42.4569 72.8128 42.2344 72.4283 41.9897 72.5775C41.1513 73.0794 40.5255 73.8722 40.2309 74.8056C39.9363 75.7391 39.9932 76.7484 40.391 77.6426C40.5029 77.9048 40.8848 77.6786 40.7738 77.4183H40.7738Z" fill="#3F3D56"/>
<path d="M40.9006 78.0162C40.3027 76.9542 40.4434 75.6833 40.6585 74.5348C40.883 73.336 41.1772 72.1187 40.9226 70.8994C40.8071 70.3074 40.5338 69.7579 40.1316 69.3092C39.938 69.0984 39.6251 69.4133 39.8182 69.6235C40.5701 70.4423 40.6573 71.6302 40.5353 72.6851C40.3915 73.9293 39.9838 75.1418 40.0344 76.4061C40.0476 77.0474 40.2134 77.6763 40.5178 78.2405C40.5485 78.2892 40.5969 78.3241 40.6528 78.3378C40.7087 78.3515 40.7677 78.3428 40.8173 78.3137C40.867 78.2846 40.9034 78.2374 40.919 78.1818C40.9345 78.1263 40.9279 78.0669 40.9006 78.0162L40.9006 78.0162Z" fill="#3F3D56"/>
<path d="M44.1094 81.4074H36.5735C36.3972 81.4072 36.2282 81.3369 36.1035 81.2119C35.9789 81.0869 35.9088 80.9175 35.9086 80.7407V78.5214C35.9092 77.9511 36.1355 77.4044 36.5377 77.0011C36.9399 76.5978 37.4852 76.371 38.054 76.3704H39.1594C39.2181 76.3703 39.2745 76.3469 39.316 76.3052C39.3576 76.2635 39.3809 76.207 39.381 76.1481V75.1111C39.3811 75.0129 39.4201 74.9188 39.4893 74.8493C39.5586 74.7799 39.6525 74.7408 39.7504 74.7407H40.9325C41.0305 74.7408 41.1244 74.7799 41.1936 74.8493C41.2629 74.9188 41.3018 75.0129 41.3019 75.1111V76.1481C41.302 76.207 41.3254 76.2635 41.3669 76.3052C41.4085 76.3469 41.4648 76.3703 41.5236 76.3704H42.6289C43.1977 76.371 43.743 76.5978 44.1453 77.0011C44.5475 77.4044 44.7737 77.9511 44.7744 78.5214V80.7407C44.7742 80.9175 44.7041 81.0869 44.5794 81.2119C44.4547 81.3369 44.2857 81.4072 44.1094 81.4074V81.4074Z" fill="#CCCCCC"/>
<path d="M40.4572 68.08C40.6159 68.9243 40.4194 69.6701 40.0184 69.7459C39.6175 69.8216 39.1638 69.1986 39.0051 68.3544C38.8465 67.5101 39.3344 66.1062 39.3344 66.1062C39.3344 66.1062 40.2985 67.2358 40.4572 68.08Z" fill="#D8F9FF"/>
<path d="M43.5002 72.0077C42.9977 72.7036 42.3225 73.0733 41.9919 72.8334C41.6614 72.5935 41.8008 71.8349 42.3032 71.139C42.8057 70.4431 44.1581 69.8333 44.1581 69.8333C44.1581 69.8333 44.0026 71.3118 43.5002 72.0077Z" fill="#D8F9FF"/>
<path d="M25.7867 104.296H19.7284V106.519H25.7867V104.296Z" fill="#D8F9FF"/>
<path d="M25.7867 111.556H19.7284V113.778H25.7867V111.556Z" fill="#D8F9FF"/>
<path d="M62.7276 151.852H17.512C16.846 151.851 16.2075 151.586 15.7366 151.113C15.2656 150.641 15.0007 150.001 15 149.333V66.5185C15.0007 65.8508 15.2656 65.2106 15.7366 64.7385C16.2075 64.2663 16.846 64.0007 17.512 64H62.7276C63.3936 64.0008 64.0321 64.2663 64.503 64.7385C64.9739 65.2106 65.2388 65.8508 65.2396 66.5185V149.333C65.2388 150.001 64.9739 150.641 64.503 151.113C64.0321 151.586 63.3936 151.851 62.7276 151.852V151.852ZM17.512 64.2963C16.9243 64.297 16.361 64.5313 15.9454 64.9479C15.5299 65.3645 15.2962 65.9294 15.2955 66.5185V149.333C15.2962 149.922 15.5299 150.487 15.9454 150.904C16.361 151.321 16.9243 151.555 17.512 151.556H62.7276C63.3152 151.555 63.8786 151.321 64.2941 150.904C64.7096 150.487 64.9434 149.922 64.944 149.333V66.5185C64.9434 65.9294 64.7096 65.3645 64.2941 64.9479C63.8786 64.5313 63.3152 64.297 62.7276 64.2963H17.512Z" fill="#3F3D56"/>
<path d="M65.0917 81.104H15.1477V81.4003H65.0917V81.104Z" fill="#3F3D56"/>
<path d="M65.0917 98.8865H15.1477V99.1828H65.0917V98.8865Z" fill="#3F3D56"/>
<path d="M65.0917 116.669H15.1477V116.965H65.0917V116.669Z" fill="#3F3D56"/>
<path d="M65.0917 134.451H15.1477V134.748H65.0917V134.451Z" fill="#3F3D56"/>
<path d="M25.3435 117.037H20.3195C20.1236 117.037 19.9358 116.959 19.7973 116.82C19.6588 116.681 19.5809 116.493 19.5807 116.296V101.926C19.5809 101.73 19.6588 101.541 19.7973 101.403C19.9358 101.264 20.1236 101.186 20.3195 101.185H25.3435C25.5393 101.186 25.7271 101.264 25.8656 101.403C26.0041 101.541 26.0821 101.73 26.0823 101.926V116.296C26.0821 116.493 26.0041 116.681 25.8656 116.82C25.7271 116.959 25.5393 117.037 25.3435 117.037V117.037ZM20.3195 101.482C20.202 101.482 20.0893 101.529 20.0062 101.612C19.9231 101.695 19.8763 101.808 19.8762 101.926V116.296C19.8763 116.414 19.9231 116.527 20.0062 116.611C20.0893 116.694 20.202 116.741 20.3195 116.741H25.3435C25.461 116.741 25.5737 116.694 25.6568 116.611C25.7399 116.527 25.7866 116.414 25.7868 116.296V101.926C25.7866 101.808 25.7399 101.695 25.6568 101.612C25.5737 101.529 25.461 101.482 25.3435 101.482H20.3195Z" fill="#3F3D56"/>
<path d="M35.0958 104.296H29.0375V106.519H35.0958V104.296Z" fill="#D8F9FF"/>
<path d="M35.0958 111.556H29.0375V113.778H35.0958V111.556Z" fill="#D8F9FF"/>
<path d="M34.6525 117.037H29.6286C29.4327 117.037 29.2449 116.959 29.1064 116.82C28.9679 116.681 28.89 116.493 28.8898 116.296V101.926C28.89 101.73 28.9679 101.541 29.1064 101.403C29.2449 101.264 29.4327 101.186 29.6286 101.185H34.6525C34.8484 101.186 35.0362 101.264 35.1747 101.403C35.3132 101.541 35.3911 101.73 35.3914 101.926V116.296C35.3911 116.493 35.3132 116.681 35.1747 116.82C35.0362 116.959 34.8484 117.037 34.6525 117.037V117.037ZM29.6286 101.482C29.5111 101.482 29.3984 101.529 29.3153 101.612C29.2322 101.695 29.1854 101.808 29.1853 101.926V116.296C29.1854 116.414 29.2322 116.527 29.3153 116.611C29.3984 116.694 29.5111 116.741 29.6286 116.741H34.6525C34.7701 116.741 34.8827 116.694 34.9659 116.611C35.049 116.527 35.0957 116.414 35.0958 116.296V101.926C35.0957 101.808 35.049 101.695 34.9659 101.612C34.8827 101.529 34.7701 101.482 34.6525 101.482H29.6286Z" fill="#3F3D56"/>
<path d="M49.8721 86.3704H43.8138V88.5926H49.8721V86.3704Z" fill="#D8F9FF"/>
<path d="M49.8721 93.6296H43.8138V95.8519H49.8721V93.6296Z" fill="#D8F9FF"/>
<path d="M49.4289 99.1111H44.405C44.2091 99.1109 44.0213 99.0328 43.8828 98.8939C43.7443 98.7551 43.6664 98.5668 43.6661 98.3704V84C43.6664 83.8036 43.7443 83.6154 43.8828 83.4765C44.0213 83.3376 44.2091 83.2595 44.405 83.2593H49.4289C49.6248 83.2595 49.8126 83.3376 49.9511 83.4765C50.0896 83.6154 50.1675 83.8036 50.1677 84V98.3704C50.1675 98.5668 50.0896 98.7551 49.9511 98.8939C49.8126 99.0328 49.6248 99.1109 49.4289 99.1111V99.1111ZM44.405 83.5556C44.2874 83.5557 44.1748 83.6026 44.0916 83.6859C44.0085 83.7692 43.9618 83.8822 43.9617 84V98.3704C43.9618 98.4882 44.0085 98.6012 44.0916 98.6845C44.1748 98.7678 44.2874 98.8147 44.405 98.8148H49.4289C49.5464 98.8147 49.6591 98.7678 49.7422 98.6845C49.8253 98.6012 49.8721 98.4882 49.8722 98.3704V84C49.8721 83.8822 49.8253 83.7692 49.7422 83.6859C49.6591 83.6026 49.5464 83.5557 49.4289 83.5556H44.405Z" fill="#3F3D56"/>
<path d="M59.1812 86.3704H53.1229V88.5926H59.1812V86.3704Z" fill="#D8F9FF"/>
<path d="M59.1812 93.6296H53.1229V95.8519H59.1812V93.6296Z" fill="#D8F9FF"/>
<path d="M58.738 99.1111H53.714C53.5182 99.1109 53.3304 99.0328 53.1919 98.8939C53.0534 98.7551 52.9754 98.5668 52.9752 98.3704V84C52.9754 83.8036 53.0534 83.6154 53.1919 83.4765C53.3304 83.3376 53.5182 83.2595 53.714 83.2593H58.738C58.9339 83.2595 59.1217 83.3376 59.2602 83.4765C59.3987 83.6154 59.4766 83.8036 59.4768 84V98.3704C59.4766 98.5668 59.3987 98.7551 59.2602 98.8939C59.1217 99.0328 58.9339 99.1109 58.738 99.1111V99.1111ZM53.714 83.5556C53.5965 83.5557 53.4838 83.6026 53.4007 83.6859C53.3176 83.7692 53.2709 83.8822 53.2707 84V98.3704C53.2709 98.4882 53.3176 98.6012 53.4007 98.6845C53.4838 98.7678 53.5965 98.8147 53.714 98.8148H58.738C58.8555 98.8147 58.9682 98.7678 59.0513 98.6845C59.1344 98.6012 59.1812 98.4882 59.1813 98.3704V84C59.1812 83.8822 59.1344 83.7692 59.0513 83.6859C58.9682 83.6026 58.8555 83.5557 58.738 83.5556H53.714Z" fill="#3F3D56"/>
<path d="M42.5268 102.969L36.8557 105.106L37.6354 107.186L43.3065 105.049L42.5268 102.969Z" fill="#D8F9FF"/>
<path d="M45.0737 109.765L39.4026 111.901L40.1822 113.981L45.8534 111.845L45.0737 109.765Z" fill="#D8F9FF"/>
<path d="M41.6186 116.871C41.4684 116.871 41.3218 116.825 41.1983 116.739C41.0748 116.653 40.9804 116.532 40.9274 116.391L35.8857 102.939C35.817 102.755 35.8239 102.551 35.9048 102.372C35.9858 102.194 36.1341 102.054 36.3174 101.985L41.0203 100.213C41.1111 100.179 41.2078 100.163 41.3048 100.166C41.4017 100.169 41.4971 100.192 41.5855 100.232C41.6738 100.272 41.7534 100.329 41.8197 100.4C41.886 100.471 41.9377 100.555 41.9718 100.646L47.0135 114.098C47.0822 114.282 47.0753 114.486 46.9944 114.664C46.9134 114.843 46.7651 114.983 46.5818 115.052H46.5818L41.8789 116.824C41.7957 116.855 41.7075 116.871 41.6186 116.871V116.871ZM41.2804 100.462C41.2271 100.462 41.1742 100.472 41.1243 100.49L36.4214 102.262C36.3114 102.304 36.2224 102.387 36.1738 102.495C36.1253 102.602 36.1211 102.724 36.1623 102.835L41.2041 116.287C41.2245 116.341 41.2555 116.391 41.2953 116.434C41.3351 116.477 41.3828 116.511 41.4359 116.535C41.4889 116.559 41.5461 116.573 41.6043 116.575C41.6625 116.576 41.7205 116.567 41.7749 116.546L46.4778 114.775C46.5878 114.733 46.6768 114.649 46.7254 114.542C46.774 114.435 46.7781 114.313 46.7369 114.202L41.6952 100.75C41.6634 100.666 41.6067 100.593 41.5326 100.541C41.4585 100.49 41.3706 100.462 41.2804 100.462V100.462Z" fill="#3F3D56"/>
<path d="M22.1355 85.3395L16.4644 87.4761L17.244 89.5563L22.9151 87.4197L22.1355 85.3395Z" fill="#D8F9FF"/>
<path d="M24.6824 92.1349L19.0112 94.2715L19.7909 96.3517L25.462 94.2151L24.6824 92.1349Z" fill="#D8F9FF"/>
<path d="M21.2273 99.2418C21.077 99.2415 20.9304 99.1953 20.807 99.1095C20.6835 99.0236 20.589 98.9022 20.5361 98.7612L15.4943 85.3092C15.4257 85.1253 15.4326 84.9216 15.5135 84.7428C15.5944 84.5639 15.7428 84.4246 15.926 84.3553L20.629 82.5835C20.7198 82.5493 20.8164 82.5333 20.9134 82.5365C21.0104 82.5398 21.1058 82.5621 21.1941 82.6023C21.2825 82.6425 21.3621 82.6998 21.4284 82.7708C21.4946 82.8419 21.5463 82.9253 21.5804 83.0164L26.6222 96.4683C26.6908 96.6522 26.6839 96.856 26.603 97.0348C26.5221 97.2136 26.3737 97.353 26.1905 97.4223H26.1904L21.4875 99.194C21.4044 99.2255 21.3162 99.2417 21.2273 99.2418ZM20.8891 82.8322C20.8357 82.8323 20.7828 82.842 20.7329 82.8609L16.03 84.6326C15.92 84.6742 15.831 84.7578 15.7825 84.8651C15.7339 84.9724 15.7298 85.0947 15.771 85.205L20.8127 98.657C20.8332 98.7116 20.8642 98.7617 20.904 98.8043C20.9437 98.8469 20.9915 98.8813 21.0445 98.9054C21.0975 98.9295 21.1547 98.9429 21.2129 98.9449C21.2711 98.9468 21.3291 98.9372 21.3836 98.9167L26.0865 97.1449C26.1964 97.1033 26.2855 97.0197 26.334 96.9124C26.3826 96.8051 26.3867 96.6829 26.3455 96.5725L21.3038 83.1205C21.272 83.036 21.2153 82.9631 21.1413 82.9116C21.0672 82.8601 20.9792 82.8324 20.8891 82.8322V82.8322Z" fill="#3F3D56"/>
<path d="M107.648 101.037C110.178 101.037 112.228 98.9808 112.228 96.4444C112.228 93.908 110.178 91.8518 107.648 91.8518C105.118 91.8518 103.067 93.908 103.067 96.4444C103.067 98.9808 105.118 101.037 107.648 101.037Z" fill="#2F2E41"/>
<path d="M87.2978 117.403C87.5141 117.487 87.7463 117.523 87.9778 117.507C88.2094 117.491 88.4347 117.425 88.6379 117.313C88.8411 117.2 89.0172 117.045 89.1539 116.857C89.2906 116.669 89.3846 116.453 89.4291 116.225L102.024 108.257L99.7316 105.67L88.0666 114.32C87.679 114.271 87.2868 114.365 86.9642 114.586C86.6416 114.807 86.4111 115.139 86.3163 115.519C86.2216 115.899 86.2691 116.301 86.45 116.648C86.6309 116.995 86.9325 117.264 87.2978 117.403V117.403Z" fill="#FFB8B8"/>
<path d="M99.3945 110.376C99.283 110.376 99.1733 110.348 99.0754 110.294C98.9774 110.241 98.8944 110.164 98.834 110.07L97.3755 107.797C97.2835 107.654 97.2498 107.481 97.2813 107.313C97.3129 107.145 97.4073 106.996 97.5452 106.896L102.426 103.36C102.663 103.188 102.931 103.066 103.216 103C103.501 102.934 103.796 102.927 104.084 102.977C104.372 103.028 104.646 103.136 104.892 103.295C105.137 103.454 105.348 103.661 105.513 103.903C105.677 104.145 105.791 104.418 105.849 104.705C105.906 104.993 105.905 105.288 105.847 105.575C105.788 105.862 105.672 106.135 105.507 106.376C105.341 106.618 105.129 106.823 104.883 106.981L99.7513 110.271C99.6449 110.339 99.521 110.376 99.3945 110.376V110.376Z" fill="#2F2E41"/>
<path d="M101.574 150.052L99.7623 150.052L98.9004 143.046L101.574 143.046L101.574 150.052Z" fill="#FFB8B8"/>
<path d="M98.4682 149.533H101.962V151.738H96.2684C96.2684 151.449 96.3253 151.162 96.4359 150.894C96.5464 150.627 96.7085 150.383 96.9127 150.179C97.117 149.974 97.3595 149.811 97.6264 149.701C97.8932 149.59 98.1793 149.533 98.4682 149.533V149.533Z" fill="#2F2E41"/>
<path d="M110.031 148.694L108.287 149.185L105.568 142.674L108.142 141.949L110.031 148.694Z" fill="#FFB8B8"/>
<path d="M106.901 149.036L110.265 148.089L110.859 150.212L105.378 151.755C105.3 151.476 105.277 151.185 105.311 150.897C105.346 150.61 105.436 150.332 105.578 150.079C105.719 149.827 105.909 149.605 106.136 149.426C106.363 149.246 106.623 149.114 106.901 149.036V149.036Z" fill="#2F2E41"/>
<path d="M114.912 137.943L107.879 129.621L112.146 124.429C112.209 124.353 112.288 124.292 112.377 124.25C112.466 124.208 112.563 124.186 112.661 124.187C112.76 124.187 112.857 124.209 112.946 124.252C113.035 124.294 113.113 124.356 113.175 124.432L119.633 132.378L114.912 137.943Z" fill="#D8F9FF"/>
<path d="M108.162 129.683C108.266 129.496 108.395 129.324 108.545 129.171L112.618 125.031C112.778 124.868 112.993 124.771 113.22 124.76C113.686 124.738 114.449 124.785 114.662 125.297L109.162 129.808L108.162 129.683Z" fill="#F2F2F2"/>
<path d="M115.156 139.704C114.842 139.694 114.538 139.597 114.276 139.424L114.256 139.404L107.815 129.527L108.884 129.423L114.612 124.944C114.685 124.887 114.768 124.846 114.857 124.823C114.945 124.801 115.038 124.797 115.129 124.811C115.219 124.826 115.306 124.86 115.383 124.91C115.46 124.96 115.525 125.025 115.576 125.102L121.838 134.604C121.934 134.75 121.968 134.929 121.934 135.101C121.9 135.274 121.8 135.425 121.655 135.524L115.595 139.62C115.456 139.676 115.307 139.704 115.156 139.704Z" fill="#D8F9FF"/>
<path d="M112.878 132.947C112.817 132.947 112.758 132.932 112.704 132.904C112.651 132.876 112.605 132.834 112.571 132.784L111.831 131.682C111.777 131.6 111.756 131.5 111.775 131.404C111.794 131.308 111.85 131.223 111.931 131.168L115.727 128.605C115.809 128.551 115.908 128.531 116.005 128.549C116.101 128.568 116.185 128.624 116.24 128.706L116.98 129.808C117.035 129.889 117.055 129.989 117.036 130.086C117.017 130.182 116.961 130.267 116.88 130.322L113.084 132.884C113.023 132.925 112.951 132.947 112.878 132.947Z" fill="#3F3D56"/>
<path d="M98.6138 148.992C98.4117 148.992 98.2172 148.915 98.0685 148.778C97.9198 148.641 97.8277 148.453 97.8101 148.251C97.4877 144.579 95.8705 126.073 95.693 122.336C95.4958 118.184 98.9427 111.614 98.9775 111.549L99.0014 111.503L100.705 111.717V111.915L102.327 112.107L105.465 112.411L106.363 123.421L106.761 130.888L110.493 146.139C110.535 146.308 110.51 146.487 110.422 146.637C110.333 146.787 110.19 146.896 110.022 146.941L106.774 147.83C106.605 147.875 106.425 147.852 106.273 147.766C106.12 147.68 106.008 147.537 105.959 147.369L102.901 136.597C102.886 136.545 102.853 136.5 102.807 136.471C102.762 136.442 102.707 136.43 102.654 136.439C102.6 136.447 102.552 136.475 102.517 136.516C102.483 136.558 102.465 136.611 102.466 136.665L102.79 147.168C102.791 147.276 102.771 147.383 102.73 147.483C102.689 147.582 102.628 147.673 102.551 147.748C101.806 148.449 99.8388 148.823 98.7324 148.984C98.6931 148.99 98.6535 148.992 98.6138 148.992V148.992Z" fill="#2F2E41"/>
<path d="M108.374 102.725C107.859 102.186 104.463 102.926 103.709 103.72L98.5464 112.18L107.084 113.773L108.97 103.023L108.374 102.725Z" fill="#D8F9FF"/>
<path d="M106.137 124.219C105.953 124.219 105.77 124.189 105.596 124.129C105.1 123.958 104.492 123.78 103.789 123.599C100.711 122.805 99.6241 120.264 100.559 116.046L100.583 115.939C101.461 111.938 103.115 108.149 105.452 104.789L105.814 104.267C106.251 103.638 106.863 103.152 107.574 102.869C108.284 102.585 109.062 102.518 109.811 102.674C111.196 102.96 111.94 103.376 112.021 103.908C112.182 104.952 109.088 117.577 107.75 122.957C107.66 123.318 107.453 123.638 107.16 123.867C106.868 124.096 106.508 124.22 106.137 124.219L106.137 124.219Z" fill="#2F2E41"/>
<path d="M95.5317 122.598C95.4512 122.598 95.3712 122.586 95.2945 122.561L94.2967 122.241C94.1935 122.208 94.0984 122.154 94.0174 122.082C93.9364 122.01 93.8713 121.921 93.8262 121.823C93.7811 121.724 93.7571 121.617 93.7557 121.508C93.7542 121.4 93.7754 121.292 93.8179 121.192L99.1124 108.732C100.127 106.355 101.901 104.384 104.155 103.128H104.155C104.187 103.11 104.223 103.099 104.261 103.096C104.298 103.092 104.335 103.096 104.371 103.108C104.403 103.118 104.433 103.136 104.459 103.158C104.484 103.181 104.505 103.209 104.519 103.24C105.142 104.614 101.753 111.113 99.0293 116.336C97.6349 119.01 96.4306 121.32 96.2935 121.978C96.2569 122.154 96.1612 122.311 96.0225 122.424C95.8837 122.537 95.7104 122.598 95.5317 122.598V122.598Z" fill="#2F2E41"/>
<path d="M111.912 125.438C112.098 125.298 112.251 125.12 112.361 124.915C112.471 124.71 112.534 124.483 112.547 124.251C112.56 124.019 112.522 123.787 112.436 123.571C112.35 123.355 112.217 123.16 112.048 123.001L112.006 108.07L108.602 108.643L109.715 123.147C109.467 123.45 109.339 123.833 109.354 124.225C109.37 124.616 109.528 124.988 109.799 125.27C110.069 125.553 110.434 125.726 110.824 125.757C111.213 125.787 111.6 125.674 111.912 125.438V125.438Z" fill="#FFB8B8"/>
<path d="M109.14 111.774C108.971 111.774 108.809 111.71 108.686 111.594C108.562 111.479 108.488 111.32 108.477 111.152L108.081 105.127C108.043 104.547 108.237 103.976 108.618 103.539C109 103.103 109.539 102.835 110.117 102.796C110.414 102.777 110.712 102.818 110.992 102.918C111.273 103.018 111.53 103.174 111.748 103.377C111.966 103.58 112.14 103.825 112.26 104.098C112.38 104.371 112.444 104.665 112.446 104.963L112.5 111.07C112.501 111.246 112.433 111.416 112.31 111.542C112.187 111.668 112.019 111.74 111.843 111.743L109.148 111.774L109.14 111.774Z" fill="#2F2E41"/>
<path d="M106.704 101.271C108.708 101.271 110.333 99.6417 110.333 97.6321C110.333 95.6225 108.708 93.9934 106.704 93.9934C104.7 93.9934 103.075 95.6225 103.075 97.6321C103.075 99.6417 104.7 101.271 106.704 101.271Z" fill="#FFB8B8"/>
<path d="M109.722 100.178C109.992 99.3144 110.241 98.2961 109.705 97.5673C109.319 97.0422 108.626 96.8389 107.976 96.8098C107.326 96.7807 106.674 96.8912 106.026 96.8395C105.377 96.7878 104.692 96.5312 104.362 95.9687C103.935 95.2393 104.297 94.2347 104.984 93.7436C105.671 93.2524 106.578 93.1838 107.414 93.2982C108.472 93.4241 109.466 93.87 110.265 94.5767C111.042 95.2956 111.548 96.332 111.525 97.3918C111.503 98.4516 110.91 99.507 109.965 99.9828" fill="#2F2E41"/>
<path d="M108.817 92.2272C107.948 91.9589 107.547 90.8073 107.936 89.9832C108.324 89.1592 109.317 88.7277 110.219 88.8425C111.121 88.9573 111.916 89.5374 112.464 90.2645C113.012 90.9917 113.343 91.8584 113.618 92.727C113.894 93.5956 114.123 94.483 114.499 95.3126C115.097 96.5874 116.018 97.6821 117.171 98.4867C118.324 99.2914 119.668 99.7777 121.068 99.8967C121.678 99.941 122.311 99.9093 122.867 99.6536C123.423 99.3979 123.889 98.8824 123.951 98.2723C124.268 100.44 123.01 102.743 121.019 103.643C119.027 104.544 116.473 103.965 115.062 102.292C113.683 100.658 113.47 98.3508 113.503 96.2105C113.512 95.6236 113.534 95.0256 113.372 94.4615C113.21 93.8974 112.827 93.361 112.27 93.1818C111.82 93.0372 111.333 93.1415 110.872 93.2439C110.411 93.3464 109.921 93.4451 109.474 93.2906C109.028 93.1361 108.668 92.627 108.848 92.1891" fill="#2F2E41"/>
<path d="M123.175 152H84.1655C84.1263 152 84.0887 151.984 84.061 151.957C84.0333 151.929 84.0177 151.891 84.0177 151.852C84.0177 151.812 84.0333 151.775 84.061 151.747C84.0887 151.719 84.1263 151.704 84.1655 151.704H123.175C123.214 151.704 123.252 151.719 123.279 151.747C123.307 151.775 123.323 151.812 123.323 151.852C123.323 151.891 123.307 151.929 123.279 151.957C123.252 151.984 123.214 152 123.175 152Z" fill="#CCCCCC"/>
</g>
</g>
<defs>
<filter id="filter0_d_38_708" x="-4" y="0" width="139" height="164" filterUnits="userSpaceOnUse" color-interpolation-filters="sRGB">
<feFlood flood-opacity="0" result="BackgroundImageFix"/>
<feColorMatrix in="SourceAlpha" type="matrix" values="0 0 0 0 0 0 0 0 0 0 0 0 0 0 0 0 0 0 127 0" result="hardAlpha"/>
<feOffset dy="4"/>
<feGaussianBlur stdDeviation="2"/>
<feComposite in2="hardAlpha" operator="out"/>
<feColorMatrix type="matrix" values="0 0 0 0 0 0 0 0 0 0 0 0 0 0 0 0 0 0 0.25 0"/>
<feBlend mode="normal" in2="BackgroundImageFix" result="effect1_dropShadow_38_708"/>
<feBlend mode="normal" in="SourceGraphic" in2="effect1_dropShadow_38_708" result="shape"/>
</filter>
<clipPath id="clip0_38_708">
<rect width="109" height="88" fill="white" transform="translate(15 64)"/>
</clipPath>
</defs>
</svg>
