<svg width="281" height="150" viewBox="0 0 281 150" fill="none" xmlns="http://www.w3.org/2000/svg">
<g clip-path="url(#clip0_8_22)">
<path d="M230.642 134.197H56.8668C55.2517 134.197 53.938 132.825 53.938 131.138C53.938 129.452 55.2517 128.08 56.8668 128.08H230.642C232.257 128.08 233.571 129.452 233.571 131.138C233.571 132.825 232.257 134.197 230.642 134.197Z" fill="#E6E6E6"/>
<path d="M192.08 150H95.4293C93.8143 150 92.5005 148.628 92.5005 146.941C92.5005 145.255 93.8143 143.883 95.4293 143.883H192.08C193.695 143.883 195.008 145.255 195.008 146.941C195.008 148.628 193.695 150 192.08 150Z" fill="#E6E6E6"/>
<path d="M76.2045 27.5156L87.1565 22.7021L91.854 32.759L80.3451 37.6647L76.2045 27.5156Z" fill="#FFB6B6"/>
<path opacity="0.1" d="M76.2045 27.5156L87.1565 22.7021L91.854 32.759L80.3451 37.6647L76.2045 27.5156Z" fill="black"/>
<path d="M77.7615 23.6833L88.5658 36.6836C88.5658 36.6836 81.0497 61.4577 73.5337 63.6653C66.0177 65.8729 52.1601 76.6656 52.1601 76.6656L34.7793 64.8917L43.2348 51.8915C43.2348 51.8915 63.669 22.7021 69.0711 22.7021C74.4732 22.7021 77.7615 23.6833 77.7615 23.6833V23.6833Z" fill="#D8F9FF"/>
<path d="M63.164 108.431H38.0135L36.4234 106.211L29.9315 97.1473L28.4377 95.0623C28.4377 95.0623 22.8007 84.2696 23.975 74.4581C25.1494 64.6466 37.3629 62.439 37.3629 62.439H37.8656L52.8177 76.1604L51.9252 88.9301L56.6603 97.1473L63.164 108.431Z" fill="#2F2E41"/>
<path d="M43.1644 108.431H36.4235V98.0059L43.1644 108.431Z" fill="#2F2E41"/>
<path d="M228.463 35.5144L230.978 51.8923L215.093 52.1063V37.8671L228.463 35.5144Z" fill="#FFB6B6"/>
<path opacity="0.1" d="M228.463 35.5144L230.978 51.8923L215.093 52.1063V37.8671L228.463 35.5144Z" fill="black"/>
<path d="M266.3 92.6044L265.462 97.1471L263.381 108.43H221.576C221.902 105.901 222.348 102.261 222.825 98.3319C222.872 97.9394 222.921 97.5445 222.968 97.1471C224.164 87.2694 225.472 76.0916 225.472 76.0916L230.968 76.7882L241.632 78.1373L245.977 78.6867L257.612 80.1609C263.414 80.8943 267.404 86.6095 266.3 92.6044Z" fill="#F2F2F2"/>
<path d="M188.557 92.6044L187.718 97.1471L185.637 108.43H143.832C144.158 105.901 144.605 102.261 145.081 98.3319C145.128 97.9394 145.178 97.5445 145.225 97.1471C146.42 87.2694 147.728 76.0916 147.728 76.0916L153.225 76.7882L163.888 78.1373L168.233 78.6867L179.869 80.1609C185.67 80.8943 189.661 86.6095 188.557 92.6044Z" fill="#F2F2F2"/>
<path d="M247.719 108.431H225.045C225.39 108.006 225.585 107.761 225.585 107.761L232.382 106.588L246.388 104.175C246.388 104.175 247.027 105.899 247.719 108.431V108.431Z" fill="#2F2E41"/>
<path d="M216.526 108.431H182.283C182.624 107.724 182.976 107.015 183.338 106.309C183.822 105.364 184.338 104.523 184.886 103.775C185.25 103.277 185.626 102.821 186.013 102.404C187.152 101.18 188.392 100.289 189.698 99.6787C194.361 97.4883 199.854 98.83 204.533 101.013C206.29 101.832 207.932 102.769 209.371 103.682C211.908 105.291 213.822 106.826 214.637 107.508C214.919 107.741 215.07 107.876 215.07 107.876L216.526 108.431V108.431Z" fill="#2F2E41"/>
<path d="M189.36 108.431H184.503L185.783 106.878L186.506 106L186.816 106.262L189.36 108.431Z" fill="#FFB6B6"/>
<path d="M249.378 108.431H207.551L209.371 103.682L211.873 97.1473L213.129 93.8653L212.091 89.2515C212.091 89.2515 211.579 88.8737 210.799 88.1943C208.021 85.7904 201.837 79.5994 203.258 73.2415C204.874 66.0055 206.903 51.9039 207.333 48.8647C207.387 48.4846 207.415 48.2785 207.415 48.2785L213.451 46.7332L213.651 46.6817L214.299 46.5149H230.468L242.36 54.9258L242.357 55.0141L241.632 78.1375L241.322 88.0299C241.322 88.0299 240.948 89.4575 241.037 91.6749C241.096 93.1957 241.371 95.0869 242.132 97.1473C242.937 99.3377 244.293 101.717 246.517 104.04C248.196 105.794 249.011 107.27 249.378 108.431V108.431Z" fill="#D8F9FF"/>
<path d="M245.977 78.6869C245.58 82.0866 245.199 84.5027 245.199 84.5027L241.037 91.6749L237.862 97.1473L232.382 106.588L231.579 107.974L231.006 108.431H213.815L214.637 107.508L222.825 98.3321L223.884 97.1473L225.601 95.2218L230.968 76.7884L237.293 55.0632C237.293 55.0632 239.856 54.1311 242.357 55.0142C243.673 55.4778 244.974 56.4442 245.869 58.3182C247.581 61.8945 246.747 72.123 245.977 78.6869Z" fill="#D8F9FF"/>
<path d="M215.737 78.0933L210.799 88.1942L206.424 97.1473L204.533 101.013L203.788 102.539L197.407 108.431H182.957L185.339 105.34L186.225 104.187L189.698 99.6787L191.648 97.1473L196.939 90.2743L198.351 58.971C198.585 53.7791 202.373 49.582 207.303 48.8699C207.314 48.8684 207.323 48.8666 207.333 48.8647C208.935 48.5287 211.481 48.4306 213.451 50.4198C213.519 50.4861 213.585 50.5572 213.651 50.6308C213.982 50.9963 214.294 51.4255 214.581 51.9283C214.609 51.9774 214.637 52.029 214.663 52.0805C214.745 52.2374 214.825 52.4091 214.898 52.5931C217.414 58.7106 215.737 78.0933 215.737 78.0933L215.737 78.0933Z" fill="#D8F9FF"/>
<path d="M151.539 32.4219L161.4 46.9857L144.199 47.5221L142.353 33.8356L151.539 32.4219Z" fill="#A0616A"/>
<path opacity="0.1" d="M151.539 32.4219L161.4 46.9857L144.199 47.5221L142.353 33.8356L151.539 32.4219Z" fill="black"/>
<path d="M102.909 62.5969C101.644 58.7851 98.7351 56.3771 96.4124 57.2184C94.0897 58.0597 93.233 61.8313 94.4992 65.6443C94.985 67.1747 95.8147 68.5613 96.9188 69.6881L102.475 85.7682L109.645 82.8843L103.406 67.3384C103.606 65.7391 103.435 64.1132 102.909 62.5969Z" fill="#A0616A"/>
<path d="M169.658 55.176L169.645 70.0184L168.322 75.5006L165.602 86.7765L163.622 97.1473L162.147 104.874L161.621 107.633C161.224 107.911 160.83 108.175 160.435 108.431H126.08C124.128 107.207 123.036 106.255 123.036 106.255C123.036 106.255 123.576 105.725 124.194 104.874C125.237 103.437 126.498 101.082 125.725 98.8324C125.563 98.3615 125.521 97.7875 125.57 97.1473C125.885 92.9235 130.127 85.7806 130.127 85.7806L129.248 75.1793L128.863 70.5335L131.579 47.881L140.432 42.5068L141.96 42.3524L157.046 41.5012L163.281 41.8765L163.566 41.9575L169.658 55.176L169.658 55.176Z" fill="#CCCCCC"/>
<path d="M170.328 108.431H162.812L162.481 104.874L162.474 104.803L164.602 104.651L170.138 104.256L170.234 106.385L170.309 108.019L170.328 108.431Z" fill="#FFB6B6"/>
<path d="M172.178 58.7646L175.336 78.1105L172.759 97.1473L172.357 100.11L171.648 105.342L171.43 106.951L171.437 107.126L171.491 108.431H162.566L162.237 104.874L162.209 104.555L161.537 97.2699L161.525 97.1473L160.099 81.699L162.894 70.5335L163.101 69.7118V69.7094L164.317 50.5916L163.375 41.9035L163.366 41.8225C163.385 41.8348 163.401 41.8471 163.42 41.8593C163.469 41.8912 163.519 41.9231 163.566 41.9574C169.052 45.5926 172.322 51.9701 172.178 58.7646Z" fill="#CCCCCC"/>
<path d="M134.777 51.588L131.344 47.8806C131.344 47.8806 123.997 51.3398 123.631 53.2589C123.265 55.178 110.292 83.3648 110.292 83.3648L104.648 67.6226L97.3016 72.7449C97.3016 72.7449 103.196 97.1856 108.709 98.333C114.222 99.4804 132.699 69.4051 132.699 69.4051L134.777 51.588H134.777Z" fill="#CCCCCC"/>
<path d="M220.045 42.8038C226.352 42.8038 231.465 37.4643 231.465 30.8777C231.465 24.2911 226.352 18.9517 220.045 18.9517C213.738 18.9517 208.625 24.2911 208.625 30.8777C208.625 37.4643 213.738 42.8038 220.045 42.8038Z" fill="#FFB6B6"/>
<path d="M224.78 35.5668C224.78 35.5668 223.596 32.1605 222.925 30.393C222.254 28.6255 222.692 26.3319 222.692 26.3319C222.692 26.3319 213.733 24.2669 210.226 26.3136C206.718 28.3603 206.482 18.0657 210.042 15.2638C210.042 15.2638 210.995 16.9943 210.625 17.4918L210.255 17.9893C210.255 17.9893 212.95 12.0389 217.499 11.741C217.499 11.741 219.655 13.5378 218.843 14.131C218.03 14.7241 224.835 10.7781 226.018 14.1843C226.018 14.1843 230.357 14.9915 229.511 16.5391L229.583 17.6072C229.583 17.6072 233.515 17.1809 233.235 20.0909C233.235 20.0909 231.912 19.8156 231.066 20.4055C230.22 20.9954 233.078 23.7927 233.078 23.7927C233.078 23.7927 234.797 35.4491 228.838 38.8052C228.838 38.8052 229.805 33.5005 227.53 34.3677C225.256 35.2349 224.78 35.5667 224.78 35.5667V35.5668Z" fill="#2F2E41"/>
<path d="M274.139 111.308H6.86094C3.0778 111.308 0 108.094 0 104.143C0 100.192 3.0778 96.978 6.86094 96.978H274.139C277.922 96.978 281 100.192 281 104.143C281 108.094 277.922 111.308 274.139 111.308Z" fill="#E6E6E6"/>
<path d="M168.094 75.138L167.574 100.462C167.524 102.914 165.607 104.874 163.259 104.874H118.651C116.358 104.874 114.466 103.002 114.341 100.612L113.015 75.2875C112.88 72.705 114.849 70.5334 117.325 70.5334H163.778C166.199 70.5334 168.146 72.6111 168.094 75.138Z" fill="#3F3D56"/>
<path d="M265.023 75.138L264.504 100.462C264.454 102.914 262.536 104.874 260.188 104.874H215.58C213.288 104.874 211.395 103.002 211.27 100.612L209.945 75.2875C209.809 72.705 211.778 70.5334 214.255 70.5334H260.708C263.128 70.5334 265.075 72.6111 265.023 75.138Z" fill="#3F3D56"/>
<path d="M96.0817 33.6288C101.976 33.6288 106.754 28.6387 106.754 22.4831C106.754 16.3275 101.976 11.3374 96.0817 11.3374C90.1874 11.3374 85.4091 16.3275 85.4091 22.4831C85.4091 28.6387 90.1874 33.6288 96.0817 33.6288Z" fill="#FFB6B6"/>
<path d="M78.2312 51.6461L79.4056 64.8917L87.3914 98.4962L80.4922 101.022L68.8362 64.4011L67.2263 49.6838L78.2312 51.6461Z" fill="#FFB6B6"/>
<path d="M75.0546 75.138L74.5349 100.462C74.4846 102.914 72.5673 104.874 70.2194 104.874H25.6115C23.3191 104.874 21.4265 103.002 21.3014 100.612L19.9757 75.2875C19.8405 72.705 21.8093 70.5334 24.2858 70.5334H70.739C73.1592 70.5334 75.1064 72.6111 75.0546 75.138H75.0546Z" fill="#3F3D56"/>
<path d="M88.6629 105.045C93.318 105.045 97.0916 103.302 97.0916 101.152C97.0916 99.0014 93.318 97.2583 88.6629 97.2583C84.0079 97.2583 80.2343 99.0014 80.2343 101.152C80.2343 103.302 84.0079 105.045 88.6629 105.045Z" fill="#FFB6B6"/>
<path d="M61.6725 53.6714L66.4875 26.8722C66.4875 26.8722 79.8754 24.9099 80.3451 29.5704C80.8149 34.2309 80.0095 57.0073 80.0095 57.0073L61.6725 53.6714V53.6714Z" fill="#D8F9FF"/>
<path d="M91.7735 24.2354C91.7735 24.2354 98.3755 21.7747 101.16 20.4507C103.945 19.1267 109.478 28.3614 109.601 23.4843C109.724 18.6071 107.812 16.5618 107.812 16.5618C107.812 16.5618 107.335 5.89238 97.042 7.22632C97.042 7.22632 99.306 1.88827 91.8744 1.06284C84.4427 0.237403 72.8809 18.9793 73.9164 21.7802C74.9518 24.581 76.1931 26.8966 73.2554 29.8914C70.3177 32.8862 64.8169 49.7878 69.0022 54.3359C73.1874 58.884 73.4621 60.8576 70.5945 63.6871C67.7269 66.5166 60.9488 72.669 68.2775 73.737C75.6063 74.8051 67.607 74.0074 73.0707 68.9884C78.5344 63.9694 86.5071 64.1744 83.5302 56.1219C80.5533 48.0694 85.7253 36.5302 85.0781 34.7797C84.431 33.0291 86.528 21.913 86.528 21.913C86.528 21.913 91.4086 21.1642 91.7735 24.2354V24.2354Z" fill="#2F2E41"/>
<path d="M146.267 37.6931C152.683 37.6931 157.884 32.261 157.884 25.5602C157.884 18.8593 152.683 13.4272 146.267 13.4272C139.85 13.4272 134.649 18.8593 134.649 25.5602C134.649 32.261 139.85 37.6931 146.267 37.6931Z" fill="#A0616A"/>
<path d="M147.194 9.24835C146.858 9.45329 146.407 9.14322 146.3 8.7526C146.192 8.36198 146.317 7.94725 146.442 7.56209L147.069 5.62316C147.513 4.24802 147.985 2.82483 148.948 1.77817C150.401 0.198409 152.711 -0.203475 154.79 0.0876758C157.46 0.461572 160.094 1.97139 161.335 4.46808C162.577 6.96476 162.048 10.4485 159.805 12.0062C163.002 15.833 164.117 20.0978 163.941 25.173C163.765 30.2482 158.469 34.919 155.015 38.4943C154.244 38.0061 153.543 35.7179 153.967 34.8866C154.391 34.0554 153.783 33.0924 154.308 32.3267C154.834 31.561 155.273 32.7802 154.742 32.0189C154.407 31.5385 155.715 30.4333 155.217 30.1457C152.808 28.755 152.006 25.6189 150.493 23.2174C148.668 20.3207 145.544 18.3591 142.239 18.0336C140.418 17.8543 138.495 18.179 137.002 19.2831C135.509 20.3871 134.543 22.36 134.889 24.2356C133.993 23.2851 133.547 21.8922 133.715 20.5697C133.883 19.2473 134.662 18.0244 135.765 17.3514C135.095 15.0352 135.669 12.3709 137.226 10.5786C138.782 8.78625 145.097 9.09152 147.37 9.56323L147.194 9.24835Z" fill="#2F2E41"/>
<path d="M147.547 18.104C150.557 18.4433 152.73 21.1662 154.565 23.6808C155.623 25.1302 156.731 26.7307 156.704 28.5528C156.677 30.395 155.498 31.9751 154.934 33.7209C154.013 36.5746 154.911 39.9697 157.104 41.925C154.937 42.3545 152.594 40.6576 152.22 38.3874C151.785 35.7447 153.703 33.194 153.476 30.5229C153.276 28.1697 151.5 26.3586 149.99 24.5991C148.481 22.8395 147.063 20.5047 147.757 18.2563L147.547 18.104Z" fill="#2F2E41"/>
</g>
<defs>
<clipPath id="clip0_8_22">
<rect width="281" height="150" fill="white"/>
</clipPath>
</defs>
</svg>
