<svg width="149" height="156" viewBox="0 0 149 156" fill="none" xmlns="http://www.w3.org/2000/svg">
<g clip-path="url(#clip0_38_766)">
<g opacity="0.2">
<path d="M51.5786 143.678C51.6534 143.994 51.7529 144.304 51.876 144.604C53.7902 143.828 55.7254 143.085 57.6818 142.374C57.6653 142.29 57.6487 142.202 57.6281 142.115C57.431 141.221 57.0103 140.396 56.408 139.723C55.6258 138.87 54.6178 138.458 53.6373 138.71C52.6568 138.961 51.9449 139.822 51.6199 140.954C51.3769 141.843 51.3627 142.782 51.5786 143.678V143.678Z" fill="#3F3D56"/>
<path d="M54.3288 141.983C56.0093 141.596 56.9645 139.402 56.4623 137.082C55.9602 134.763 54.1909 133.196 52.5104 133.583C50.8299 133.971 49.8747 136.165 50.3769 138.484C50.879 140.804 52.6483 142.37 54.3288 141.983Z" fill="#3F3D56"/>
<path d="M53.1496 136.866C54.8301 136.479 55.7853 134.285 55.2831 131.965C54.781 129.646 53.0117 128.079 51.3312 128.466C49.6507 128.854 48.6955 131.048 49.1977 133.367C49.6998 135.687 51.4691 137.253 53.1496 136.866Z" fill="#3F3D56"/>
<path d="M51.968 131.752C53.6484 131.365 54.6036 129.171 54.1015 126.852C53.5994 124.532 51.83 122.966 50.1496 123.353C48.4691 123.74 47.5139 125.934 48.016 128.254C48.5182 130.573 50.2875 132.14 51.968 131.752Z" fill="#3F3D56"/>
<path d="M50.7863 126.637C52.4668 126.25 53.422 124.056 52.9199 121.737C52.4177 119.417 50.6484 117.851 48.9679 118.238C47.2875 118.625 46.3322 120.819 46.8344 123.139C47.3365 125.458 49.1059 127.025 50.7863 126.637Z" fill="#3F3D56"/>
<path d="M53.1195 84.5087C53.406 83.8457 53.648 83.1631 53.8438 82.4658L45.5814 83.1363L54.1936 80.9868C54.6051 78.7525 54.553 76.4535 54.0407 74.2414C53.5916 72.2831 52.7865 70.4304 51.668 68.7817L41.5878 78.0801L50.3144 67.074C46.7519 63.1501 41.3634 61.2833 36.0079 62.6699C28.0057 64.7342 23.1019 73.264 25.0546 81.7213C25.8308 85.1374 27.6916 88.1878 30.3412 90.3876C29.8961 91.4201 29.5577 92.4982 29.3318 93.604L40.9571 96.6073L29.0564 95.5432C28.9141 97.2575 29.0387 98.9841 29.4255 100.658C30.203 104.074 32.0641 107.124 34.7134 109.324C33.3212 112.549 32.9997 116.158 33.7991 119.591C35.7518 128.049 43.8214 133.23 51.8237 131.167C59.8259 129.104 64.7296 120.574 62.7769 112.117C61.9994 108.701 60.1383 105.651 57.489 103.451C58.8812 100.226 59.2027 96.6164 58.4033 93.1835C57.6293 89.7648 55.7694 86.7113 53.1195 84.5087Z" fill="#D8F9FF"/>
<path opacity="0.1" d="M29.4282 100.652C30.2058 104.068 32.0669 107.118 34.7162 109.318C33.3239 112.543 33.0025 116.153 33.8018 119.585C35.7545 128.043 43.8242 133.224 51.8264 131.161C59.8286 129.098 64.7324 120.569 62.7797 112.111C62.0022 108.695 60.1411 105.645 57.4917 103.445C58.833 100.339 29.0316 98.9372 29.4282 100.652Z" fill="black"/>
</g>
<g opacity="0.2">
<path d="M88.717 142.116C88.6668 142.486 88.647 142.86 88.6577 143.233C91.0585 143.273 93.4683 143.356 95.8874 143.483C95.9039 143.385 95.9205 143.286 95.9342 143.185C96.0902 142.143 95.9737 141.077 95.5968 140.098C95.0983 138.845 94.1688 137.948 93.0052 137.775C91.8416 137.601 90.7068 138.192 89.8875 139.247C89.2565 140.079 88.8524 141.069 88.717 142.116Z" fill="#3F3D56"/>
<path d="M96.7696 137.233C97.1447 134.541 95.8328 132.119 93.8393 131.823C91.8459 131.528 89.9259 133.47 89.5508 136.162C89.1758 138.854 90.4877 141.276 92.4811 141.571C94.4745 141.867 96.3946 139.925 96.7696 137.233Z" fill="#3F3D56"/>
<path d="M97.5993 131.275C97.9744 128.583 96.6625 126.161 94.669 125.866C92.6756 125.57 90.7556 127.513 90.3805 130.205C90.0055 132.896 91.3174 135.318 93.3108 135.614C95.3042 135.91 97.2243 133.967 97.5993 131.275Z" fill="#3F3D56"/>
<path d="M98.4287 125.319C98.8038 122.627 97.4918 120.205 95.4984 119.91C93.505 119.614 91.5849 121.556 91.2099 124.248C90.8348 126.94 92.1468 129.362 94.1402 129.658C96.1336 129.953 98.0536 128.011 98.4287 125.319Z" fill="#3F3D56"/>
<path d="M99.2597 119.362C99.6348 116.67 98.3229 114.248 96.3294 113.952C94.336 113.657 92.416 115.599 92.0409 118.291C91.6659 120.983 92.9778 123.405 94.9712 123.7C96.9646 123.996 98.8847 122.053 99.2597 119.362Z" fill="#3F3D56"/>
<path d="M114.835 80.0592C115.418 79.4836 115.962 78.8665 116.462 78.2123L107.204 75.2118L117.448 76.8101C118.739 74.7475 119.609 72.4348 120.004 70.0136C120.4 67.5923 120.312 65.1133 119.747 62.7282L104.962 68.0473L118.992 60.3045C118.098 58.0088 116.756 55.9276 115.049 54.1904C113.342 52.4532 111.306 51.0973 109.069 50.2072C106.831 49.3171 104.44 48.9118 102.044 49.0167C99.6486 49.1215 97.2994 49.7342 95.1431 50.8165C92.9868 51.8989 91.0697 53.4277 89.5112 55.3078C87.9526 57.1879 86.786 59.379 86.0841 61.7445C85.3821 64.11 85.1598 66.5993 85.4311 69.0573C85.7023 71.5153 86.4613 73.8894 87.6607 76.0316C86.7537 76.9257 85.9425 77.9178 85.2412 78.9909L96.631 87.4127L84.1395 80.923C82.8254 83.5966 82.1783 86.5661 82.2567 89.5626C82.3351 92.5592 83.1365 95.4883 84.5884 98.0849C82.2163 100.418 80.5285 103.393 79.7179 106.669C78.9073 109.945 79.0066 113.391 80.0046 116.611C81.0025 119.832 82.8588 122.698 85.3611 124.881C87.8635 127.065 90.9109 128.478 94.155 128.959C97.3991 129.44 100.709 128.97 103.706 127.602C106.703 126.233 109.267 124.023 111.103 121.222C112.94 118.422 113.976 115.145 114.092 111.766C114.209 108.387 113.402 105.042 111.762 102.114C114.597 99.3256 116.441 95.635 116.999 91.6352C117.556 87.6354 116.794 83.5584 114.835 80.0592V80.0592Z" fill="#D8F9FF"/>
<path opacity="0.1" d="M82.425 86.5092C81.862 90.509 82.6242 94.5878 84.5884 98.0849C82.2163 100.418 80.5285 103.393 79.7179 106.669C78.9073 109.945 79.0066 113.391 80.0046 116.611C81.0025 119.832 82.8588 122.698 85.3611 124.881C87.8635 127.065 90.9109 128.478 94.155 128.959C97.3991 129.44 100.709 128.97 103.706 127.602C106.703 126.233 109.267 124.023 111.103 121.222C112.94 118.422 113.976 115.145 114.092 111.766C114.209 108.387 113.402 105.042 111.762 102.114C114.503 99.4218 82.7046 84.5074 82.425 86.5092Z" fill="black"/>
</g>
<path opacity="0.1" d="M74.5 152C115.645 152 149 150.028 149 147.596C149 145.163 115.645 143.192 74.5 143.192C33.3548 143.192 0 145.163 0 147.596C0 150.028 33.3548 152 74.5 152Z" fill="#D8F9FF"/>
<path d="M123.207 145.821C125.131 145.821 126.691 145.512 126.691 145.13C126.691 144.748 125.131 144.438 123.207 144.438C121.283 144.438 119.723 144.748 119.723 145.13C119.723 145.512 121.283 145.821 123.207 145.821Z" fill="#D8F9FF"/>
<path d="M123.149 145.385C123.374 145.385 123.556 145.14 123.556 144.837C123.556 144.534 123.374 144.289 123.149 144.289C122.925 144.289 122.743 144.534 122.743 144.837C122.743 145.14 122.925 145.385 123.149 145.385Z" fill="#3F3D56"/>
<path d="M123.149 144.715C123.374 144.715 123.556 144.469 123.556 144.166C123.556 143.863 123.374 143.618 123.149 143.618C122.925 143.618 122.743 143.863 122.743 144.166C122.743 144.469 122.925 144.715 123.149 144.715Z" fill="#3F3D56"/>
<path d="M123.149 144.046C123.374 144.046 123.556 143.8 123.556 143.497C123.556 143.194 123.374 142.949 123.149 142.949C122.925 142.949 122.743 143.194 122.743 143.497C122.743 143.8 122.925 144.046 123.149 144.046Z" fill="#3F3D56"/>
<path d="M123.149 143.376C123.374 143.376 123.556 143.131 123.556 142.828C123.556 142.525 123.374 142.28 123.149 142.28C122.925 142.28 122.743 142.525 122.743 142.828C122.743 143.131 122.925 143.376 123.149 143.376Z" fill="#3F3D56"/>
<path d="M123.149 142.706C123.374 142.706 123.556 142.46 123.556 142.158C123.556 141.855 123.374 141.609 123.149 141.609C122.925 141.609 122.743 141.855 122.743 142.158C122.743 142.46 122.925 142.706 123.149 142.706Z" fill="#3F3D56"/>
<path d="M123.149 142.037C123.374 142.037 123.556 141.791 123.556 141.488C123.556 141.185 123.374 140.94 123.149 140.94C122.925 140.94 122.743 141.185 122.743 141.488C122.743 141.791 122.925 142.037 123.149 142.037Z" fill="#3F3D56"/>
<path d="M123.149 141.368C123.374 141.368 123.556 141.122 123.556 140.819C123.556 140.516 123.374 140.271 123.149 140.271C122.925 140.271 122.743 140.516 122.743 140.819C122.743 141.122 122.925 141.368 123.149 141.368Z" fill="#3F3D56"/>
<path d="M124.667 136.237C124.723 136.165 124.773 136.088 124.819 136.007L123.753 135.827L124.905 135.835C125.016 135.587 125.076 135.318 125.082 135.045C125.089 134.772 125.041 134.501 124.942 134.247L123.396 135.075L124.823 133.993C124.69 133.753 124.51 133.545 124.295 133.38C124.08 133.215 123.835 133.098 123.574 133.036C123.313 132.974 123.043 132.968 122.78 133.018C122.516 133.069 122.266 133.175 122.045 133.33C121.823 133.485 121.635 133.685 121.492 133.919C121.349 134.152 121.254 134.413 121.214 134.686C121.173 134.959 121.188 135.238 121.256 135.505C121.325 135.772 121.446 136.021 121.613 136.237C121.527 136.351 121.452 136.473 121.391 136.603L122.768 137.344L121.293 136.833C121.19 137.149 121.165 137.488 121.221 137.817C121.277 138.146 121.411 138.455 121.613 138.717C121.387 139.012 121.247 139.367 121.208 139.741C121.169 140.116 121.233 140.493 121.392 140.832C121.551 141.17 121.8 141.455 122.109 141.655C122.418 141.855 122.775 141.961 123.14 141.961C123.505 141.961 123.862 141.855 124.171 141.655C124.48 141.455 124.728 141.17 124.888 140.832C125.047 140.493 125.111 140.116 125.072 139.741C125.033 139.367 124.893 139.012 124.667 138.717C124.936 138.363 125.083 137.927 125.083 137.478C125.083 137.028 124.936 136.592 124.667 136.239V136.237Z" fill="#D8F9FF"/>
<path opacity="0.1" d="M121.197 137.476C121.195 137.925 121.341 138.362 121.61 138.715C121.384 139.011 121.244 139.366 121.205 139.74C121.166 140.114 121.23 140.492 121.389 140.83C121.549 141.169 121.797 141.454 122.106 141.654C122.415 141.853 122.772 141.959 123.137 141.959C123.502 141.959 123.859 141.853 124.168 141.654C124.477 141.454 124.726 141.169 124.885 140.83C125.044 140.492 125.108 140.114 125.069 139.74C125.03 139.366 124.89 139.011 124.664 138.715C124.927 138.374 121.197 137.252 121.197 137.476Z" fill="black"/>
<path d="M43.199 151.386C45.7696 151.386 47.8535 150.973 47.8535 150.463C47.8535 149.953 45.7696 149.539 43.199 149.539C40.6283 149.539 38.5444 149.953 38.5444 150.463C38.5444 150.973 40.6283 151.386 43.199 151.386Z" fill="#D8F9FF"/>
<path d="M43.1205 150.802C43.4201 150.802 43.663 150.475 43.663 150.071C43.663 149.667 43.4201 149.339 43.1205 149.339C42.8208 149.339 42.5779 149.667 42.5779 150.071C42.5779 150.475 42.8208 150.802 43.1205 150.802Z" fill="#3F3D56"/>
<path d="M43.1205 149.907C43.4201 149.907 43.663 149.58 43.663 149.176C43.663 148.772 43.4201 148.444 43.1205 148.444C42.8208 148.444 42.5779 148.772 42.5779 149.176C42.5779 149.58 42.8208 149.907 43.1205 149.907Z" fill="#3F3D56"/>
<path d="M43.1205 149.012C43.4201 149.012 43.663 148.685 43.663 148.281C43.663 147.877 43.4201 147.549 43.1205 147.549C42.8208 147.549 42.5779 147.877 42.5779 148.281C42.5779 148.685 42.8208 149.012 43.1205 149.012Z" fill="#3F3D56"/>
<path d="M43.1205 148.119C43.4201 148.119 43.663 147.791 43.663 147.387C43.663 146.983 43.4201 146.655 43.1205 146.655C42.8208 146.655 42.5779 146.983 42.5779 147.387C42.5779 147.791 42.8208 148.119 43.1205 148.119Z" fill="#3F3D56"/>
<path d="M43.1205 147.224C43.4201 147.224 43.663 146.896 43.663 146.492C43.663 146.088 43.4201 145.76 43.1205 145.76C42.8208 145.76 42.5779 146.088 42.5779 146.492C42.5779 146.896 42.8208 147.224 43.1205 147.224Z" fill="#3F3D56"/>
<path d="M43.1205 146.329C43.4201 146.329 43.663 146.001 43.663 145.597C43.663 145.193 43.4201 144.865 43.1205 144.865C42.8208 144.865 42.5779 145.193 42.5779 145.597C42.5779 146.001 42.8208 146.329 43.1205 146.329Z" fill="#3F3D56"/>
<path d="M43.1205 145.435C43.4201 145.435 43.663 145.107 43.663 144.703C43.663 144.299 43.4201 143.972 43.1205 143.972C42.8208 143.972 42.5779 144.299 42.5779 144.703C42.5779 145.107 42.8208 145.435 43.1205 145.435Z" fill="#3F3D56"/>
<path d="M45.1503 138.582C45.2237 138.484 45.2909 138.382 45.3514 138.275L43.9288 138.033L45.4684 138.046C45.6166 137.715 45.6974 137.355 45.7059 136.99C45.7144 136.625 45.6505 136.262 45.518 135.924L43.4524 137.029L45.3569 135.591C45.1776 135.274 44.9372 134.999 44.6505 134.782C44.3638 134.565 44.037 134.411 43.6903 134.33C43.3436 134.249 42.9844 134.242 42.635 134.31C42.2856 134.378 41.9534 134.519 41.6591 134.724C41.3648 134.93 41.1146 135.196 40.924 135.506C40.7333 135.815 40.6064 136.162 40.5511 136.524C40.4957 136.887 40.5131 137.257 40.6021 137.612C40.6912 137.967 40.8499 138.3 41.0687 138.589C40.9536 138.741 40.8543 138.904 40.7726 139.078L42.622 140.072L40.65 139.39C40.5113 139.812 40.4764 140.262 40.5485 140.701C40.6206 141.14 40.7975 141.554 41.0631 141.905C40.7622 142.3 40.575 142.774 40.523 143.274C40.471 143.773 40.5564 144.278 40.7692 144.73C40.9821 145.182 41.3139 145.563 41.7268 145.83C42.1397 146.096 42.6169 146.238 43.104 146.238C43.591 146.238 44.0683 146.096 44.4811 145.83C44.894 145.563 45.2258 145.182 45.4387 144.73C45.6516 144.278 45.7369 143.773 45.6849 143.274C45.633 142.774 45.4458 142.3 45.1448 141.905C45.5043 141.432 45.6997 140.849 45.6997 140.249C45.6997 139.648 45.5043 139.065 45.1448 138.593L45.1503 138.582Z" fill="#D8F9FF"/>
<path opacity="0.1" d="M40.5137 140.237C40.5119 140.837 40.7059 141.421 41.0645 141.893C40.7635 142.288 40.5763 142.763 40.5243 143.262C40.4724 143.762 40.5577 144.267 40.7706 144.719C40.9834 145.171 41.3153 145.552 41.7281 145.818C42.141 146.085 42.6183 146.226 43.1053 146.226C43.5924 146.226 44.0696 146.085 44.4825 145.818C44.8954 145.552 45.2272 145.171 45.4401 144.719C45.6529 144.267 45.7383 143.762 45.6863 143.262C45.6343 142.763 45.4471 142.288 45.1462 141.893C45.4973 141.437 40.5137 139.937 40.5137 140.237Z" fill="black"/>
<path d="M67.7054 109.795C67.3543 107.9 66.9618 106.001 66.8971 104.073C66.8585 102.936 66.9357 101.78 66.7938 100.646C66.7236 100.089 66.601 99.5424 66.4798 98.9954L65.9924 96.8061C66.0476 96.3865 66.0318 95.9601 65.9455 95.546C65.8967 95.3276 65.8318 95.1134 65.7514 94.9052C66.2064 94.2445 66.5815 93.5289 66.8682 92.7742C66.9976 92.4332 67.1092 92.071 67.0582 91.7101C66.9591 91.0182 66.3091 90.5622 65.7046 90.2212C65.3383 90.0152 64.9527 89.8163 64.534 89.7837C64.2413 89.7715 63.9498 89.8293 63.6822 89.9525C63.4147 90.0757 63.1784 90.261 62.9917 90.494C62.89 89.9339 62.924 89.3566 63.0909 88.8133C62.7314 88.6471 62.3693 88.4908 62.0043 88.3388C61.9516 87.8478 61.9332 87.3536 61.9493 86.8599C61.9575 86.2675 61.9672 85.6693 62.0002 85.0755C62.9795 84.7068 63.8261 84.0378 64.4262 83.1584C65.0263 82.2789 65.3513 81.2311 65.3575 80.1556C65.3575 80.0946 65.3575 80.0349 65.3575 79.9752C65.6244 79.4802 65.7933 78.9355 65.8543 78.3725C65.9153 77.8096 65.8672 77.2398 65.7128 76.6963C65.3093 75.2756 64.2545 74.1049 62.9834 73.3818C61.7124 72.6587 60.2389 72.3532 58.7806 72.2992C58.2912 72.2697 57.8001 72.3016 57.3181 72.3944C56.8023 72.5254 56.3025 72.716 55.8281 72.9627C55.0997 73.3093 54.3657 73.6887 53.8204 74.2868C52.8743 75.3281 52.6622 76.8582 52.7655 78.2647C52.9032 80.1116 53.5009 81.8988 54.1922 83.6179C54.4221 84.1861 54.6673 84.7629 55.046 85.2474C55.3393 85.621 55.8488 85.6438 56.2537 85.3824C56.2215 85.8362 56.2114 86.2914 56.2234 86.7462C55.4756 86.7192 54.7471 86.8457 54.1467 87.2804C53.8713 87.4836 53.6097 87.8032 53.6703 88.147C53.8542 88.1521 54.0305 88.224 54.168 88.35C54.3056 88.4761 54.3956 88.6482 54.4221 88.8361C54.4524 89.1387 54.3051 89.4271 54.1619 89.6885C54.0999 89.805 54.0379 89.9229 53.9746 90.0394C53.3824 90.6929 52.7752 91.5112 52.7214 92.3224C52.6248 92.3319 52.5288 92.3466 52.4336 92.3665C51.8966 92.4688 51.3623 92.6577 50.8348 92.7998L47.0176 93.8369L46.0743 94.1068L44.5595 94.5188C43.5955 94.7802 42.6137 95.0487 41.7585 95.5744C40.9034 96.1 40.1776 96.9255 40.0055 97.9199C39.9201 98.4143 39.9724 98.9286 39.8678 99.4188C39.8678 99.4415 39.8595 99.4628 39.854 99.4841C39.7665 99.7944 39.6489 100.095 39.5029 100.381C38.6477 102.24 38.039 104.268 38.1533 106.315C38.2236 107.572 38.5664 108.798 38.8997 110.009C39.2495 111.246 39.5947 112.484 39.9353 113.722C40.1599 114.608 40.4447 115.477 40.7877 116.322C41.3752 117.676 42.2468 118.878 43.3394 119.841C43.646 120.125 43.9889 120.364 44.3584 120.552C44.9219 120.803 45.5371 120.906 46.1486 120.851C46.3139 120.84 46.4764 120.821 46.6375 120.794C47.8204 120.601 48.9235 120.013 49.9356 119.351C50.3588 119.074 50.772 118.783 51.175 118.477C51.2262 118.955 51.3183 119.426 51.4504 119.887C51.5399 120.203 51.6501 120.529 51.6143 120.857C51.5647 121.314 51.2425 121.69 51.0758 122.119C50.7219 123.025 51.0855 124.035 51.1447 125.007C51.2012 125.917 50.9863 126.821 50.8142 127.717C50.5267 129.213 50.3568 130.729 50.3061 132.252C50.3045 132.829 50.2677 133.405 50.1959 133.977C50.0678 134.784 49.7676 135.563 49.7153 136.378C49.6354 137.648 50.167 138.891 50.1188 140.163C50.0623 141.656 49.2126 143.106 49.5087 144.567C49.5459 144.75 49.6464 144.962 49.8089 145.009L49.7291 145.084C49.4853 145.317 49.2485 145.747 49.5252 145.936C49.5889 145.975 49.6597 146.001 49.7332 146.01C50.1615 146.103 50.5925 146.186 51.0235 146.265C51.014 146.675 51.0642 147.085 51.1722 147.481C51.2507 147.539 51.3306 147.592 51.4105 147.641C51.3499 147.809 51.354 147.971 51.4972 148.067C51.5609 148.107 51.6317 148.132 51.7052 148.141C55.2524 148.896 58.8752 149.206 62.4946 149.065C63.1418 149.039 63.818 148.991 64.3702 148.65C64.9224 148.309 65.2956 147.583 65.0325 146.985C64.7998 146.456 64.1911 146.228 63.6444 146.051L63.0027 145.847C63.0849 145.697 63.1329 145.529 63.1429 145.357C63.1529 145.184 63.1248 145.012 63.0606 144.852C62.8278 144.324 62.2192 144.095 61.6725 143.919L60.1949 143.446C60.0004 143.398 59.8175 143.31 59.6578 143.186C59.552 143.077 59.4544 142.961 59.3659 142.836C59.1526 142.585 58.8725 142.404 58.5603 142.315C58.5436 141.992 58.5506 141.668 58.5809 141.346L58.994 136.202C59.0863 135.037 59.1772 133.849 58.9142 132.711C58.8081 132.249 58.6388 131.776 58.742 131.313C58.9032 130.557 59.6743 130.137 60.2004 129.576C60.9936 128.723 61.2401 127.511 61.4218 126.358C62.1746 121.597 62.411 116.765 62.1269 111.951C63.78 111.47 65.4814 111.188 67.1973 111.11C67.4892 111.097 67.6325 110.955 67.7233 110.673C67.8142 110.392 67.7592 110.087 67.7054 109.795ZM59.4636 110.047C59.4733 109.997 59.4843 109.948 59.4925 109.898L59.6068 110.048L59.4636 110.047Z" fill="url(#paint0_linear_38_766)"/>
<path d="M56.7784 83.9703C56.7426 84.4647 56.5732 84.9392 56.5113 85.4321C56.441 85.9749 56.503 86.5275 56.4686 87.0745C56.4341 87.6214 56.2813 88.1968 55.8778 88.5534C58.2229 88.7629 60.5328 89.2785 62.7522 90.0877C62.0816 89.2353 62.0636 88.0448 62.0802 86.9509C62.1022 85.3327 62.1298 83.6833 62.642 82.156C61.1142 81.8037 59.532 81.7824 57.9958 82.0935C57.6625 82.1617 56.6531 82.1191 56.503 82.4402C56.3942 82.676 56.8032 83.6122 56.7784 83.9703Z" fill="#A1616A"/>
<path opacity="0.1" d="M56.7784 83.9703C56.7426 84.4647 56.5732 84.9392 56.5113 85.4321C56.441 85.9749 56.503 86.5275 56.4686 87.0745C56.4341 87.6214 56.2813 88.1968 55.8778 88.5534C58.2229 88.7629 60.5328 89.2785 62.7522 90.0877C62.0816 89.2353 62.0636 88.0448 62.0802 86.9509C62.1022 85.3327 62.1298 83.6833 62.642 82.156C61.1142 81.8037 59.532 81.7824 57.9958 82.0935C57.6625 82.1617 56.6531 82.1191 56.503 82.4402C56.3942 82.676 56.8032 83.6122 56.7784 83.9703Z" fill="black"/>
<path d="M59.5546 142.844C59.6373 142.97 59.7294 143.089 59.83 143.2C59.985 143.324 60.1639 143.413 60.3546 143.46L61.7978 143.933C62.3335 144.11 62.9284 144.337 63.1556 144.865C63.4118 145.462 63.0468 146.188 62.507 146.528C61.9672 146.867 61.3062 146.917 60.6741 146.942C57.1351 147.083 53.5927 146.773 50.1271 146.02C50.0556 146.01 49.9868 145.985 49.9246 145.946C49.6492 145.755 49.8847 145.326 50.1229 145.094C51.0525 144.185 52.0632 143.232 53.3288 143.021C53.9939 142.909 54.6618 142.954 55.3228 142.791C55.7979 142.673 56.2468 142.47 56.7205 142.349C57.6032 142.126 58.9239 142.047 59.5546 142.844Z" fill="#46455B"/>
<path opacity="0.1" d="M59.5546 142.844C59.6373 142.97 59.7294 143.089 59.83 143.2C59.985 143.324 60.1639 143.413 60.3546 143.46L61.7978 143.933C62.3335 144.11 62.9284 144.337 63.1556 144.865C63.4118 145.462 63.0468 146.188 62.507 146.528C61.9672 146.867 61.3062 146.917 60.6741 146.942C57.1351 147.083 53.5927 146.773 50.1271 146.02C50.0556 146.01 49.9868 145.985 49.9246 145.946C49.6492 145.755 49.8847 145.326 50.1229 145.094C51.0525 144.185 52.0632 143.232 53.3288 143.021C53.9939 142.909 54.6618 142.954 55.3228 142.791C55.7979 142.673 56.2468 142.47 56.7205 142.349C57.6032 142.126 58.9239 142.047 59.5546 142.844Z" fill="black"/>
<path d="M52.3084 110.711C51.5963 112.649 51.5525 114.782 52.1845 116.75C51.7039 116.696 51.4959 117.366 51.5083 117.867C51.5254 118.563 51.6277 119.254 51.8127 119.924C51.9008 120.242 52.0082 120.566 51.9738 120.893C51.9242 121.35 51.6102 121.725 51.4464 122.153C51.1021 123.058 51.456 124.066 51.5152 125.037C51.5703 125.947 51.3596 126.85 51.1902 127.745C50.9096 129.238 50.7439 130.752 50.6945 132.272C50.6935 132.849 50.6572 133.424 50.5857 133.996C50.4618 134.803 50.1726 135.58 50.1175 136.394C50.039 137.661 50.5581 138.904 50.5113 140.174C50.4562 141.665 49.6245 143.114 49.9151 144.578C49.9564 144.784 50.0679 145.027 50.2731 145.03C52.3497 145.057 54.29 144.462 56.3446 144.773C56.554 139.869 56.7578 134.942 57.6942 130.127C58.5204 125.841 59.9209 121.603 59.7901 117.233C59.7144 114.734 59.1387 112.283 58.789 109.808C56.5935 109.305 54.2962 109.625 52.3084 110.711V110.711Z" fill="#BBBDC8"/>
<path opacity="0.1" d="M52.3084 110.711C51.5963 112.649 51.5525 114.782 52.1845 116.75C51.7039 116.696 51.4959 117.366 51.5083 117.867C51.5254 118.563 51.6277 119.254 51.8127 119.924C51.9008 120.242 52.0082 120.566 51.9738 120.893C51.9242 121.35 51.6102 121.725 51.4464 122.153C51.1021 123.058 51.456 124.066 51.5152 125.037C51.5703 125.947 51.3596 126.85 51.1902 127.745C50.9096 129.238 50.7439 130.752 50.6945 132.272C50.6935 132.849 50.6572 133.424 50.5857 133.996C50.4618 134.803 50.1726 135.58 50.1175 136.394C50.039 137.661 50.5581 138.904 50.5113 140.174C50.4562 141.665 49.6245 143.114 49.9151 144.578C49.9564 144.784 50.0679 145.027 50.2731 145.03C52.3497 145.057 54.29 144.462 56.3446 144.773C56.554 139.869 56.7578 134.942 57.6942 130.127C58.5204 125.841 59.9209 121.603 59.7901 117.233C59.7144 114.734 59.1387 112.283 58.789 109.808C56.5935 109.305 54.2962 109.625 52.3084 110.711V110.711Z" fill="black"/>
<path d="M61.4824 144.975C61.5652 145.101 61.6572 145.22 61.7578 145.331C61.9129 145.455 62.0917 145.544 62.2825 145.591L63.7257 146.064C64.2614 146.241 64.8563 146.468 65.0835 146.996C65.3396 147.593 64.9747 148.319 64.4349 148.659C63.8951 148.998 63.2341 149.048 62.602 149.073C59.0629 149.214 55.5206 148.904 52.0549 148.151C51.9834 148.141 51.9146 148.116 51.8525 148.078C51.5771 147.886 51.8126 147.457 52.0508 147.225C52.9803 146.316 53.9911 145.363 55.2566 145.152C55.9218 145.04 56.5896 145.086 57.2506 144.922C57.7257 144.804 58.1747 144.601 58.6484 144.48C59.5311 144.257 60.8517 144.178 61.4824 144.975Z" fill="#46455B"/>
<path d="M53.0245 110.851C52.4929 111.561 52.3359 112.499 52.4075 113.388C52.4792 114.278 52.7697 115.132 53.0548 115.974C52.6761 116.333 52.7546 116.953 52.8041 117.481C52.9845 119.445 52.3235 121.404 52.4199 123.373C52.4599 124.201 52.6348 125.018 52.6761 125.846C52.7215 126.751 52.61 127.656 52.5053 128.556C51.8368 134.313 51.469 140.103 51.4036 145.901C51.4036 146.435 51.3954 146.978 51.5414 147.489C52.5425 148.249 53.7998 148.352 55.0116 148.067C56.2234 147.783 57.3292 147.15 58.4157 146.525C59.011 146.207 59.5754 145.831 60.1013 145.402C60.2622 145.285 60.3812 145.116 60.44 144.922C60.5557 144.354 59.7901 144.097 59.3508 143.729C58.7118 143.193 58.7214 142.201 58.7875 141.355L59.1869 136.217C59.2778 135.054 59.3659 133.868 59.1098 132.731C59.0051 132.271 58.844 131.798 58.9404 131.335C59.0974 130.582 59.852 130.161 60.3657 129.6C61.1424 128.747 61.382 127.538 61.561 126.388C62.4047 120.928 62.5842 115.382 62.0953 109.876C61.0831 110.239 59.8837 110.041 58.8165 110.127C57.7492 110.212 56.6889 110.58 55.6079 110.61C54.7073 110.631 53.5781 110.118 53.0245 110.851Z" fill="#BBBDC8"/>
<path d="M60.316 85.5116C63.13 85.5116 65.4112 83.1582 65.4112 80.2551C65.4112 77.352 63.13 74.9985 60.316 74.9985C57.502 74.9985 55.2208 77.352 55.2208 80.2551C55.2208 83.1582 57.502 85.5116 60.316 85.5116Z" fill="#A1616A"/>
<path d="M63.1956 88.9015C61.5629 88.1279 59.8604 87.5216 58.1128 87.0916C56.8817 86.789 55.4757 86.6071 54.447 87.3672C54.1716 87.5703 53.9223 87.89 53.9815 88.2338C54.163 88.24 54.3365 88.3125 54.471 88.4385C54.6054 88.5644 54.6921 88.7356 54.7155 88.9214C54.7458 89.2226 54.6026 89.511 54.4621 89.7738L53.2737 92.0469C53.046 92.4564 52.8503 92.884 52.6884 93.3255C52.4488 94.0473 52.3965 94.8201 52.3456 95.5816L52.2078 97.6444C52.1225 98.9444 52.0357 100.25 52.15 101.547C52.2354 102.526 52.4337 103.509 52.2987 104.482C52.1899 105.265 51.8691 106 51.6887 106.77C51.3499 108.219 51.5042 109.807 50.8473 111.137C51.1141 111.01 51.4152 110.982 51.6997 111.057C53.6937 111.436 55.2622 113.06 57.1984 113.681C57.6872 112.945 58.3496 112.403 58.8963 111.718C59.3029 111.204 59.5721 110.59 59.6771 109.936C60.0902 110.505 60.4414 110.948 60.6879 111.607C60.7318 111.76 60.8069 111.902 60.9082 112.023C61.1685 112.285 61.5968 112.184 61.9452 112.074C63.6532 111.543 65.4191 111.234 67.2015 111.155C67.4879 111.142 67.627 111 67.7165 110.719C67.806 110.438 67.7565 110.134 67.7027 109.844C67.3599 107.95 66.977 106.054 66.9137 104.128C66.8751 102.992 66.9509 101.84 66.8118 100.706C66.7429 100.151 66.6231 99.6036 66.5047 99.058L65.5214 94.5502C65.4664 94.2987 65.2047 94.1339 65.0932 93.9023C64.6415 92.959 63.7781 92.2771 63.3319 91.3309C62.9949 90.5669 62.9463 89.7006 63.1956 88.9015V88.9015Z" fill="#46455B"/>
<path d="M56.0471 82.3592C56.0412 82.2856 56.058 82.2119 56.0953 82.1489C56.1498 82.0899 56.2181 82.0464 56.2936 82.0225C56.4989 81.9219 56.6669 81.755 56.772 81.5471C56.8771 81.3392 56.9137 81.1016 56.8761 80.8703L57.3581 80.7666L57.3733 79.0348C58.0893 78.6256 59.0657 78.9353 59.7391 78.4537C60.1178 78.1809 60.3119 77.7178 60.5433 77.3058C60.7746 76.8938 61.1189 76.4789 61.5789 76.4448C61.4207 76.8599 61.3529 77.3058 61.3803 77.7509C61.4076 78.196 61.5295 78.6294 61.7372 79.0206C62.2194 78.7688 62.6221 78.3804 62.8981 77.901L63.1377 79.3217C63.1425 79.4093 63.1789 79.4919 63.2396 79.5533C63.3649 79.6485 63.5343 79.5292 63.6445 79.4112L64.2683 78.779C64.5308 79.4586 64.7108 80.1692 64.804 80.8944C65.8285 79.8687 66.1466 78.2207 65.7528 76.8057C65.3589 75.3907 64.3275 74.2186 63.0854 73.4955C61.8433 72.7724 60.4028 72.4683 58.9776 72.4143C58.4991 72.3855 58.019 72.4174 57.5481 72.5095C57.043 72.6406 56.5541 72.8313 56.0912 73.0778C55.3792 73.423 54.6604 73.8024 54.1289 74.399C53.2035 75.439 52.9955 76.9677 53.0974 78.377C53.2351 80.2239 53.8163 82.0068 54.4924 83.723C54.7169 84.2913 54.9565 84.8667 55.3269 85.3511C55.8846 86.08 57.2548 85.4747 57.0799 84.0342C56.9588 83.0056 56.0471 83.402 56.0471 82.3592Z" fill="#3F3D56"/>
<path d="M57.9751 110.502C56.2565 114.124 53.6175 117.198 50.3392 119.395C49.349 120.056 48.2735 120.644 47.1154 120.837C46.957 120.864 46.7987 120.883 46.6376 120.894C46.0403 120.945 45.4403 120.84 44.8928 120.589C44.5304 120.4 44.1948 120.161 43.8958 119.878C42.8242 118.911 41.9726 117.711 41.4019 116.365C41.0664 115.52 40.7881 114.652 40.5688 113.768C40.2309 112.531 39.894 111.293 39.558 110.056C39.2289 108.845 38.897 107.621 38.8281 106.362C38.7166 104.317 39.3115 102.293 40.1474 100.436C40.29 100.15 40.4048 99.8503 40.4903 99.5411C40.4903 99.5198 40.4999 99.4985 40.5041 99.4757C40.6032 98.9856 40.5523 98.4727 40.6418 97.9783C40.8098 96.9838 41.5203 96.1598 42.3548 95.6356C43.1894 95.1114 44.145 94.8429 45.0939 94.5815L46.5715 94.1709L47.4886 93.9166L51.2191 92.8809C51.7355 92.7388 52.2574 92.5499 52.7821 92.4547C53.3674 92.341 53.3632 92.4007 53.4087 92.9917C53.4927 94.0629 53.4651 95.1156 53.6841 96.1769C53.892 97.1898 54.2583 98.1659 54.5337 99.1603C55.2292 101.671 55.3448 104.313 55.8929 106.863C56.0182 107.444 56.1917 108.064 56.6448 108.426C57.164 108.852 58.0384 108.957 58.1761 109.625C58.2271 109.922 58.099 110.226 57.9751 110.502Z" fill="#D8F9FF"/>
<path opacity="0.1" d="M47.1154 120.831C46.957 120.858 46.7987 120.877 46.6376 120.888C46.0408 120.941 45.4408 120.838 44.8928 120.588C44.5304 120.4 44.1948 120.161 43.8958 119.878C42.8242 118.91 41.9726 117.711 41.4019 116.365C41.0664 115.52 40.7881 114.652 40.5688 113.768C40.2309 112.531 39.894 111.293 39.558 110.055C39.2289 108.845 38.897 107.62 38.8281 106.362C38.7166 104.317 39.3115 102.293 40.1474 100.436C40.29 100.15 40.4048 99.8502 40.4903 99.5409C40.4903 99.5196 40.4999 99.4983 40.5041 99.4756C42.7514 99.8833 45.4478 104.319 46.8386 110.131C47.8632 114.477 47.9072 118.479 47.1154 120.831Z" fill="black"/>
<path opacity="0.1" d="M51.1778 105.539L50.8019 105.606C50.4149 104.558 50.0294 103.508 49.5763 102.488C49.3408 101.955 49.0861 101.429 48.8878 100.879C48.1441 98.7683 48.2708 96.2636 46.8924 94.5247C46.794 94.3955 46.6817 94.2783 46.5577 94.1752L47.4749 93.9209C48.278 95.2309 48.8444 96.6802 49.1467 98.1986C49.2954 98.9402 49.3794 99.6988 49.6217 100.412C49.8279 100.953 50.0638 101.481 50.3282 101.995C50.8515 103.101 51.2453 104.31 51.1778 105.539Z" fill="black"/>
<path d="M54.8381 89.5322C55.8282 88.657 57.1791 88.1768 58.4612 88.3956C59.2158 88.522 59.9168 88.873 60.5929 89.248C61.9108 89.9697 63.2094 90.8008 64.1595 91.9871C64.7293 92.7353 65.2024 93.5567 65.5669 94.4307C65.7457 94.8126 65.8842 95.2131 65.98 95.6255C66.3161 97.2309 65.4912 98.8263 64.6966 100.25L63.1681 102.986C62.4657 104.243 61.7579 105.509 60.8435 106.613C60.4222 107.122 59.9595 107.592 59.4981 108.062L57.4725 110.125C57.436 110.169 57.3883 110.202 57.3347 110.22C57.2905 110.223 57.2463 110.215 57.2052 110.198C57.164 110.181 57.127 110.155 57.0965 110.122L56.4272 109.572C57.0437 109.133 57.6166 108.632 58.1376 108.076C59.0134 107.142 59.7336 106.066 60.4497 104.995L62.6778 101.662C63.3292 100.686 64.0094 99.612 63.9365 98.4299C63.902 97.8617 63.6955 97.3275 63.4793 96.8061C63.0964 95.8789 62.6806 94.9663 62.2316 94.0684C61.7276 93.0612 61.1768 92.0667 60.4511 91.2157C59.7254 90.3647 58.8082 89.6529 57.752 89.3446C57.437 89.2385 57.1031 89.2055 56.7743 89.248C56.0499 89.3716 55.5349 90.0138 55.0763 90.6105L53.68 92.4574C53.3619 92.8765 53.0699 93.3623 53.0506 92.5668C53.0176 91.4316 54.1303 90.2624 54.8381 89.5322Z" fill="#D8F9FF"/>
<path d="M55.2705 101.992C55.5459 103.086 55.9522 104.327 56.9726 104.742C57.6956 105.036 58.5425 104.798 59.1677 104.316C59.7928 103.834 60.2363 103.155 60.6439 102.469C60.9889 101.852 61.3692 101.258 61.7827 100.688C62.5993 99.6305 63.7106 98.7923 64.2615 97.562C64.424 97.1955 64.5369 96.8033 64.7214 96.451C64.9186 96.1262 65.1415 95.8187 65.3879 95.5318C66.022 94.7214 66.5289 93.8135 66.8903 92.841C67.017 92.5015 67.1258 92.1378 67.0762 91.7784C66.9785 91.0865 66.3436 90.6319 65.7528 90.2923C65.3934 90.0863 65.0175 89.886 64.6085 89.8548C64.0108 89.8064 63.4228 90.1389 63.0552 90.6262C62.7012 91.1302 62.5034 91.733 62.4878 92.3552C62.4465 93.1124 62.5897 93.8995 62.3501 94.6155C62.2234 94.9495 62.0483 95.2618 61.8309 95.5418C61.0574 96.6094 60.1 97.5211 59.0065 98.2311C58.9766 97.6938 58.8636 97.1648 58.6719 96.6641C58.5672 96.3885 56.5154 96.6641 56.2482 96.7096C55.7194 96.7891 54.6949 96.8517 54.3616 97.3716C54.0284 97.8916 54.4415 98.7653 54.5765 99.2896L55.2705 101.992Z" fill="#A1616A"/>
<path d="M55.2209 90.0536C54.9161 90.3134 54.6324 90.5985 54.3726 90.906C53.7612 91.6661 53.4624 92.6549 53.3853 93.6394C53.3082 94.624 53.439 95.6128 53.6028 96.5859C53.7516 97.4592 53.9274 98.3263 54.1303 99.1872C54.1867 98.538 54.6962 98.001 55.287 97.7665C55.8778 97.5321 56.5264 97.5577 57.1557 97.6529C57.9657 97.7767 58.7559 98.0122 59.505 98.3533L59.7956 94.1523C59.8567 93.5856 59.8535 93.0134 59.7859 92.4475C59.6944 91.9223 59.4955 91.4233 59.2025 90.9836C58.9095 90.5439 58.5291 90.1736 58.0866 89.8973C56.9822 89.204 56.2124 89.16 55.2209 90.0536Z" fill="#46455B"/>
<path d="M107.244 110.496C107.114 109.356 106.792 108.248 106.294 107.221C105.99 106.596 105.619 105.998 105.428 105.329C105.272 104.785 105.242 104.212 105.118 103.66C104.994 103.107 104.775 102.578 104.599 102.039C103.353 98.2027 104.289 94.006 103.887 89.9854C103.737 88.5022 103.296 86.8755 102.05 86.1027C101.309 85.6438 100.419 85.5727 99.5478 85.5344L99.1498 85.5159L98.5108 85.4832C97.5854 85.4364 96.6573 85.4008 95.7567 85.6012C94.655 85.8498 93.3495 86.6496 93.0025 87.8103C92.8125 87.7095 92.621 87.62 92.4448 87.5361C91.7354 87.2115 90.9918 86.9731 90.2291 86.8258C90.8834 86.6558 91.5151 86.4038 92.1101 86.0757C93.4872 85.2488 93.8067 82.8336 94.0876 81.2183C94.3686 79.603 94.1124 77.9337 93.6456 76.3638C93.4914 75.8068 93.2814 75.2678 93.019 74.7556C92.6565 74.081 92.1631 73.4907 91.5696 73.0217C90.976 72.5526 90.2951 72.2149 89.5693 72.0296C88.8435 71.8442 88.0885 71.8153 87.3514 71.9446C86.6143 72.0738 85.911 72.3585 85.2853 72.7808C84.0005 73.6489 82.8066 74.9119 81.8261 76.1323C81.6884 76.2999 81.1128 76.8937 81.3042 77.1438C81.4116 77.2859 81.7655 77.1722 82.1373 77.0017C81.8513 77.6684 81.704 78.3895 81.7049 79.1185C81.7058 80.0342 81.9377 80.9339 82.3778 81.7291C82.818 82.5242 83.4513 83.1874 84.2153 83.6534L84.3531 84.9604V84.9704C84.3682 85.4065 84.3751 85.8427 84.3806 86.2774C84.3806 86.5829 84.3806 86.8954 84.3723 87.208C83.8009 87.875 83.1012 88.412 82.3177 88.7849C82.965 88.8957 83.5819 88.7395 84.1823 88.4724C84.0847 88.8213 83.9209 89.1468 83.7003 89.4299C83.8656 89.3702 84.0308 89.3163 84.1961 89.2594C84.1097 89.4026 84.0329 89.5516 83.9661 89.7055C83.8642 89.9488 83.7898 90.2033 83.7444 90.4642C83.3937 90.9928 83.09 91.5529 82.8369 92.1377V92.1377C82.7212 92.4034 82.6179 92.6733 82.5243 92.9475V92.966C82.4325 93.2388 82.3512 93.5153 82.2806 93.7957C82.2475 93.9302 82.2172 94.0652 82.1897 94.2006C82.1897 94.2105 82.1897 94.2205 82.1897 94.2304C82.1346 94.5046 82.0891 94.7802 82.052 95.0587C82.052 95.0772 82.052 95.0956 82.052 95.1155C82.0368 95.2448 82.023 95.3755 82.0134 95.5062C82.0134 95.5062 82.0134 95.519 82.0134 95.5261C82.0024 95.6682 81.9941 95.8031 81.99 95.9424C81.99 95.9608 81.99 95.9779 81.99 95.9963C81.99 96.1143 81.99 96.2336 81.99 96.3515V96.4325C81.99 96.6996 82.0065 96.9681 82.0313 97.2366C82.0313 97.2693 82.0313 97.3034 82.0409 97.3361C82.052 97.4454 82.0643 97.5548 82.0795 97.6656C82.0795 97.6912 82.0795 97.7168 82.0891 97.7409C82.107 97.8731 82.1277 98.0038 82.1511 98.1345C82.1511 98.1629 82.1635 98.1927 82.169 98.2211C82.1883 98.3263 82.2089 98.43 82.2324 98.5351L82.2571 98.6431C82.2874 98.7738 82.3191 98.9031 82.3549 99.0338C82.3756 99.1076 82.3962 99.1758 82.4183 99.254C82.484 99.5233 82.53 99.7973 82.556 100.074L81.8027 100.099C80.1906 100.147 78.5799 100.222 76.9705 100.325C76.7695 99.5253 76.0837 99.0636 75.2203 98.9542C75.0832 98.9372 74.9452 98.9286 74.8071 98.9286V98.9286C74.9561 98.7992 75.0884 98.6507 75.201 98.4868C75.3508 98.2742 75.4576 98.0326 75.515 97.7765C75.293 97.9068 75.0991 98.0822 74.9448 98.2922C74.8939 98.3632 74.8485 98.4342 74.8071 98.4996V98.0734C74.8073 98.0644 74.8057 98.0554 74.8025 98.0471C74.7992 98.0387 74.7944 98.0311 74.7882 98.0247C74.782 98.0184 74.7747 98.0133 74.7666 98.01C74.7585 98.0066 74.7498 98.005 74.741 98.0052H74.6033C74.5946 98.005 74.5859 98.0066 74.5778 98.01C74.5697 98.0133 74.5624 98.0184 74.5562 98.0247C74.55 98.0311 74.5451 98.0387 74.5419 98.0471C74.5386 98.0554 74.5371 98.0644 74.5372 98.0734V98.9414H74.5097H74.4629C74.372 98.95 74.2839 98.9613 74.1971 98.9784C73.2593 99.1588 72.5721 99.7796 72.5721 100.825C72.5724 101.155 72.642 101.48 72.7761 101.779C72.9102 102.077 73.1056 102.342 73.3488 102.556C73.3892 102.881 73.4607 103.202 73.5623 103.513C73.6573 103.821 73.7812 104.157 74.0594 104.31C74.2294 104.39 74.4157 104.425 74.602 104.413C76.1333 104.413 77.582 103.684 79.1064 103.56C80.0483 103.482 80.9944 103.633 81.939 103.603C82.0767 103.603 82.2145 103.589 82.3522 103.577C81.0605 110.176 79.4975 116.859 80.3141 123.525C80.3678 123.968 80.4518 124.448 80.7727 124.75C81.1982 125.15 81.8537 125.085 82.4251 125.034C83.9934 124.886 85.5746 125.016 87.1003 125.419C87.3149 125.48 87.5404 125.488 87.7586 125.443C87.8052 125.432 87.8512 125.418 87.8963 125.402L87.9348 125.386C87.9638 125.375 87.9913 125.363 88.0175 125.351L88.0574 125.329L88.1249 125.287C88.1359 125.278 88.1483 125.271 88.1579 125.263C88.1819 125.246 88.2044 125.227 88.2254 125.206L88.2447 125.189C88.2705 125.163 88.2948 125.135 88.3177 125.106L88.3342 125.081C88.3501 125.059 88.3649 125.037 88.3783 125.014C88.3852 125.003 88.392 124.991 88.3975 124.98C88.403 124.968 88.4196 124.937 88.4292 124.916C88.4389 124.895 88.4402 124.89 88.4444 124.878C88.4485 124.865 88.4623 124.831 88.4705 124.807C88.4788 124.782 88.4705 124.784 88.4815 124.771C88.4926 124.758 88.5008 124.7 88.5077 124.664V124.642C88.5077 124.612 88.5187 124.581 88.5229 124.551C88.527 124.521 88.5229 124.52 88.5229 124.504C88.5229 124.488 88.5229 124.457 88.5229 124.434V124.383C88.5229 124.36 88.5229 124.338 88.5229 124.315V124.189C88.5229 124.174 88.5229 124.159 88.5229 124.143C88.5229 124.017 88.5091 123.889 88.4967 123.767C88.5951 123.796 88.6954 123.818 88.7969 123.833V123.833C88.8916 123.849 88.9874 123.856 89.0833 123.855H89.0971C89.1425 123.855 89.188 123.855 89.2348 123.843C89.2747 123.837 89.3142 123.828 89.3532 123.818H89.3711C89.4072 123.807 89.4422 123.792 89.4758 123.775L89.4923 123.765C89.521 123.749 89.5482 123.73 89.5736 123.708L89.586 123.698C89.6118 123.674 89.6349 123.646 89.6548 123.616L89.6672 123.595C89.6876 123.56 89.7038 123.524 89.7154 123.485C89.7939 123.211 89.6149 122.901 89.9013 122.65C90.1767 123.561 90.4521 124.473 90.4976 125.415C90.5127 125.758 90.4976 126.125 90.6931 126.409C90.8204 126.564 90.9585 126.709 91.1063 126.844C91.5276 127.314 91.5373 128.023 91.5084 128.659C91.496 128.917 91.4822 129.174 91.4643 129.431C91.2368 132.862 90.5605 136.246 89.4538 139.491C89.3459 139.836 89.2047 140.169 89.0324 140.485C88.7529 140.933 88.4034 141.329 87.9982 141.659C87.424 142.162 86.809 142.613 86.1598 143.007C85.8282 143.188 85.5149 143.402 85.2248 143.648C85.2137 143.615 85.2013 143.584 85.1931 143.55C85.1779 143.484 85.1573 143.408 85.0953 143.383C85.0483 143.372 84.999 143.381 84.9576 143.406C84.3117 143.699 83.6659 143.991 83.0448 144.334C82.7313 144.481 82.4551 144.702 82.2379 144.977C82.0396 145.262 81.9804 145.688 82.1855 145.972C82.3659 146.221 82.6895 146.303 82.9884 146.358C83.3712 146.428 83.7554 146.478 84.1396 146.515C83.9422 146.634 83.7695 146.792 83.6315 146.981C83.4332 147.265 83.374 147.691 83.5791 147.975C83.7595 148.224 84.0832 148.306 84.382 148.362C86.8235 148.806 89.3271 148.504 91.8058 148.428C92.6114 148.401 93.4349 148.396 94.1978 148.126C94.3483 148.08 94.4886 148.004 94.6109 147.903C94.9579 147.587 94.9235 147.033 94.8629 146.563L94.6109 144.642C94.5737 144.642 94.5379 144.655 94.5021 144.663C94.7133 142.859 95.0919 141.08 95.6327 139.35C96.4727 136.658 97.7231 134.005 97.7066 131.188C97.7066 131.12 97.7066 131.046 97.7066 130.984C97.6832 130.101 97.5303 129.229 97.4312 128.351C97.2756 126.882 97.2935 125.4 97.3031 123.924C97.2911 123.345 97.3303 122.767 97.4202 122.195C97.4202 122.175 97.4284 122.157 97.4326 122.137L99.7199 122.075C99.9733 122.088 100.226 122.039 100.458 121.932C100.568 121.883 100.656 121.793 100.705 121.681C100.754 121.568 100.761 121.441 100.725 121.323C101.7 121.779 103.004 121.158 103.292 120.101C103.312 120.027 103.328 119.951 103.34 119.875C103.34 119.87 103.34 119.864 103.34 119.858C103.35 119.787 103.357 119.716 103.36 119.647C103.36 119.635 103.36 119.622 103.36 119.611C103.374 119.123 103.3 118.637 103.143 118.176C102.675 116.808 101.931 115.562 101.232 114.302C100.871 113.65 100.521 112.989 100.181 112.326L100.48 112.722C100.585 112.884 100.723 113.02 100.884 113.121C101.441 113.418 102.025 112.82 102.592 112.545C103.346 112.178 104.227 112.394 105.059 112.455C105.891 112.516 106.893 112.294 107.191 111.499C107.287 111.174 107.305 110.83 107.244 110.496V110.496ZM92.9047 89.1444C92.9047 89.4484 92.924 89.7567 92.9474 90.0664C92.6679 89.5951 92.3451 89.1526 91.9835 88.7451L92.9047 89.1444Z" fill="url(#paint1_linear_38_766)"/>
<path d="M74.9131 98.548C75.0655 98.3398 75.2571 98.1654 75.4763 98.0352C75.4204 98.291 75.315 98.5326 75.1665 98.7455C74.9269 99.0822 74.6748 99.3138 74.6046 99.2584C74.5344 99.203 74.6707 98.8847 74.9131 98.548Z" fill="#99D55C"/>
<path opacity="0.1" d="M74.9434 98.5736C75.0548 98.4188 75.1953 98.2888 75.3565 98.1914C75.3146 98.3807 75.2364 98.5594 75.1266 98.7171C74.9475 98.9671 74.7603 99.1433 74.7134 99.0992C74.6666 99.0552 74.7644 98.8236 74.9434 98.5736Z" fill="black"/>
<path d="M74.5785 98.2651H74.7162C74.7249 98.2651 74.7334 98.2669 74.7415 98.2703C74.7495 98.2738 74.7568 98.2788 74.7629 98.2851C74.7691 98.2914 74.7739 98.299 74.7772 98.3072C74.7806 98.3155 74.7823 98.3244 74.7823 98.3333V99.943H74.5206V98.3333C74.5205 98.3166 74.5263 98.3005 74.537 98.2879C74.5476 98.2753 74.5624 98.2672 74.5785 98.2651V98.2651Z" fill="#F6987E"/>
<path d="M76.9788 101.08C76.9788 101.682 76.7467 102.261 76.3335 102.687C75.9203 103.113 75.3598 103.353 74.7755 103.353C74.1911 103.353 73.6307 103.113 73.2175 102.687C72.8043 102.261 72.5721 101.682 72.5721 101.08C72.5721 100.038 73.251 99.4216 74.1778 99.2412C74.3749 99.2037 74.575 99.1851 74.7755 99.1858C74.9136 99.1856 75.0515 99.1942 75.1886 99.2114C76.2076 99.3421 76.9788 99.97 76.9788 101.08Z" fill="#FC4A4A"/>
<path opacity="0.1" d="M75.1885 99.2114C75.1486 99.2896 74.9324 99.3535 74.6707 99.3535C74.5 99.3664 74.3291 99.3294 74.1777 99.2469C74.3749 99.2094 74.5749 99.1909 74.7754 99.1915C74.9134 99.1895 75.0513 99.1961 75.1885 99.2114Z" fill="black"/>
<path opacity="0.1" d="M75.1431 103.299C74.5588 103.299 73.9984 103.059 73.5852 102.633C73.172 102.207 72.9398 101.629 72.9398 101.026C72.9398 100.003 73.5939 99.3905 74.4945 99.1987C74.3883 99.2071 74.2826 99.2213 74.1778 99.2414C73.251 99.4218 72.5721 100.038 72.5721 101.08C72.5721 101.683 72.8043 102.261 73.2175 102.687C73.6307 103.113 74.1911 103.353 74.7755 103.353C74.9419 103.353 75.1078 103.334 75.2698 103.295C75.2272 103.297 75.1886 103.299 75.1431 103.299Z" fill="black"/>
<path d="M84.8557 145.373C85.16 145.657 85.6254 145.65 86.0386 145.618L87.921 145.476C89.4165 145.363 90.963 145.235 92.2822 144.5C92.4219 144.434 92.5456 144.337 92.6444 144.216C92.7493 144.03 92.804 143.819 92.8028 143.604C92.981 141.5 93.3865 139.422 94.0119 137.411C94.8381 134.733 96.0775 132.093 96.061 129.29C96.061 129.222 96.061 129.148 96.061 129.087C96.0375 128.209 95.8874 127.341 95.7952 126.467C95.6423 125.006 95.6575 123.532 95.6685 122.063C95.6567 121.487 95.6954 120.912 95.7842 120.343C95.8709 119.881 96.1973 119.418 95.9976 119.012C95.6106 118.223 94.2074 117.933 93.4528 117.905C92.4365 117.868 91.4367 118.142 90.4549 118.415C90.156 118.499 89.8434 118.588 89.6176 118.806C89.3146 119.098 89.2279 119.557 89.2169 119.985C89.1645 121.881 90.2235 123.646 90.3075 125.54C90.3227 125.881 90.3075 126.25 90.5003 126.534C90.6275 126.689 90.7656 126.834 90.9134 126.968C91.3266 127.435 91.3389 128.14 91.31 128.773C91.2976 129.029 91.2839 129.285 91.2673 129.54C91.0424 132.953 90.374 136.32 89.2802 139.549C89.1748 139.894 89.0364 140.227 88.8671 140.544C88.5908 140.988 88.2456 141.383 87.8453 141.711C87.2781 142.211 86.6704 142.66 86.0289 143.053C85.6007 143.314 85.1435 143.564 84.8501 143.979C84.5568 144.394 84.4921 145.023 84.8557 145.373Z" fill="#FDA8A8"/>
<path opacity="0.1" d="M84.8557 145.373C85.16 145.657 85.6254 145.65 86.0386 145.618L87.921 145.476C89.4165 145.363 90.963 145.235 92.2822 144.5C92.4219 144.434 92.5456 144.337 92.6444 144.216C92.7493 144.03 92.804 143.819 92.8028 143.604C92.981 141.5 93.3865 139.422 94.0119 137.411C94.8381 134.733 96.0775 132.093 96.061 129.29C96.061 129.222 96.061 129.148 96.061 129.087C96.0375 128.209 95.8874 127.341 95.7952 126.467C95.6423 125.006 95.6575 123.532 95.6685 122.063C95.6567 121.487 95.6954 120.912 95.7842 120.343C95.8709 119.881 96.1973 119.418 95.9976 119.012C95.6106 118.223 94.2074 117.933 93.4528 117.905C92.4365 117.868 91.4367 118.142 90.4549 118.415C90.156 118.499 89.8434 118.588 89.6176 118.806C89.3146 119.098 89.2279 119.557 89.2169 119.985C89.1645 121.881 90.2235 123.646 90.3075 125.54C90.3227 125.881 90.3075 126.25 90.5003 126.534C90.6275 126.689 90.7656 126.834 90.9134 126.968C91.3266 127.435 91.3389 128.14 91.31 128.773C91.2976 129.029 91.2839 129.285 91.2673 129.54C91.0424 132.953 90.374 136.32 89.2802 139.549C89.1748 139.894 89.0364 140.227 88.8671 140.544C88.5908 140.988 88.2456 141.383 87.8453 141.711C87.2781 142.211 86.6704 142.66 86.0289 143.053C85.6007 143.314 85.1435 143.564 84.8501 143.979C84.5568 144.394 84.4921 145.023 84.8557 145.373Z" fill="black"/>
<path d="M84.8557 145.372C85.16 145.657 85.6254 145.65 86.0386 145.618L87.921 145.476C89.4165 145.363 90.963 145.235 92.2822 144.5C92.4219 144.434 92.5456 144.337 92.6444 144.216C92.7493 144.03 92.804 143.819 92.8028 143.604C92.981 141.499 93.3865 139.422 94.0119 137.411C94.8381 134.733 96.0775 132.093 96.061 129.29C94.4694 129.472 92.8685 129.553 91.2673 129.535C91.0424 132.948 90.374 136.314 89.2802 139.543C89.1748 139.888 89.0364 140.221 88.8671 140.538C88.5908 140.982 88.2456 141.377 87.8453 141.706C87.2781 142.205 86.6704 142.654 86.0289 143.047C85.6007 143.308 85.1435 143.558 84.8501 143.973C84.5568 144.388 84.4921 145.023 84.8557 145.372Z" fill="#EEEFF3"/>
<path opacity="0.1" d="M84.8557 145.372C85.16 145.657 85.6254 145.65 86.0386 145.618L87.921 145.476C89.4165 145.363 90.963 145.235 92.2822 144.5C92.4219 144.434 92.5456 144.337 92.6444 144.216C92.7493 144.03 92.804 143.819 92.8028 143.604C92.981 141.499 93.3865 139.422 94.0119 137.411C94.8381 134.733 96.0775 132.093 96.061 129.29C94.4694 129.472 92.8685 129.553 91.2673 129.535C91.0424 132.948 90.374 136.314 89.2802 139.543C89.1748 139.888 89.0364 140.221 88.8671 140.538C88.5908 140.982 88.2456 141.377 87.8453 141.706C87.2781 142.205 86.6704 142.654 86.0289 143.047C85.6007 143.308 85.1435 143.558 84.8501 143.973C84.5568 144.388 84.4921 145.023 84.8557 145.372Z" fill="black"/>
<path d="M89.0145 144.773C89.4667 144.606 89.9014 144.392 90.3117 144.134L92.3869 142.926C92.5744 142.801 92.7833 142.714 93.0025 142.669L93.2504 144.58C93.3123 145.049 93.3454 145.6 93.0025 145.914C92.88 146.015 92.7397 146.09 92.5894 146.135C91.8361 146.404 91.0236 146.41 90.2263 146.435C87.7778 146.516 85.3046 146.812 82.892 146.368C82.5973 146.314 82.2778 146.226 82.1001 145.985C81.8977 145.701 81.9556 145.289 82.1511 145C82.3654 144.726 82.6383 144.507 82.9484 144.36C83.5626 144.019 84.2002 143.729 84.8378 143.438C84.8772 143.413 84.9238 143.405 84.9686 143.415C85.0306 143.436 85.0498 143.514 85.0664 143.58C85.1779 144.046 85.5415 144.414 85.956 144.634C85.9615 144.634 88.0973 145.074 89.0145 144.773Z" fill="#BBBDC8"/>
<path opacity="0.1" d="M89.0145 144.773C89.4667 144.606 89.9014 144.392 90.3117 144.134L92.3869 142.926C92.5744 142.801 92.7833 142.714 93.0025 142.669L93.2504 144.58C93.3123 145.049 93.3454 145.6 93.0025 145.914C92.88 146.015 92.7397 146.09 92.5894 146.135C91.8361 146.404 91.0236 146.41 90.2263 146.435C87.7778 146.516 85.3046 146.812 82.892 146.368C82.5973 146.314 82.2778 146.226 82.1001 145.985C81.8977 145.701 81.9556 145.289 82.1511 145C82.3654 144.726 82.6383 144.507 82.9484 144.36C83.5626 144.019 84.2002 143.729 84.8378 143.438C84.8772 143.413 84.9238 143.405 84.9686 143.415C85.0306 143.436 85.0498 143.514 85.0664 143.58C85.1779 144.046 85.5415 144.414 85.956 144.634C85.9615 144.634 88.0973 145.074 89.0145 144.773Z" fill="black"/>
<path d="M86.2327 147.361C86.5371 147.645 87.0025 147.638 87.4156 147.607L89.2981 147.465C90.7936 147.351 92.3401 147.224 93.6593 146.489C93.7989 146.423 93.9227 146.326 94.0215 146.205C94.1264 146.019 94.181 145.808 94.1799 145.593C94.358 143.488 94.7636 141.411 95.3889 139.4C96.2152 136.722 97.4546 134.082 97.438 131.279C97.438 131.211 97.438 131.137 97.438 131.076C97.4146 130.198 97.2645 129.33 97.1723 128.456C97.0194 126.994 97.0345 125.521 97.0456 124.052C97.0338 123.476 97.0725 122.9 97.1612 122.332C97.248 121.87 97.5744 121.407 97.3747 121C96.9877 120.212 95.5845 119.922 94.8298 119.894C93.8136 119.857 92.8138 120.131 91.8319 120.404C91.5331 120.488 91.2205 120.577 90.9947 120.794C90.6917 121.087 90.605 121.546 90.5939 121.974C90.5416 123.87 91.6006 125.635 91.6846 127.529C91.6997 127.869 91.6846 128.239 91.8774 128.523C92.0046 128.678 92.1426 128.823 92.2905 128.956C92.7036 129.424 92.716 130.128 92.6871 130.762C92.6747 131.018 92.6609 131.273 92.6444 131.529C92.4195 134.942 91.7511 138.309 90.6573 141.538C90.5518 141.883 90.4135 142.216 90.2442 142.532C89.9679 142.977 89.6227 143.371 89.2224 143.7C88.6551 144.2 88.0475 144.649 87.406 145.041C86.9777 145.303 86.5205 145.553 86.2272 145.968C85.9339 146.382 85.8692 147.012 86.2327 147.361Z" fill="#FDA8A8"/>
<path d="M86.2327 147.361C86.5371 147.646 87.0025 147.639 87.4156 147.607L89.2981 147.465C90.7936 147.352 92.3401 147.224 93.6593 146.489C93.7989 146.423 93.9227 146.326 94.0215 146.205C94.1264 146.019 94.181 145.808 94.1799 145.593C94.358 143.488 94.7636 141.411 95.3889 139.4C96.2152 136.722 97.4546 134.082 97.438 131.279C95.8464 131.461 94.2456 131.542 92.6444 131.524C92.4195 134.937 91.7511 138.303 90.6573 141.532C90.5518 141.877 90.4135 142.21 90.2442 142.527C89.9679 142.971 89.6227 143.366 89.2224 143.695C88.6551 144.194 88.0475 144.643 87.406 145.036C86.9777 145.297 86.5205 145.547 86.2272 145.962C85.9339 146.377 85.8692 147.012 86.2327 147.361Z" fill="#EEEFF3"/>
<path d="M90.3915 146.762C90.8438 146.595 91.2785 146.381 91.6887 146.123L93.764 144.915C93.9515 144.79 94.1604 144.703 94.3796 144.658L94.6274 146.569C94.6894 147.038 94.7225 147.589 94.3796 147.903C94.2571 148.004 94.1168 148.079 93.9664 148.124C93.2132 148.393 92.4007 148.399 91.6034 148.424C89.1549 148.505 86.6817 148.801 84.269 148.357C83.9743 148.303 83.6549 148.215 83.4772 147.974C83.2748 147.69 83.3326 147.278 83.5282 146.989C83.7425 146.715 84.0154 146.496 84.3255 146.349C84.9397 146.008 85.5773 145.718 86.2149 145.427C86.2542 145.403 86.3009 145.394 86.3457 145.404C86.4077 145.425 86.4269 145.503 86.4434 145.569C86.555 146.035 86.9185 146.403 87.333 146.623C87.3386 146.623 89.4744 147.063 90.3915 146.762Z" fill="#BBBDC8"/>
<path d="M83.5625 89.7326C84.2331 88.8802 84.251 87.6897 84.2345 86.5957C84.2345 86.1695 84.2221 85.7291 84.207 85.2958V85.2859C84.1884 84.4895 84.1068 83.696 83.9632 82.9133V82.9133C83.8908 82.5377 83.7942 82.1675 83.674 81.8052C83.7649 81.7839 83.8558 81.764 83.9495 81.7469C85.3929 81.4528 86.8782 81.4528 88.3217 81.7469C88.5709 81.7981 89.2016 81.7867 89.5611 81.9132C89.6634 81.9384 89.7525 82.0029 89.8103 82.0936C89.8805 82.2456 89.7359 82.686 89.6313 83.0767C89.5737 83.2528 89.5413 83.4365 89.5349 83.6222C89.5488 83.7967 89.5746 83.97 89.612 84.1408C89.6767 84.4548 89.7621 84.7659 89.802 85.0841C89.8723 85.6268 89.8103 86.1795 89.8447 86.7264C89.8792 87.2734 90.032 87.8488 90.4355 88.2054C88.0911 88.4127 85.7817 88.9259 83.5625 89.7326V89.7326Z" fill="#FDA8A8"/>
<path opacity="0.1" d="M90.1616 84.0781C89.9784 84.0938 89.7966 84.1122 89.6107 84.1335C87.7764 84.3356 85.9663 84.7258 84.2071 85.2985V85.2886L83.9633 82.916C83.9633 82.7739 83.9633 82.6319 83.9633 82.4827C83.9633 82.2398 83.9564 81.994 83.9509 81.7496C85.3944 81.4555 86.8797 81.4555 88.3232 81.7496C88.5724 81.8008 89.2031 81.7894 89.5625 81.9158C89.5625 82.1474 89.5625 82.379 89.5708 82.6106C89.5798 82.7682 89.6006 82.925 89.6328 83.0794V83.0794C89.6986 83.4629 89.8844 83.8137 90.1616 84.0781V84.0781Z" fill="black"/>
<path d="M86.6871 84.7304C89.5011 84.7304 91.7823 82.377 91.7823 79.4738C91.7823 76.5707 89.5011 74.2173 86.6871 74.2173C83.8731 74.2173 81.5919 76.5707 81.5919 79.4738C81.5919 82.377 83.8731 84.7304 86.6871 84.7304Z" fill="#FDA8A8"/>
<path d="M82.2117 99.2938C81.307 95.9907 82.1332 92.4432 84.2938 89.8348C84.7744 89.2538 85.2578 88.6571 85.8885 88.309C86.639 87.897 87.5272 87.8828 88.3769 87.8743C89.1274 87.8743 89.9013 87.8743 90.5912 88.1826C91.5235 88.5931 92.1666 89.4853 92.7092 90.3704C93.2876 91.3138 93.8108 92.3352 93.899 93.4491C93.9458 94.1097 93.8329 94.7802 93.9279 95.438C94.0491 96.272 94.4994 97.0192 94.6839 97.8404C94.7844 98.2837 94.8051 98.7425 94.8698 99.1943C94.9673 99.8123 95.1091 100.422 95.294 101.018C96.6622 105.705 98.5357 110.219 100.879 114.475C101.568 115.73 102.305 116.97 102.767 118.33C102.977 118.945 103.128 119.608 102.957 120.242C102.672 121.293 101.385 121.911 100.422 121.458C100.458 121.575 100.451 121.701 100.402 121.813C100.353 121.924 100.266 122.013 100.158 122.063C99.9289 122.17 99.6787 122.218 99.428 122.205L90.9231 122.438C90.6997 122.444 90.4776 122.475 90.2607 122.531C89.261 122.795 89.6369 123.241 89.5295 123.613C89.3987 124.068 88.7666 124.031 88.3259 123.897C88.3934 124.561 88.4086 125.372 87.5782 125.565C87.3628 125.61 87.1401 125.602 86.9282 125.542C85.4214 125.142 83.859 125.012 82.3095 125.159C81.7421 125.213 81.0935 125.278 80.6735 124.875C80.3568 124.575 80.2742 124.098 80.2204 123.657C79.3735 116.696 81.1155 109.724 82.4238 102.847C82.6 101.919 82.5367 100.416 82.2723 99.5097L82.2117 99.2938Z" fill="#F75842"/>
<path d="M93.5037 94.4962C93.7033 95.09 93.9526 95.6739 94.0201 96.299C94.0738 96.7991 94.0091 97.3049 94.038 97.8064C94.0908 98.3632 94.2021 98.9124 94.3699 99.4444C94.635 100.479 94.962 101.496 95.349 102.489C95.5335 102.936 95.7469 103.429 95.5982 103.891C95.4495 104.353 94.9882 104.638 94.856 105.097C94.7183 105.582 94.9937 106.092 95.3448 106.446C95.696 106.799 96.1353 107.051 96.4603 107.427C96.8142 107.838 97.0111 108.362 97.2603 108.848C97.6143 109.491 98.0201 110.101 98.4736 110.674L100.138 112.903C100.242 113.063 100.378 113.199 100.538 113.3C101.089 113.596 101.666 113.001 102.226 112.732C102.97 112.367 103.84 112.582 104.662 112.643C105.484 112.704 106.474 112.484 106.768 111.691C106.865 111.369 106.885 111.028 106.827 110.696C106.698 109.563 106.38 108.461 105.888 107.439C105.588 106.816 105.221 106.221 105.033 105.555C104.878 105.014 104.848 104.444 104.725 103.894C104.603 103.344 104.387 102.819 104.213 102.282C102.982 98.4656 103.908 94.2902 103.51 90.2895C103.362 88.8134 102.926 87.1952 101.695 86.4266C100.963 85.9706 100.085 85.8996 99.2158 85.8584L98.8233 85.8399L98.1912 85.8072C97.2769 85.7603 96.3597 85.7248 95.4688 85.9251C94.2156 86.2093 92.7077 87.2137 92.6581 88.6571C92.6043 90.6397 92.8905 92.6164 93.5037 94.4962Z" fill="#D8F9FF"/>
<path opacity="0.1" d="M98.1981 85.8015C98.3671 86.7682 98.4515 87.7487 98.4501 88.731C98.4749 91.5354 98.7682 94.3285 99.0629 97.113L99.2571 98.9599C99.2929 99.3009 99.3356 99.6589 99.5325 99.9331C99.7294 100.207 100.143 100.351 100.403 100.139C100.563 99.487 100.531 98.8022 100.499 98.1303C100.43 96.701 100.362 95.2714 100.294 93.8412C100.228 92.4489 100.156 91.0552 99.9925 89.6715C99.8639 88.5997 99.6745 87.5366 99.4251 86.4877C99.3778 86.2704 99.3119 86.0579 99.2282 85.8527L98.8357 85.8342L98.1981 85.8015Z" fill="black"/>
<path d="M89.2003 87.0035C88.3562 86.8785 87.4721 86.8145 86.6706 87.1172C85.905 87.4084 85.2935 88.0065 84.7427 88.6359C84.3671 89.0414 84.0566 89.5061 83.8228 90.0125C83.3532 91.1263 83.5364 92.4106 83.8228 93.5898C84.6036 96.8375 86.1542 99.9701 88.6426 102.114C89.4001 102.749 90.2065 103.319 91.0539 103.819C92.1555 104.485 93.293 105.097 94.5117 105.482C94.8519 105.59 95.214 105.681 95.5624 105.605C95.9108 105.528 96.24 105.237 96.251 104.869C94.2542 103.711 92.464 102.215 90.6862 100.726C90.1989 100.338 89.7425 99.9105 89.3215 99.4473C88.6908 98.7157 88.246 97.832 87.6346 97.0833C87.0838 96.4113 86.3952 95.8445 85.9821 95.0759C85.7228 94.5509 85.5493 93.9855 85.4684 93.4023C85.2646 92.2132 85.2261 90.9502 85.6833 89.8378C86.1405 88.7254 87.1884 87.8119 88.3589 87.8318C88.9593 87.8417 89.5308 88.0875 90.0844 88.3276L93.5684 89.8449C93.5257 89.825 93.7681 89.2013 93.7571 89.1146C93.724 88.8433 93.6772 88.839 93.4817 88.633C93.1484 88.2892 92.6306 88.0477 92.2079 87.8474C91.2497 87.4189 90.2369 87.1347 89.2003 87.0035V87.0035Z" fill="#D8F9FF"/>
<path d="M82.2654 78.4793C83.2594 78.2515 84.1793 77.762 84.9356 77.0586L84.2071 81.0025C84.9328 80.6588 85.6365 80.2678 86.314 79.8318C86.4118 81.6361 86.2699 83.4816 85.6255 85.1608C84.981 86.8401 83.7926 88.3432 82.1979 89.089C83.6136 89.3334 84.8846 88.2849 86.1446 87.576C87.0232 87.083 88.5242 87.5902 89.4854 87.2919C90.3006 87.0447 91.1379 86.8287 91.8733 86.3869C93.2393 85.5643 93.5492 83.1619 93.826 81.5565C94.1028 79.9512 93.8508 78.2889 93.3908 76.7262C93.2377 76.1727 93.0306 75.6368 92.7725 75.1265C92.4178 74.4564 91.9322 73.8695 91.3464 73.4029C90.7606 72.9363 90.0874 72.6001 89.3692 72.4156C88.6511 72.2311 87.9037 72.2022 87.1742 72.3309C86.4447 72.4596 85.749 72.7429 85.1311 73.1631C83.8614 74.0255 82.684 75.2941 81.7146 76.4975C81.5769 76.6637 81.0081 77.2547 81.1968 77.5033C81.4267 77.8045 82.7763 76.9464 83.0049 76.8299C82.9388 77.087 82.5284 78.4125 82.2654 78.4793Z" fill="#FFD566"/>
<g opacity="0.1">
<path d="M87.9954 124.429C87.78 124.474 87.5574 124.466 87.3454 124.406C85.8386 124.005 84.2762 123.876 82.7267 124.022C82.1593 124.076 81.5107 124.142 81.0907 123.738C80.774 123.438 80.6914 122.961 80.6376 122.521C79.7907 115.559 81.5327 108.588 82.841 101.71C83.0172 100.783 82.9539 99.2796 82.6895 98.3732L82.6275 98.153C82.1177 96.2748 82.1479 94.2842 82.7143 92.4233C81.7748 94.5828 81.597 97.0133 82.2116 99.2938L82.2736 99.514C82.538 100.42 82.6014 101.929 82.4251 102.851C81.121 109.729 79.379 116.704 80.2218 123.661C80.2755 124.102 80.3595 124.579 80.6748 124.879C81.088 125.278 81.7434 125.213 82.3108 125.163C83.8603 125.017 85.4227 125.146 86.9295 125.547C87.1415 125.607 87.3641 125.614 87.5795 125.569C88.257 125.412 88.3713 124.842 88.3548 124.278C88.2448 124.35 88.123 124.401 87.9954 124.429Z" fill="black"/>
<path d="M100.838 120.321C100.874 120.438 100.866 120.564 100.818 120.676C100.769 120.788 100.682 120.877 100.574 120.927C100.345 121.033 100.095 121.082 99.8438 121.069L91.3389 121.302C91.1156 121.308 90.8934 121.338 90.6766 121.394C89.6768 121.658 90.0527 122.104 89.9453 122.477C89.8145 122.931 89.1824 122.894 88.7418 122.761C88.7831 123.166 88.8037 123.625 88.6261 123.966C89.0131 124.025 89.4289 123.973 89.5322 123.613C89.6355 123.254 89.2637 122.795 90.2634 122.531C90.4803 122.475 90.7024 122.444 90.9258 122.438L99.4252 122.205C99.6759 122.219 99.9261 122.17 100.155 122.063C100.263 122.013 100.35 121.924 100.399 121.813C100.448 121.701 100.455 121.575 100.419 121.458C101.383 121.911 102.67 121.293 102.955 120.242C102.998 120.083 103.022 119.918 103.026 119.753C102.511 120.39 101.579 120.674 100.838 120.321Z" fill="black"/>
</g>
<path d="M89.4289 90.6348C90.1604 92.2393 90.8072 93.8836 91.3665 95.5603C91.8181 96.9114 92.2161 98.3306 92.066 99.7513C91.9159 101.172 91.1021 102.607 89.7801 103.054C89.2182 103.245 88.6164 103.246 88.0257 103.26C86.6106 103.295 85.1987 103.412 83.7967 103.613C83.1441 103.724 82.4864 103.8 81.8261 103.839C80.8924 103.87 79.9587 103.719 79.0278 103.797C77.5213 103.924 76.0905 104.65 74.5785 104.65C74.3941 104.662 74.2096 104.626 74.0414 104.548C73.766 104.394 73.6435 104.062 73.5498 103.755C73.3391 103.062 73.1739 102.266 73.5305 101.639C73.9698 100.868 74.9682 100.713 75.8344 100.645C77.7843 100.503 79.7366 100.403 81.6911 100.347C83.3587 100.298 85.1655 100.233 86.4586 99.1447C86.5458 99.0804 86.617 98.9957 86.6665 98.8975C86.7153 98.7312 86.7095 98.5529 86.65 98.3903C86.1374 96.3241 85.9176 94.1923 85.9972 92.0611C85.9884 91.87 86.0364 91.6806 86.1349 91.5184C86.252 91.3884 86.404 91.2974 86.5715 91.257C87.726 90.8749 88.962 90.8394 90.1354 91.1547" fill="#FDA8A8"/>
<path d="M85.9629 92.0597C85.763 92.1307 85.589 92.263 85.4644 92.4391C85.5194 91.8466 85.4451 91.2485 85.4561 90.6518C85.4671 90.0551 85.5745 89.4329 85.9394 88.9697C86.4035 88.3787 87.1926 88.167 87.9307 88.1472C89.0021 88.1173 90.1106 88.4384 90.8956 89.1914C91.4008 89.6794 91.7288 90.3312 91.8251 91.0383C91.8499 91.2329 91.9325 91.9631 91.7356 92.0882C91.5634 92.199 90.9093 91.8168 90.6986 91.7557C89.1343 91.2814 87.4581 91.389 85.9629 92.0597Z" fill="#F75842"/>
<path opacity="0.1" d="M65.1358 58.5185C65.6682 58.5185 66.0998 58.0733 66.0998 57.524C66.0998 56.9748 65.6682 56.5295 65.1358 56.5295C64.6035 56.5295 64.1719 56.9748 64.1719 57.524C64.1719 58.0733 64.6035 58.5185 65.1358 58.5185Z" fill="#D8F9FF"/>
<path opacity="0.1" d="M71.6081 77.6979C72.1405 77.6979 72.5721 77.2527 72.5721 76.7035C72.5721 76.1542 72.1405 75.709 71.6081 75.709C71.0757 75.709 70.6442 76.1542 70.6442 76.7035C70.6442 77.2527 71.0757 77.6979 71.6081 77.6979Z" fill="#D8F9FF"/>
<path opacity="0.1" d="M53.2929 59.5131C53.8253 59.5131 54.2569 59.0679 54.2569 58.5187C54.2569 57.9694 53.8253 57.5242 53.2929 57.5242C52.7606 57.5242 52.329 57.9694 52.329 58.5187C52.329 59.0679 52.7606 59.5131 53.2929 59.5131Z" fill="#D8F9FF"/>
<path opacity="0.1" d="M23.6858 106.396C25.0547 106.396 26.1645 105.251 26.1645 103.839C26.1645 102.426 25.0547 101.281 23.6858 101.281C22.3168 101.281 21.207 102.426 21.207 103.839C21.207 105.251 22.3168 106.396 23.6858 106.396Z" fill="#D8F9FF"/>
<path opacity="0.1" d="M123.524 64.2014C124.056 64.2014 124.488 63.7561 124.488 63.2069C124.488 62.6576 124.056 62.2124 123.524 62.2124C122.992 62.2124 122.56 62.6576 122.56 63.2069C122.56 63.7561 122.992 64.2014 123.524 64.2014Z" fill="#D8F9FF"/>
<path opacity="0.1" d="M124.626 79.971C126.375 79.971 127.793 78.508 127.793 76.7034C127.793 74.8987 126.375 73.4358 124.626 73.4358C122.876 73.4358 121.458 74.8987 121.458 76.7034C121.458 78.508 122.876 79.971 124.626 79.971Z" fill="#D8F9FF"/>
<path opacity="0.1" d="M129.721 68.4633C130.253 68.4633 130.685 68.0181 130.685 67.4688C130.685 66.9196 130.253 66.4744 129.721 66.4744C129.189 66.4744 128.757 66.9196 128.757 67.4688C128.757 68.0181 129.189 68.4633 129.721 68.4633Z" fill="#D8F9FF"/>
<path opacity="0.1" d="M121.183 86.6484C121.715 86.6484 122.147 86.2031 122.147 85.6539C122.147 85.1047 121.715 84.6594 121.183 84.6594C120.651 84.6594 120.219 85.1047 120.219 85.6539C120.219 86.2031 120.651 86.6484 121.183 86.6484Z" fill="#D8F9FF"/>
<path opacity="0.1" d="M63.208 66.4746C63.7404 66.4746 64.1719 66.0293 64.1719 65.4801C64.1719 64.9308 63.7404 64.4856 63.208 64.4856C62.6756 64.4856 62.244 64.9308 62.244 65.4801C62.244 66.0293 62.6756 66.4746 63.208 66.4746Z" fill="#D8F9FF"/>
<path opacity="0.1" d="M27.1285 116.767C27.6609 116.767 28.0925 116.322 28.0925 115.772C28.0925 115.223 27.6609 114.778 27.1285 114.778C26.5961 114.778 26.1646 115.223 26.1646 115.772C26.1646 116.322 26.5961 116.767 27.1285 116.767Z" fill="#D8F9FF"/>
<path opacity="0.1" d="M25.6137 94.0358C26.1461 94.0358 26.5777 93.5906 26.5777 93.0414C26.5777 92.4921 26.1461 92.0469 25.6137 92.0469C25.0814 92.0469 24.6498 92.4921 24.6498 93.0414C24.6498 93.5906 25.0814 94.0358 25.6137 94.0358Z" fill="#D8F9FF"/>
<path opacity="0.1" d="M78.4935 57.5241C79.0259 57.5241 79.4575 57.0789 79.4575 56.5296C79.4575 55.9804 79.0259 55.5352 78.4935 55.5352C77.9611 55.5352 77.5295 55.9804 77.5295 56.5296C77.5295 57.0789 77.9611 57.5241 78.4935 57.5241Z" fill="#D8F9FF"/>
<path opacity="0.1" d="M81.6609 66.4746C82.1932 66.4746 82.6248 66.0293 82.6248 65.4801C82.6248 64.9308 82.1932 64.4856 81.6609 64.4856C81.1285 64.4856 80.6969 64.9308 80.6969 65.4801C80.6969 66.0293 81.1285 66.4746 81.6609 66.4746Z" fill="#D8F9FF"/>
</g>
<defs>
<linearGradient id="paint0_linear_38_766" x1="52.9569" y1="149.106" x2="52.9569" y2="72.2992" gradientUnits="userSpaceOnUse">
<stop stop-color="#808080" stop-opacity="0.25"/>
<stop offset="0.54" stop-color="#808080" stop-opacity="0.12"/>
<stop offset="1" stop-color="#808080" stop-opacity="0.1"/>
</linearGradient>
<linearGradient id="paint1_linear_38_766" x1="89.9233" y1="148.596" x2="89.9233" y2="71.873" gradientUnits="userSpaceOnUse">
<stop stop-color="#808080" stop-opacity="0.25"/>
<stop offset="0.54" stop-color="#808080" stop-opacity="0.12"/>
<stop offset="1" stop-color="#808080" stop-opacity="0.1"/>
</linearGradient>
<clipPath id="clip0_38_766">
<rect width="149" height="103" fill="white" transform="translate(0 49)"/>
</clipPath>
</defs>
</svg>
