<svg width="95" height="100" viewBox="0 0 95 100" fill="none" xmlns="http://www.w3.org/2000/svg">
<g clip-path="url(#clip0_38_624)">
<path d="M90.0286 92.3197C90.0286 96.023 69.8753 99.0255 45.0143 99.0255C20.1533 99.0255 0 96.023 0 92.3197C0 89.6979 10.1021 87.4265 24.8247 86.3247C30.8958 85.869 37.7554 85.6138 45.0143 85.6138C47.9983 85.6138 50.9141 85.657 53.734 85.7392C74.4217 86.3449 90.0286 89.0604 90.0286 92.3197Z" fill="#3F3D56"/>
<path opacity="0.1" d="M39.206 93.6895C48.7493 93.6895 56.4856 92.7533 56.4856 91.5984C56.4856 90.4435 48.7493 89.5073 39.206 89.5073C29.6626 89.5073 21.9263 90.4435 21.9263 91.5984C21.9263 92.7533 29.6626 93.6895 39.206 93.6895Z" fill="black"/>
<path d="M39.1334 93.1128C48.1555 93.1128 55.4693 85.3648 55.4693 75.8072C55.4693 66.2497 48.1555 58.5017 39.1334 58.5017C30.1114 58.5017 22.7976 66.2497 22.7976 75.8072C22.7976 85.3648 30.1114 93.1128 39.1334 93.1128Z" fill="#3F3D56"/>
<path d="M44.2883 86.0464H34.1238V95.276H44.2883V86.0464Z" fill="#D8F9FF"/>
<path d="M57.5747 88.2817L56.9939 91.4544L60.7693 92.0313L63.2378 90.5891L63.0926 88.2817H57.5747Z" fill="#575A89"/>
<path d="M38.5526 28.7217C38.5526 28.7217 38.2622 32.0385 37.5362 32.1828C36.8101 32.327 39.1335 38.0955 39.1335 38.0955H42.6184L45.3774 37.3744L44.0705 34.2017C44.0705 34.2017 42.328 31.8943 43.6349 30.0196C44.9417 28.1448 38.5526 28.7217 38.5526 28.7217Z" fill="#A0616A"/>
<path opacity="0.1" d="M38.5526 28.7217C38.5526 28.7217 38.2622 32.0385 37.5362 32.1828C36.8101 32.327 39.1335 38.0955 39.1335 38.0955H42.6184L45.3774 37.3744L44.0705 34.2017C44.0705 34.2017 42.328 31.8943 43.6349 30.0196C44.9417 28.1448 38.5526 28.7217 38.5526 28.7217Z" fill="black"/>
<path d="M31.2921 54.1032C31.2921 54.1032 27.5168 61.3139 30.5661 62.756C33.6155 64.1981 34.3415 64.0539 34.3415 64.4865C34.3415 64.9192 33.7607 64.775 34.0511 65.496C34.3415 66.2171 33.4703 69.1013 34.3415 70.8319C35.2127 72.5624 34.9223 73.8604 34.9223 73.8604C34.9223 73.8604 34.9223 74.0046 35.2127 74.5814C35.5032 75.1583 35.6484 75.5909 35.5032 75.8793C35.358 76.1678 34.4867 78.0425 35.358 78.4752C36.2292 78.9078 40.7306 79.1962 41.1663 78.4752C41.6019 77.7541 40.7306 77.3215 41.1663 76.8888C41.6019 76.4562 41.8923 76.312 41.6019 76.0235C41.3115 75.7351 41.021 72.1298 41.021 72.1298C41.021 72.1298 41.7471 67.9476 41.4567 67.3708C41.1663 66.7939 40.7306 66.2171 41.021 65.7844C41.3115 65.3518 41.6019 65.496 41.7471 64.9192C41.8923 64.3423 42.1827 63.0444 42.1827 63.0444L43.78 62.9002L47.5554 63.6213C47.5554 63.6213 51.7664 68.2361 56.413 69.6782C56.413 69.6782 57.7199 70.9761 58.1555 70.9761C58.5911 70.9761 58.5911 70.9761 58.4459 71.2645C58.3007 71.553 57.8651 71.553 58.1555 71.8414C58.4459 72.1298 58.8816 71.6972 58.5911 72.1298C58.3007 72.5624 58.0103 72.5624 58.3007 72.8509C58.5911 73.1393 58.1555 74.7256 58.1555 74.8698C58.1555 75.0141 56.8487 88.5701 57.2843 88.8585C57.7199 89.1469 63.8186 90.0122 64.2542 88.8585C64.6899 87.7048 63.9638 86.2626 63.9638 86.2626C63.9638 86.2626 66.1419 68.9571 65.5611 67.8034C64.9803 66.6497 62.9474 61.4581 52.0568 58.1412C52.0568 58.1412 49.0075 57.5643 49.0075 57.1317C49.0075 56.699 48.717 53.959 48.1362 53.8148C47.5554 53.6706 44.2156 53.5264 44.2156 53.5264L40.0046 54.8243L34.1963 53.8148L31.2921 54.1032Z" fill="#2F2E41"/>
<path d="M36.3745 78.3308L35.6484 80.9267C35.6484 80.9267 35.0676 85.1088 35.7936 86.1183C36.3639 86.9112 37.3821 87.8821 39.2705 88.0525C39.7998 88.1007 40.3297 87.9681 40.7728 87.6766C41.2158 87.385 41.5453 86.952 41.7069 86.4492C41.7286 86.389 41.7421 86.3262 41.7471 86.2625C41.7471 85.9741 41.3115 82.513 41.3115 82.513L40.5855 78.9077L40.4403 77.8982L36.3745 78.3308Z" fill="#2F2E41"/>
<path d="M57.5748 90.7331C57.5748 90.7331 56.8487 90.012 56.7035 90.7331C56.5583 91.4542 55.9775 94.4826 56.9939 94.6268C58.0104 94.7711 67.7393 96.2132 68.7557 95.6363C69.7722 95.0595 71.6599 94.1942 70.4982 93.7616C69.3366 93.3289 65.9968 92.031 65.9968 92.031C65.9968 92.031 64.1091 89.5794 63.8187 89.4352C63.5283 89.291 61.931 89.5794 61.205 90.1563C60.4789 90.7331 57.5748 90.7331 57.5748 90.7331Z" fill="#2F2E41"/>
<path d="M42.0376 31.7503C44.5236 31.7503 46.539 29.7487 46.539 27.2797C46.539 24.8106 44.5236 22.8091 42.0376 22.8091C39.5515 22.8091 37.5361 24.8106 37.5361 27.2797C37.5361 29.7487 39.5515 31.7503 42.0376 31.7503Z" fill="#A0616A"/>
<path d="M41.602 37.3746L39.8595 35.4998L37.928 31.7503C37.928 31.7503 36.5197 31.3177 36.2293 32.0387C35.9389 32.7598 30.7114 35.0672 30.7114 35.0672C30.7114 35.0672 32.0183 47.1811 31.4375 48.3348C30.8566 49.4885 29.8402 54.1033 30.7114 54.5359C31.5827 54.9685 35.6485 54.5359 36.9553 55.1128C38.2622 55.6896 42.0376 55.6896 43.0541 54.9685C44.0705 54.2475 44.3609 53.6706 45.3774 54.1033C46.2427 54.4716 48.2657 41.8797 48.8481 38.1272C48.8971 37.8121 48.8564 37.4896 48.7304 37.1962C48.6045 36.9029 48.3984 36.6504 48.1354 36.4674C46.8325 35.5597 44.4859 33.9956 44.0705 34.2019C43.4897 34.4903 41.602 37.3746 41.602 37.3746Z" fill="#575A89"/>
<path d="M47.8459 36.7976C48.1869 36.8823 48.4936 37.0685 48.7249 37.3314C48.9562 37.5942 49.101 37.921 49.1398 38.268L50.3144 48.7673C50.3144 48.7673 47.4103 54.9684 45.9582 50.7862C44.5061 46.6041 47.8459 36.7976 47.8459 36.7976Z" fill="#575A89"/>
<path d="M47.5554 49.7769L50.75 48.9116C50.75 48.9116 51.3308 52.9496 51.9117 52.9496C52.4925 52.9496 49.8788 55.257 48.5719 54.9686C47.265 54.6801 45.3773 53.6706 45.2321 52.9496C45.0869 52.2285 46.539 49.2 46.539 49.2L47.5554 49.7769Z" fill="#575A89"/>
<path d="M38.6395 29.2081C38.9456 28.5378 38.8924 27.7559 39.1455 27.0641C39.281 26.6937 39.5009 26.3594 39.788 26.0874C40.0751 25.8153 40.4217 25.6129 40.8006 25.4959C41.1795 25.3789 41.5805 25.3505 41.9724 25.4128C42.3642 25.4752 42.7362 25.6267 43.0593 25.8555C43.3848 26.086 43.7112 26.4099 44.1085 26.3659C44.5364 26.3185 44.918 25.8444 45.3114 26.0182C45.7474 26.2108 45.6297 26.9868 46.0714 27.1661C46.3039 27.2604 46.5787 27.1152 46.7128 26.9042C46.8301 26.6826 46.894 26.4369 46.8995 26.1866C46.9605 25.5715 47.0156 24.9206 46.747 24.363C46.634 24.1741 46.5355 23.9769 46.4524 23.7732C46.4055 23.583 46.3866 23.387 46.3965 23.1914C46.394 22.4685 46.3409 21.7144 45.9745 21.0896C45.568 20.3964 44.8166 19.9531 44.0326 19.7597C43.2487 19.5662 42.4274 19.5959 41.6225 19.6636C40.2919 19.7754 38.9043 20.0152 37.856 20.8367C37.7135 20.9401 37.5909 21.0681 37.4939 21.2145C37.4019 21.3885 37.3369 21.5752 37.3011 21.7685C37.0744 22.6851 36.7346 23.5704 36.2893 24.4043C36.0752 24.7578 35.9001 25.1333 35.7673 25.5242C35.6561 25.9214 35.6636 26.3741 35.8963 26.7155C36.0858 26.9934 36.3887 27.1416 36.6266 27.3688C36.8624 27.594 36.9727 28.0271 37.2339 28.1976C37.462 28.3464 37.7351 28.2414 37.9677 28.3991C38.2663 28.6017 38.2878 29.0458 38.6395 29.2081Z" fill="#2F2E41"/>
<path d="M42.328 39.5376L42.7636 38.6724C42.7636 38.6724 49.1528 40.5471 50.4596 42.2777C50.4596 42.2777 53.6542 40.2587 55.3967 40.5471L57.1392 40.8356L51.7665 45.5946L44.9417 45.0177L42.328 39.5376Z" fill="#F2F2F2"/>
<path d="M42.0375 38.6724L36.084 46.8925L44.6512 51.0747C44.6512 51.0747 45.4521 51.5073 46.0681 51.0747L51.7664 48.4788L57.1391 40.8356L51.7664 43.5756C51.7664 43.5756 51.1856 42.4219 50.0239 42.9987L42.0375 38.6724Z" fill="#D8F9FF"/>
<path d="M51.1856 53.238L52.3473 50.2095C52.3473 50.2095 54.961 46.8926 53.5089 45.3063C52.0569 43.7199 50.4596 49.9211 50.4596 49.9211L51.1856 53.238Z" fill="#A0616A"/>
<path d="M37.7826 52.7546L40.3174 50.7137C40.3174 50.7137 44.2539 49.1468 43.7992 47.051C43.3445 44.9553 38.8302 49.5236 38.8302 49.5236L37.7826 52.7546Z" fill="#A0616A"/>
<path opacity="0.1" d="M31.51 38.1677H31.3648C31.3648 38.1677 29.1141 35.4998 28.6784 39.1051C28.2428 42.7104 26.7907 54.68 30.5661 55.1127C34.3415 55.5453 37.0279 53.31 37.0279 53.31C37.0279 53.31 39.7868 49.1279 38.7704 49.1279C38.2786 49.1279 36.941 48.9085 35.721 48.9836C34.4195 49.0638 33.2501 49.4279 33.3251 49.0557C33.4703 48.3347 35.5758 39.1772 31.51 38.1677Z" fill="black"/>
<path d="M31.2923 35.3556L30.7114 35.0671C30.7114 35.0671 28.3881 35.4998 27.9525 39.1051C27.5169 42.7104 26.0648 54.6801 29.8402 55.1127C33.6156 55.5453 38.6978 54.5359 38.6978 54.5359C38.6978 54.5359 39.7143 49.0558 38.6978 49.0558C37.6814 49.0558 32.4539 49.7768 32.5991 49.0558C32.7443 48.3347 35.3581 36.3651 31.2923 35.3556Z" fill="#575A89"/>
<path d="M49.0801 51.5794L50.6813 49.1421L51.6938 53.1658L49.0801 54.3195V51.5794Z" fill="#575A89"/>
<path d="M16.1867 16.8241C18.352 16.8241 20.1073 15.0808 20.1073 12.9304C20.1073 10.7799 18.352 9.03662 16.1867 9.03662C14.0214 9.03662 12.2661 10.7799 12.2661 12.9304C12.2661 15.0808 14.0214 16.8241 16.1867 16.8241Z" fill="#F2F2F2"/>
<path d="M20.8333 41.9172H11.54V51.1468H20.8333V41.9172Z" fill="#F2F2F2"/>
<path d="M54.0172 0.656006L56.3694 4.70218L58.7214 8.74836H54.0172H49.3129L51.6649 4.70218L54.0172 0.656006Z" fill="#F2F2F2"/>
<path d="M95 24.9168C94.9438 26.643 94.5205 28.0267 93.7302 29.0677C92.9397 30.1089 92.0006 30.6295 90.9129 30.6296C90.027 30.6296 89.2505 30.1201 88.5835 29.1011C87.9162 28.0822 87.5826 26.5148 87.5827 24.3989C87.5827 23.9312 87.5939 23.4858 87.6163 23.0626C87.6387 22.6395 87.6667 22.2386 87.7004 21.8599L88.2891 16.3643H84.4038C83.7311 23.3132 83.1789 27.4474 82.7471 28.7671C82.3154 30.0867 81.5837 30.7465 80.5522 30.7465C80.0866 30.7352 79.6423 30.5503 79.3076 30.2287C79.1135 30.0579 78.96 29.8464 78.8582 29.6095C78.7564 29.3727 78.7088 29.1163 78.7189 28.8589C78.7189 28.3469 79.1253 27.6314 79.9383 26.7125C80.7512 25.7937 81.2025 24.9557 81.2922 24.1985L82.3014 16.3643H80.67C80.21 16.367 79.7574 16.4786 79.3497 16.69C78.9743 16.8612 78.6478 17.1223 78.3993 17.45L77.6761 18.5191H77.0874C77.6367 16.8265 78.3123 15.5542 79.1142 14.7022C79.9157 13.8503 80.838 13.4243 81.8809 13.4243H94.7309V16.3643H90.3915C90.257 17.7006 90.1532 19.0369 90.0804 20.3732C90.0073 21.7096 89.9709 23.0515 89.9711 24.3989C89.9711 25.3122 90.1841 26.0527 90.6102 26.6206C91.0362 27.1885 91.5688 27.4725 92.2081 27.4725C92.6004 27.4725 93.0125 27.3138 93.4443 26.9964C93.6493 26.8536 93.8208 26.6684 93.9471 26.4536C94.0734 26.2388 94.1514 25.9995 94.1759 25.752C94.2095 25.5071 94.2348 25.315 94.2516 25.1757C94.2684 25.0366 94.2768 24.9503 94.2768 24.9168L95 24.9168Z" fill="#D8F9FF"/>
<path opacity="0.1" d="M95 24.9168C94.9438 26.643 94.5205 28.0267 93.7302 29.0677C92.9397 30.1089 92.0006 30.6295 90.9129 30.6296C90.027 30.6296 89.2505 30.1201 88.5835 29.1011C87.9162 28.0822 87.5826 26.5148 87.5827 24.3989C87.5827 23.9312 87.5939 23.4858 87.6163 23.0626C87.6387 22.6395 87.6667 22.2386 87.7004 21.8599L88.2891 16.3643H84.4038C83.7311 23.3132 83.1789 27.4474 82.7471 28.7671C82.3154 30.0867 81.5837 30.7465 80.5522 30.7465C80.0866 30.7352 79.6423 30.5503 79.3076 30.2287C79.1135 30.0579 78.96 29.8464 78.8582 29.6095C78.7564 29.3727 78.7088 29.1163 78.7189 28.8589C78.7189 28.3469 79.1253 27.6314 79.9383 26.7125C80.7512 25.7937 81.2025 24.9557 81.2922 24.1985L82.3014 16.3643H80.67C80.21 16.367 79.7574 16.4786 79.3497 16.69C78.9743 16.8612 78.6478 17.1223 78.3993 17.45L77.6761 18.5191H77.0874C77.6367 16.8265 78.3123 15.5542 79.1142 14.7022C79.9157 13.8503 80.838 13.4243 81.8809 13.4243H94.7309V16.3643H90.3915C90.257 17.7006 90.1532 19.0369 90.0804 20.3732C90.0073 21.7096 89.9709 23.0515 89.9711 24.3989C89.9711 25.3122 90.1841 26.0527 90.6102 26.6206C91.0362 27.1885 91.5688 27.4725 92.2081 27.4725C92.6004 27.4725 93.0125 27.3138 93.4443 26.9964C93.6493 26.8536 93.8208 26.6684 93.9471 26.4536C94.0734 26.2388 94.1514 25.9995 94.1759 25.752C94.2095 25.5071 94.2348 25.315 94.2516 25.1757C94.2684 25.0366 94.2768 24.9503 94.2768 24.9168L95 24.9168Z" fill="black"/>
<path d="M95 24.3948C94.9438 26.1211 94.5205 27.5047 93.7302 28.5457C92.9397 29.5869 92.0006 30.1075 90.9129 30.1076C90.027 30.1076 89.2505 29.5981 88.5835 28.5792C87.9162 27.5602 87.5826 25.9928 87.5827 23.877C87.5827 23.4093 87.5939 22.9638 87.6163 22.5406C87.6387 22.1175 87.6667 21.7167 87.7004 21.3379L88.2891 15.8423H84.4038C83.7311 22.7912 83.1789 26.9255 82.7471 28.2451C82.3154 29.5647 81.5837 30.2245 80.5522 30.2246C80.0866 30.2132 79.6423 30.0283 79.3076 29.7067C79.1135 29.5359 78.96 29.3244 78.8582 29.0876C78.7564 28.8507 78.7088 28.5943 78.7189 28.337C78.7189 27.8249 79.1253 27.1094 79.9383 26.1905C80.7512 25.2717 81.2025 24.4338 81.2922 23.6765L82.3014 15.8423H80.67C80.21 15.845 79.7574 15.9567 79.3497 16.168C78.9743 16.3392 78.6478 16.6004 78.3993 16.928L77.6761 17.9971H77.0874C77.6367 16.3045 78.3123 15.0322 79.1142 14.1802C79.9157 13.3283 80.838 12.9023 81.8809 12.9023H94.7309V15.8423H90.3915C90.257 17.1786 90.1532 18.5149 90.0804 19.8513C90.0073 21.1876 89.9709 22.5295 89.9711 23.877C89.9711 24.7902 90.1841 25.5308 90.6102 26.0986C91.0362 26.6666 91.5688 26.9505 92.2081 26.9505C92.6004 26.9505 93.0125 26.7918 93.4443 26.4744C93.6493 26.3316 93.8208 26.1465 93.9471 25.9317C94.0734 25.7169 94.1514 25.4775 94.1759 25.23C94.2095 24.9852 94.2348 24.7931 94.2516 24.6537C94.2684 24.5146 94.2768 24.4283 94.2768 24.3948H95Z" fill="#D8F9FF"/>
</g>
<defs>
<clipPath id="clip0_38_624">
<rect width="95" height="98.3694" fill="white" transform="translate(0 0.656006)"/>
</clipPath>
</defs>
</svg>
