<svg width="131" height="156" viewBox="0 0 131 156" fill="none" xmlns="http://www.w3.org/2000/svg">
<g clip-path="url(#clip0_38_653)">
<path d="M31.9252 134.873C31.9007 137.71 31.6955 140.542 31.311 143.352C31.2975 143.451 31.2829 143.549 31.2693 143.648L5.037 143.5C4.95998 143.402 4.88417 143.302 4.81072 143.202C4.56581 142.87 4.33627 142.528 4.12556 142.175C3.11276 140.473 2.6491 138.479 3.11374 137.104L3.12206 137.083C3.22235 136.782 3.3804 136.504 3.58712 136.264C4.64649 135.057 6.78843 135.258 8.73219 136.233C6.98877 134.3 5.60054 131.862 5.49506 129.685C5.39164 127.562 6.48794 126.045 7.67701 124.756C7.71603 124.713 7.75504 124.672 7.79404 124.63C7.81298 124.609 7.83305 124.589 7.85193 124.568C8.77966 123.585 9.86123 122.617 11.4267 122.734C13.1437 122.863 15.0473 124.319 16.382 126.016C17.7167 127.712 18.6037 129.639 19.5027 131.519C20.4029 133.398 21.3768 135.325 22.8213 136.931C20.8648 134.425 19.2874 131.574 18.7047 128.8C18.122 126.027 18.6348 123.364 20.3785 122.058C20.9078 121.673 21.5204 121.423 22.1649 121.328C22.2401 121.315 22.3165 121.305 22.3941 121.296C24.0083 121.11 25.9355 121.675 27.5753 123.026C29.3811 124.514 30.6331 126.72 31.2561 128.814C31.879 130.908 31.9453 132.924 31.9252 134.873Z" fill="#F2F2F2"/>
<path d="M14.7626 143.555L14.261 143.552C14.1017 143.451 13.9417 143.351 13.7809 143.253C13.6814 143.189 13.5807 143.128 13.48 143.066C11.8161 142.036 10.1418 141.049 8.45719 140.104C6.77406 139.158 5.08247 138.256 3.38242 137.397C3.33735 137.377 3.30059 137.342 3.27851 137.298C3.25643 137.253 3.25043 137.202 3.26156 137.154C3.26339 137.147 3.26621 137.141 3.26992 137.136C3.29364 137.091 3.34663 137.072 3.42398 137.111C3.6325 137.217 3.84223 137.322 4.05074 137.431C5.75544 138.304 7.45282 139.221 9.14288 140.182C10.8318 141.142 12.5111 142.145 14.1807 143.19C14.2158 143.211 14.251 143.234 14.2861 143.256C14.4453 143.355 14.6034 143.455 14.7626 143.555Z" fill="white"/>
<path d="M21.2302 143.591L20.92 143.589C20.85 143.49 20.7813 143.391 20.7113 143.292C19.0676 140.958 17.4243 138.623 15.7813 136.289C13.0907 132.468 10.4009 128.646 7.7119 124.825C7.69596 124.804 7.68411 124.781 7.67701 124.756C7.65401 124.671 7.71538 124.621 7.79404 124.63C7.8272 124.635 7.85898 124.647 7.88724 124.665C7.9155 124.683 7.9396 124.707 7.95793 124.736C9.46642 126.879 10.9745 129.021 12.4823 131.163C15.1589 134.965 17.8351 138.767 20.5109 142.569C20.6811 142.81 20.8513 143.052 21.0215 143.294C21.0914 143.393 21.1614 143.492 21.2302 143.591Z" fill="white"/>
<path d="M28.1403 141.767C28.1245 142.296 28.0899 142.817 28.0447 143.334C28.036 143.432 28.0272 143.531 28.0184 143.63L27.693 143.628C27.7029 143.529 27.7129 143.43 27.7216 143.332C27.7904 142.586 27.8392 141.832 27.8458 141.057C27.8545 138.91 27.6478 136.767 27.2291 134.662C26.7839 132.396 26.1448 130.172 25.3189 128.018C24.452 125.746 23.4069 123.548 22.1935 121.444C22.1707 121.41 22.1605 121.369 22.1648 121.328C22.1782 121.234 22.3017 121.206 22.394 121.296C22.4123 121.313 22.428 121.333 22.4407 121.355C22.5908 121.617 22.7382 121.879 22.8828 122.142C24.0515 124.257 25.0518 126.463 25.8742 128.739C26.6575 130.9 27.2534 133.127 27.655 135.393C28.0312 137.495 28.1938 139.631 28.1403 141.767V141.767Z" fill="white"/>
<path d="M119.013 128.172C119.013 126.898 114.278 125.865 108.437 125.865C102.595 125.865 97.8601 126.898 97.8601 128.172C97.8601 128.989 99.8069 129.705 102.742 130.115V142.755C102.742 143.039 102.853 143.312 103.051 143.513C103.25 143.713 103.519 143.826 103.799 143.826C104.08 143.826 104.349 143.713 104.547 143.513C104.745 143.312 104.857 143.039 104.857 142.755V130.343C105.975 130.431 107.18 130.479 108.437 130.479C109.693 130.479 110.898 130.431 112.016 130.343V142.755C112.016 143.039 112.128 143.312 112.326 143.513C112.524 143.713 112.793 143.826 113.074 143.826C113.354 143.826 113.623 143.713 113.822 143.513C114.02 143.312 114.132 143.039 114.132 142.755V130.115C117.066 129.705 119.013 128.989 119.013 128.172Z" fill="#CCCCCC"/>
<path d="M109.606 107.056C112.122 107.056 114.162 104.991 114.162 102.443C114.162 99.8943 112.122 97.8286 109.606 97.8286C107.09 97.8286 105.05 99.8943 105.05 102.443C105.05 104.991 107.09 107.056 109.606 107.056Z" fill="#2F2E41"/>
<path d="M98.2681 141.919H96.2732L95.3242 134.126H98.2684L98.2681 141.919Z" fill="#A0616A"/>
<path d="M94.8483 141.341H98.6955V143.794H92.426C92.426 143.472 92.4887 143.153 92.6104 142.856C92.7321 142.558 92.9106 142.288 93.1355 142.06C93.3604 141.832 93.6275 141.651 93.9214 141.528C94.2152 141.405 94.5302 141.341 94.8483 141.341V141.341Z" fill="#2F2E41"/>
<path d="M95.1542 140.791L93.2507 140.186L94.6488 132.464L97.4579 133.356L95.1542 140.791Z" fill="#A0616A"/>
<path d="M92.0619 139.203L95.7326 140.37L95.0073 142.711L89.0255 140.81C89.1207 140.502 89.2748 140.217 89.4789 139.97C89.6831 139.723 89.9333 139.519 90.2152 139.37C90.4972 139.221 90.8054 139.129 91.1223 139.101C91.4391 139.072 91.7584 139.107 92.0619 139.203Z" fill="#2F2E41"/>
<path d="M95.8033 137.682C95.7159 137.682 95.6292 137.666 95.5475 137.635L94.0799 137.078C93.9152 137.015 93.7783 136.894 93.6942 136.737C93.6102 136.58 93.5846 136.398 93.622 136.224C93.9915 134.541 95.2508 128.813 95.9403 125.741C96.7581 122.097 108.688 121.42 109.195 121.393L109.237 121.39L110.579 123.098C111.064 124.677 110.91 125.908 110.122 126.758C107.823 129.237 100.957 127.699 100.138 127.504L96.4888 137.205C96.4357 137.345 96.3417 137.466 96.2193 137.551C96.0969 137.637 95.9518 137.682 95.8033 137.682V137.682Z" fill="#2F2E41"/>
<path d="M97.9185 138.836C97.8311 138.836 97.7445 138.82 97.6627 138.789L96.1951 138.231C96.0304 138.168 95.8935 138.047 95.8095 137.89C95.7254 137.734 95.6998 137.552 95.7373 137.377C96.1067 135.695 97.366 129.967 98.0555 126.895C98.8733 123.25 110.803 122.573 111.31 122.546L111.352 122.544L112.694 124.252C113.179 125.83 113.025 127.061 112.237 127.911C109.938 130.391 103.072 128.852 102.253 128.657L98.6041 138.358C98.5509 138.499 98.4569 138.62 98.3345 138.705C98.2121 138.79 98.0671 138.836 97.9185 138.836V138.836Z" fill="#2F2E41"/>
<path d="M93.6724 115.104C93.7263 115.177 93.7745 115.254 93.8164 115.335L101.842 116.191L102.997 114.587L105.615 116.036L103.346 119.928L93.5038 117.387C93.2555 117.632 92.9393 117.795 92.5974 117.854C92.2555 117.913 91.9041 117.865 91.5898 117.716C91.2755 117.568 91.0132 117.326 90.838 117.023C90.6627 116.72 90.5827 116.37 90.6085 116.02C90.6344 115.669 90.7649 115.336 90.9828 115.062C91.2006 114.789 91.4954 114.589 91.828 114.49C92.1606 114.391 92.5152 114.396 92.8447 114.506C93.1742 114.615 93.4629 114.824 93.6724 115.104L93.6724 115.104Z" fill="#A0616A"/>
<path d="M112.322 124.905C112.206 124.905 112.091 124.877 111.988 124.823C110.384 123.996 107.259 122.565 104.361 122.266C104.262 122.256 104.166 122.225 104.079 122.176C103.992 122.126 103.917 122.059 103.857 121.978C103.797 121.896 103.753 121.802 103.73 121.703C103.707 121.603 103.704 121.5 103.722 121.399C103.983 119.933 104.583 116.201 104.506 113.209C104.483 112.289 104.77 111.389 105.319 110.656C105.869 109.924 106.648 109.402 107.529 109.177V109.177C108.06 109.036 108.598 108.928 109.142 108.855C109.767 108.775 110.402 108.844 110.996 109.057C111.59 109.27 112.127 109.621 112.562 110.082C112.998 110.543 113.322 111.1 113.506 111.71C113.691 112.32 113.732 112.966 113.627 113.595C113.11 116.695 112.589 121.025 113.042 124.047C113.062 124.183 113.046 124.321 112.994 124.448C112.941 124.574 112.856 124.684 112.746 124.764C112.623 124.855 112.474 124.905 112.322 124.905Z" fill="#D8F9FF"/>
<path d="M104.654 117.02C104.554 117.02 104.455 116.999 104.364 116.959L102.273 116.042C102.095 115.964 101.955 115.817 101.883 115.635C101.812 115.452 101.815 115.248 101.892 115.067L103.508 111.287C103.606 111.058 103.747 110.851 103.923 110.678C104.099 110.505 104.308 110.368 104.536 110.277C104.765 110.185 105.009 110.14 105.255 110.144C105.501 110.148 105.743 110.201 105.969 110.299C106.195 110.398 106.399 110.541 106.57 110.72C106.741 110.899 106.875 111.11 106.966 111.342C107.056 111.573 107.101 111.82 107.097 112.069C107.093 112.318 107.04 112.564 106.942 112.792L105.326 116.573C105.27 116.705 105.176 116.819 105.056 116.898C104.937 116.978 104.797 117.02 104.654 117.02V117.02Z" fill="#D8F9FF"/>
<path d="M109.44 107.569C111.647 107.569 113.436 105.757 113.436 103.522C113.436 101.287 111.647 99.4749 109.44 99.4749C107.232 99.4749 105.443 101.287 105.443 103.522C105.443 105.757 107.232 107.569 109.44 107.569Z" fill="#A0616A"/>
<path d="M105.371 101.534C107.264 102.704 109.398 103.416 111.608 103.615L110.95 102.817C111.429 102.996 111.932 103.098 112.442 103.117C112.952 103.109 113.485 102.91 113.774 102.486C113.903 102.275 113.98 102.035 113.998 101.787C114.015 101.54 113.974 101.291 113.876 101.064C113.676 100.609 113.364 100.215 112.97 99.9168C112.273 99.3579 111.449 98.9824 110.574 98.8239C109.698 98.6655 108.797 98.7288 107.952 99.0084C107.372 99.184 106.852 99.5214 106.453 99.9822C106.074 100.455 105.344 100.877 105.538 101.454L105.371 101.534Z" fill="#2F2E41"/>
<path d="M110.112 98.2676C108.851 96.9731 107.326 95.9742 105.643 95.3412C104.563 94.9359 103.387 94.6855 102.258 94.9157C101.128 95.1458 100.06 95.937 99.7453 97.0591C99.4877 97.9767 99.7537 98.9646 100.153 99.8284C100.553 100.692 101.087 101.493 101.41 102.389C101.74 103.303 101.84 104.286 101.699 105.249C101.559 106.212 101.183 107.124 100.606 107.903C100.029 108.681 99.2694 109.302 98.3957 109.708C97.5221 110.113 96.5622 110.292 95.6033 110.226C96.7129 110.377 97.7357 110.905 98.8203 111.186C99.9049 111.467 101.185 111.448 101.991 110.661C102.844 109.829 102.861 108.475 102.82 107.276C102.758 105.494 102.697 103.712 102.636 101.93C102.604 101.021 102.578 100.083 102.901 99.235C103.225 98.3867 103.994 97.6439 104.892 97.6516C105.573 97.6574 106.175 98.075 106.721 98.4867C107.267 98.8985 107.844 99.3378 108.522 99.399C109.2 99.4603 109.974 98.9522 109.923 98.2649" fill="#2F2E41"/>
<path d="M102.721 123.866C102.456 123.865 102.194 123.806 101.955 123.691C101.716 123.576 101.505 123.408 101.337 123.201C101.169 122.993 101.049 122.751 100.985 122.49C100.921 122.23 100.915 121.959 100.967 121.696C101.019 121.433 101.128 121.185 101.286 120.97C101.444 120.755 101.647 120.578 101.881 120.452C102.115 120.326 102.373 120.254 102.638 120.241C102.902 120.228 103.166 120.275 103.411 120.378H103.411C103.485 120.41 103.556 120.446 103.624 120.488L110.904 117.178L111.109 115.178L114.247 115.093L114.226 118.422C114.222 118.808 114.096 119.182 113.865 119.489C113.635 119.796 113.313 120.019 112.947 120.126L104.433 122.581C104.417 122.638 104.397 122.694 104.375 122.748C104.238 123.079 104.009 123.361 103.714 123.56C103.42 123.759 103.074 123.865 102.721 123.866V123.866Z" fill="#A0616A"/>
<path d="M113.981 116.725C113.892 116.771 113.794 116.797 113.694 116.804L111.421 116.945C111.227 116.957 111.036 116.89 110.891 116.76C110.746 116.63 110.657 116.447 110.645 116.251L110.395 112.139C110.38 111.89 110.413 111.641 110.493 111.405C110.572 111.17 110.697 110.952 110.86 110.765C111.023 110.579 111.22 110.426 111.441 110.317C111.662 110.207 111.902 110.143 112.148 110.128C112.393 110.113 112.639 110.146 112.872 110.228C113.105 110.309 113.319 110.435 113.503 110.601C113.687 110.766 113.838 110.966 113.945 111.19C114.053 111.414 114.116 111.657 114.131 111.906L114.38 116.018C114.389 116.162 114.356 116.306 114.285 116.432C114.214 116.557 114.108 116.659 113.981 116.725L113.981 116.725Z" fill="#D8F9FF"/>
<path d="M109.039 124.281H96.1849C96.0339 124.281 95.889 124.221 95.7822 124.113C95.6754 124.004 95.6154 123.858 95.6154 123.705C95.6154 123.552 95.6754 123.405 95.7822 123.297C95.889 123.189 96.0339 123.128 96.1849 123.128H109.039C109.19 123.128 109.335 123.189 109.442 123.297C109.549 123.405 109.609 123.552 109.609 123.705V123.705C109.609 123.858 109.549 124.004 109.442 124.113C109.335 124.221 109.19 124.281 109.039 124.281V124.281Z" fill="#3F3D56"/>
<path d="M90.5713 123.21V115.136C90.5716 114.852 90.6831 114.58 90.8814 114.379C91.0797 114.178 91.3485 114.065 91.6289 114.065H106.111C106.391 114.065 106.66 114.178 106.858 114.379C107.056 114.58 107.168 114.852 107.168 115.136V123.21C107.168 123.494 107.056 123.767 106.858 123.967C106.66 124.168 106.391 124.281 106.111 124.281H91.6289C91.3485 124.281 91.0797 124.168 90.8814 123.967C90.6831 123.767 90.5716 123.494 90.5713 123.21V123.21Z" fill="#3F3D56"/>
<path d="M98.8698 120.162C99.409 120.162 99.8461 119.719 99.8461 119.173C99.8461 118.627 99.409 118.185 98.8698 118.185C98.3307 118.185 97.8936 118.627 97.8936 119.173C97.8936 119.719 98.3307 120.162 98.8698 120.162Z" fill="white"/>
<path d="M47.9691 109.671C47.8372 109.469 47.6632 109.299 47.4593 109.172C47.2554 109.045 47.0266 108.966 46.7889 108.938C46.5512 108.911 46.3105 108.937 46.0837 109.014C45.8569 109.091 45.6496 109.217 45.4762 109.384L40.3093 106.683L40.6305 109.726L45.4879 111.824C45.7841 112.1 46.1701 112.257 46.5728 112.264C46.9755 112.272 47.3668 112.129 47.6726 111.864C47.9785 111.598 48.1776 111.229 48.2322 110.825C48.2868 110.42 48.1932 110.01 47.9691 109.671H47.9691Z" fill="#FFB8B8"/>
<path d="M43.3773 110.896C43.2838 110.939 43.1823 110.962 43.0795 110.964C42.9766 110.965 42.8747 110.944 42.7803 110.902L37.8725 108.746C36.1944 108.009 34.8377 106.68 34.0549 105.006L31.4747 99.4908C31.2843 99.2431 31.144 98.9597 31.0618 98.657C30.9795 98.3543 30.9571 98.0382 30.9956 97.7267C31.0341 97.4152 31.1329 97.1144 31.2863 96.8416C31.4397 96.5688 31.6446 96.3292 31.8895 96.1367C32.1344 95.9442 32.4143 95.8024 32.7133 95.7195C33.0123 95.6366 33.3245 95.6143 33.6321 95.6536C33.9396 95.693 34.2365 95.7934 34.5057 95.9491C34.7749 96.1048 35.0112 96.3127 35.201 96.5609L39.7363 105.082L43.9241 108.286C44.0439 108.378 44.133 108.505 44.1791 108.65C44.2253 108.795 44.2264 108.951 44.1822 109.097L43.7712 110.441C43.727 110.586 43.6406 110.713 43.5233 110.806C43.4783 110.842 43.4293 110.872 43.3773 110.896V110.896Z" fill="#CCCCCC"/>
<path d="M31.3612 93.0046C33.5684 93.0046 35.3576 91.1926 35.3576 88.9574C35.3576 86.7222 33.5684 84.9102 31.3612 84.9102C29.154 84.9102 27.3647 86.7222 27.3647 88.9574C27.3647 91.1926 29.154 93.0046 31.3612 93.0046Z" fill="#FFB8B8"/>
<path d="M32.98 142.049H34.9747L35.9238 134.257H32.9795L32.98 142.049Z" fill="#FFB8B8"/>
<path d="M38.822 143.925L32.5525 143.925L32.5524 141.472L36.3996 141.472C37.042 141.472 37.6582 141.73 38.1125 142.19C38.5668 142.651 38.822 143.274 38.822 143.925V143.925L38.822 143.925Z" fill="#2F2E41"/>
<path d="M26.4712 142.049H28.4659L29.415 134.257H26.4707L26.4712 142.049Z" fill="#FFB8B8"/>
<path d="M32.3135 143.925L26.044 143.925L26.0439 141.472L29.8911 141.472C30.5335 141.472 31.1496 141.73 31.6039 142.19C32.0582 142.651 32.3134 143.274 32.3135 143.925V143.925L32.3135 143.925Z" fill="#2F2E41"/>
<path d="M25.7746 139.819C25.7059 139.739 25.6547 139.646 25.6245 139.545C25.5944 139.444 25.5859 139.337 25.5997 139.233L29.0923 112.705L37.7696 114.197L38.6957 113.635L36.301 138.804C36.281 138.974 36.2039 139.132 36.0824 139.251C35.961 139.37 35.8028 139.443 35.6344 139.457L33.007 139.679C32.9025 139.688 32.7974 139.674 32.6987 139.638C32.6001 139.602 32.5102 139.545 32.4351 139.471C32.36 139.397 32.3015 139.308 32.2636 139.209C32.2256 139.11 32.2091 139.004 32.2151 138.898L32.8954 126.911C32.8966 126.891 32.8903 126.871 32.8777 126.855C32.8651 126.839 32.8471 126.828 32.8273 126.825C32.8074 126.822 32.787 126.826 32.7701 126.837C32.7531 126.848 32.7409 126.865 32.7356 126.885L29.3702 139.524C29.3281 139.681 29.2361 139.82 29.1083 139.919C28.9806 140.018 28.8242 140.072 28.6632 140.072H26.3255C26.2212 140.072 26.118 140.05 26.023 140.006C25.928 139.962 25.8433 139.898 25.7746 139.819Z" fill="#2F2E41"/>
<path d="M31.7842 114.562C31.6846 114.471 31.5566 114.418 31.4224 114.412C31.2881 114.406 31.1562 114.448 31.0494 114.531L29.3146 115.897C29.2202 115.972 29.1091 116.022 28.9912 116.043C28.8733 116.064 28.7521 116.055 28.6382 116.018C28.5244 115.98 28.4213 115.915 28.3382 115.828C28.255 115.741 28.1943 115.634 28.1613 115.517C27.3104 112.499 25.3824 104.902 25.8574 99.5556C26.1266 96.5248 28.7109 94.2214 31.6183 94.4146C33.606 94.5489 34.9136 95.7101 35.5049 97.8659C36.9567 103.159 38.5523 112.868 38.8574 114.761C38.8814 114.908 38.8611 115.059 38.7991 115.194C38.737 115.329 38.6362 115.441 38.5097 115.517C37.6889 116.016 36.7511 116.284 35.7937 116.291C34.6353 116.291 33.2464 115.883 31.7842 114.562Z" fill="#CCCCCC"/>
<path d="M32.4387 116.445C32.4582 116.203 32.4251 115.961 32.3418 115.733C32.2586 115.506 32.1271 115.3 31.9568 115.13C31.7865 114.96 31.5814 114.83 31.356 114.749C31.1307 114.668 30.8904 114.638 30.6523 114.661L28.2325 109.306L26.6311 111.901L29.1746 116.588C29.2393 116.991 29.4476 117.355 29.76 117.612C30.0723 117.87 30.4671 118.002 30.8695 117.985C31.2718 117.967 31.6538 117.8 31.943 117.517C32.2322 117.233 32.4086 116.851 32.4387 116.445H32.4387Z" fill="#FFB8B8"/>
<path d="M28.0792 114.539C27.9792 114.515 27.8853 114.469 27.8037 114.406C27.7221 114.342 27.6546 114.262 27.6055 114.171L25.0575 109.407C24.1862 107.778 23.9286 105.885 24.3328 104.078L25.6635 98.1258C25.6647 97.8119 25.727 97.5013 25.8468 97.2118C25.9666 96.9223 26.1416 96.6596 26.3617 96.4386C26.5818 96.2176 26.8428 96.0427 27.1297 95.924C27.4166 95.8052 27.7239 95.7448 28.0338 95.7464C28.3438 95.7479 28.6504 95.8113 28.9361 95.9329C29.2219 96.0545 29.4812 96.232 29.6992 96.4551C29.9171 96.6783 30.0896 96.9427 30.2066 97.2334C30.3236 97.5241 30.3829 97.8352 30.381 98.1491L28.7569 107.689L30.0999 112.827C30.1381 112.974 30.1306 113.13 30.0786 113.273C30.0265 113.416 29.9324 113.539 29.8089 113.626L28.6661 114.427C28.5436 114.513 28.398 114.559 28.249 114.559C28.1918 114.559 28.1348 114.552 28.0792 114.539V114.539Z" fill="#CCCCCC"/>
<path opacity="0.2" d="M30.057 102.172L28.5925 108.434L30.7078 113.707L29.2434 108.599L30.057 102.172Z" fill="black"/>
<path d="M29.0805 92.2855C28.725 92.2921 28.3717 92.2274 28.0411 92.095C27.8956 92.0382 27.7446 91.9916 27.5994 91.9347C26.3169 91.433 25.4721 90.0498 25.4418 88.6578C25.4116 87.2658 26.1234 85.9148 27.1804 85.0244C28.2374 84.134 29.6064 83.6769 30.9773 83.5712C32.454 83.4573 34.1168 83.8365 34.9419 85.0819C35.1616 85.4134 35.3152 85.8156 35.185 86.2159C35.146 86.3367 35.0764 86.445 34.9831 86.53C34.6146 86.862 34.2472 86.6123 33.8716 86.5903C33.3553 86.56 32.8915 86.9832 32.7248 87.479C32.5581 87.9749 32.6315 88.5207 32.7661 89.0265C32.8686 89.3308 32.9333 89.6469 32.9585 89.9674C32.9694 90.1281 32.9395 90.289 32.8718 90.4347C32.8041 90.5805 32.7007 90.7063 32.5715 90.8003C32.2488 90.9978 31.8251 90.8835 31.5023 90.6863C31.1794 90.4891 30.9005 90.215 30.5518 90.0699C30.2031 89.9248 29.7346 89.9569 29.5316 90.2787C29.4671 90.3958 29.4234 90.5234 29.4026 90.6558C29.2206 91.4953 29.2625 91.4459 29.0805 92.2854L29.0805 92.2855Z" fill="#2F2E41"/>
<path d="M63.7309 106.02C63.6645 105.935 63.6183 105.836 63.5955 105.73C63.5727 105.624 63.5741 105.515 63.5995 105.409C64.2064 102.835 64.2063 100.152 63.5994 97.5781C63.5741 97.4729 63.5727 97.3633 63.5955 97.2575C63.6183 97.1517 63.6646 97.0525 63.7309 96.9676C63.7958 96.8838 63.8787 96.8162 63.9733 96.7697C64.0679 96.7233 64.1717 96.6994 64.2768 96.6997H70.7646C70.9304 96.7 71.0907 96.7599 71.2169 96.8687C71.3432 96.9775 71.4272 97.1282 71.454 97.2939C71.8772 100.077 71.8772 102.91 71.454 105.694C71.4272 105.859 71.3432 106.01 71.2169 106.119C71.0907 106.228 70.9304 106.288 70.7646 106.288H64.2768C64.1717 106.288 64.0679 106.264 63.9733 106.218C63.8787 106.171 63.7958 106.104 63.7309 106.02V106.02Z" fill="#E6E6E6"/>
<path d="M53.6944 82.8487C53.6281 82.7638 53.5818 82.6647 53.5591 82.5589C53.5363 82.4531 53.5377 82.3434 53.5631 82.2383C54.17 79.664 54.17 76.9812 53.5631 74.407C53.5377 74.3018 53.5363 74.1922 53.5591 74.0864C53.5818 73.9806 53.6281 73.8815 53.6944 73.7965C53.7593 73.7128 53.8422 73.6451 53.9368 73.5986C54.0314 73.5522 54.1352 73.5282 54.2404 73.5286H60.7282C60.894 73.5289 61.0543 73.5888 61.1805 73.6976C61.3068 73.8064 61.3908 73.9571 61.4177 74.1227C61.8409 76.9063 61.8409 79.739 61.4177 82.5225C61.3908 82.6882 61.3068 82.8389 61.1805 82.9477C61.0543 83.0565 60.894 83.1164 60.7282 83.1167H54.2404C54.1352 83.117 54.0314 83.0931 53.9368 83.0466C53.8422 83.0002 53.7593 82.9325 53.6944 82.8487Z" fill="#E6E6E6"/>
<path d="M69.6587 90.5997C69.2355 87.8162 69.2355 84.9834 69.6587 82.1999C69.6855 82.0342 69.7695 81.8835 69.8958 81.7747C70.022 81.6659 70.1823 81.606 70.3481 81.6057H76.8359C76.9411 81.6054 77.0449 81.6293 77.1395 81.6758C77.2341 81.7222 77.317 81.7899 77.3819 81.8737C77.4482 81.9586 77.4945 82.0578 77.5173 82.1635C77.54 82.2693 77.5387 82.379 77.5133 82.4841C76.9064 85.0584 76.9063 87.7412 77.5132 90.3154C77.5386 90.4206 77.54 90.5302 77.5172 90.636C77.4945 90.7418 77.4482 90.8409 77.3819 90.9259C77.317 91.0097 77.2341 91.0773 77.1395 91.1238C77.0449 91.1702 76.9411 91.1942 76.8359 91.1939H70.3481C70.1823 91.1935 70.022 91.1336 69.8958 91.0248C69.7695 90.916 69.6855 90.7654 69.6587 90.5997V90.5997Z" fill="#D8F9FF"/>
<path d="M42.4978 90.3065C42.0746 87.5229 42.0746 84.6902 42.4978 81.9067C42.5246 81.741 42.6087 81.5903 42.7349 81.4815C42.8612 81.3727 43.0214 81.3128 43.1872 81.3125H49.6751C49.7802 81.3122 49.884 81.3361 49.9786 81.3826C50.0732 81.429 50.1561 81.4967 50.221 81.5805C50.2873 81.6654 50.3336 81.7645 50.3564 81.8703C50.3791 81.9761 50.3778 82.0858 50.3524 82.1909C49.7455 84.7652 49.7455 87.448 50.3523 90.0222C50.3778 90.1274 50.3791 90.237 50.3564 90.3428C50.3336 90.4486 50.2873 90.5477 50.221 90.6327C50.1561 90.7164 50.0732 90.7841 49.9786 90.8306C49.884 90.877 49.7802 90.901 49.6751 90.9006H43.1872C43.0214 90.9003 42.8612 90.8404 42.7349 90.7316C42.6087 90.6228 42.5246 90.4722 42.4978 90.3065Z" fill="#FF6584"/>
<path d="M44.1025 109.697C44.0351 109.61 43.988 109.509 43.9649 109.402C43.9417 109.294 43.9431 109.183 43.969 109.076C44.5858 106.459 44.5858 103.733 43.9689 101.116C43.9431 101.009 43.9417 100.898 43.9649 100.79C43.988 100.683 44.0351 100.582 44.1025 100.495C44.1685 100.41 44.2527 100.342 44.3489 100.294C44.445 100.247 44.5506 100.223 44.6574 100.223H51.2518C51.4203 100.223 51.5832 100.284 51.7115 100.395C51.8399 100.506 51.9253 100.659 51.9525 100.827C52.3827 103.656 52.3827 106.536 51.9525 109.365C51.9253 109.533 51.8399 109.686 51.7115 109.797C51.5832 109.908 51.4203 109.968 51.2518 109.969H44.6574C44.5506 109.969 44.445 109.945 44.3489 109.898C44.2527 109.85 44.1684 109.782 44.1025 109.697V109.697Z" fill="#D8F9FF"/>
<path d="M4.98019 144.076H130.806C130.858 144.076 130.907 144.056 130.943 144.019C130.98 143.982 131 143.932 131 143.88C131 143.828 130.98 143.778 130.943 143.741C130.907 143.705 130.858 143.684 130.806 143.684H4.98019C4.9547 143.684 4.92945 143.689 4.90588 143.699C4.88231 143.708 4.86088 143.723 4.84283 143.741C4.82478 143.759 4.81046 143.781 4.80069 143.805C4.79092 143.829 4.78589 143.854 4.78589 143.88C4.78589 143.906 4.79092 143.931 4.80069 143.955C4.81046 143.979 4.82478 144.001 4.84283 144.019C4.86088 144.037 4.88231 144.052 4.90588 144.061C4.92945 144.071 4.9547 144.076 4.98019 144.076V144.076Z" fill="#3F3D56"/>
<path d="M49.9793 103.819H46.5055C46.3761 103.819 46.252 103.767 46.1605 103.674C46.0689 103.582 46.0175 103.456 46.0173 103.325V103.115C46.0175 102.984 46.0689 102.858 46.1605 102.766C46.252 102.673 46.3761 102.621 46.5055 102.621H49.9793C50.1087 102.621 50.2328 102.673 50.3243 102.766C50.4159 102.858 50.4673 102.984 50.4675 103.115V103.325C50.4673 103.456 50.4159 103.582 50.3243 103.674C50.2328 103.767 50.1087 103.819 49.9793 103.819V103.819Z" fill="white"/>
<path d="M49.9793 105.887H46.5055C46.3761 105.886 46.252 105.834 46.1605 105.742C46.0689 105.649 46.0175 105.523 46.0173 105.392V105.182C46.0175 105.051 46.0689 104.926 46.1605 104.833C46.252 104.74 46.3761 104.688 46.5055 104.688H49.9793C50.1087 104.688 50.2328 104.74 50.3243 104.833C50.4159 104.926 50.4673 105.051 50.4675 105.182V105.392C50.4673 105.523 50.4159 105.649 50.3243 105.742C50.2328 105.834 50.1087 105.886 49.9793 105.887V105.887Z" fill="white"/>
<path d="M47.6786 85.3788H44.274C44.1446 85.3787 44.0205 85.3265 43.929 85.2339C43.8375 85.1412 43.786 85.0155 43.7859 84.8845V84.6914C43.786 84.5603 43.8375 84.4346 43.929 84.342C44.0205 84.2493 44.1446 84.1972 44.274 84.197H47.6786C47.808 84.1972 47.9321 84.2493 48.0236 84.342C48.1151 84.4346 48.1666 84.5603 48.1668 84.6914V84.8845C48.1666 85.0155 48.1151 85.1412 48.0236 85.2339C47.9321 85.3265 47.808 85.3787 47.6786 85.3788V85.3788Z" fill="white"/>
<path d="M69.4303 99.9009H66.0257C65.8963 99.9007 65.7722 99.8486 65.6807 99.7559C65.5892 99.6632 65.5377 99.5376 65.5376 99.4065V99.2133C65.5377 99.0823 65.5892 98.9566 65.6807 98.8639C65.7722 98.7713 65.8963 98.7191 66.0257 98.719H69.4303C69.5597 98.7191 69.6838 98.7713 69.7753 98.8639C69.8668 98.9566 69.9183 99.0823 69.9184 99.2133V99.4065C69.9183 99.5376 69.8668 99.6632 69.7753 99.7559C69.6838 99.8486 69.5597 99.9007 69.4303 99.9009Z" fill="white"/>
<path d="M69.4303 102.342H66.0257C65.8963 102.342 65.7722 102.29 65.6807 102.197C65.5892 102.104 65.5377 101.979 65.5376 101.847V101.654C65.5377 101.523 65.5892 101.398 65.6807 101.305C65.7722 101.212 65.8963 101.16 66.0257 101.16H69.4303C69.5597 101.16 69.6838 101.212 69.7753 101.305C69.8668 101.398 69.9183 101.523 69.9184 101.654V101.847C69.9183 101.979 69.8668 102.104 69.7753 102.197C69.6838 102.29 69.5597 102.342 69.4303 102.342Z" fill="white"/>
<path d="M69.4303 104.783H66.0257C65.8963 104.783 65.7722 104.731 65.6807 104.638C65.5892 104.545 65.5377 104.42 65.5376 104.289V104.095C65.5377 103.964 65.5892 103.839 65.6807 103.746C65.7722 103.653 65.8963 103.601 66.0257 103.601H69.4303C69.5597 103.601 69.6838 103.653 69.7753 103.746C69.8668 103.839 69.9183 103.964 69.9184 104.095V104.289C69.9183 104.42 69.8668 104.545 69.7753 104.638C69.6838 104.731 69.5597 104.783 69.4303 104.783V104.783Z" fill="white"/>
<path d="M47.6786 87.4128H44.274C44.1446 87.4127 44.0205 87.3606 43.929 87.2679C43.8375 87.1752 43.786 87.0496 43.7859 86.9185V86.7253C43.786 86.5942 43.8375 86.4686 43.929 86.3759C44.0205 86.2832 44.1446 86.2311 44.274 86.231H47.6786C47.808 86.2311 47.9321 86.2832 48.0236 86.3759C48.1151 86.4686 48.1666 86.5942 48.1668 86.7253V86.9185C48.1666 87.0496 48.1151 87.1752 48.0236 87.2679C47.9321 87.3606 47.808 87.4127 47.6786 87.4128Z" fill="white"/>
<path d="M59.4229 77.1365H56.0184C55.889 77.1363 55.7649 77.0842 55.6734 76.9915C55.5819 76.8988 55.5304 76.7732 55.5303 76.6421V76.4489C55.5304 76.3179 55.5819 76.1922 55.6734 76.0995C55.7649 76.0069 55.889 75.9547 56.0184 75.9546H59.4229C59.5524 75.9547 59.6764 76.0069 59.768 76.0995C59.8595 76.1922 59.9109 76.3179 59.9111 76.4489V76.6421C59.9109 76.7732 59.8595 76.8988 59.768 76.9915C59.6764 77.0842 59.5524 77.1363 59.4229 77.1365V77.1365Z" fill="white"/>
<path d="M74.9579 85.8755H71.5533C71.4239 85.8753 71.2998 85.8232 71.2083 85.7305C71.1168 85.6379 71.0653 85.5122 71.0652 85.3811V85.1879C71.0653 85.0569 71.1168 84.9312 71.2083 84.8386C71.2998 84.7459 71.4239 84.6937 71.5533 84.6936H74.9579C75.0873 84.6937 75.2114 84.7459 75.3029 84.8386C75.3944 84.9312 75.4459 85.0569 75.446 85.1879V85.3811C75.4459 85.5122 75.3944 85.6379 75.3029 85.7305C75.2114 85.8232 75.0873 85.8753 74.9579 85.8755Z" fill="white"/>
</g>
<defs>
<clipPath id="clip0_38_653">
<rect width="128.067" height="70.5478" fill="white" transform="translate(2.93286 73.5286)"/>
</clipPath>
</defs>
</svg>
