<svg width="52" height="40" viewBox="0 0 52 40" fill="none" xmlns="http://www.w3.org/2000/svg">
<path d="M25.3106 10.3771L8.66735 23.9366V38.5713C8.66735 38.9502 8.81952 39.3136 9.09039 39.5815C9.36125 39.8495 9.72862 40 10.1117 40L20.2274 39.9741C20.6092 39.9722 20.9748 39.8209 21.2441 39.5531C21.5134 39.2854 21.6645 38.9231 21.6645 38.5454V29.9989C21.6645 29.62 21.8167 29.2566 22.0876 28.9886C22.3584 28.7207 22.7258 28.5702 23.1089 28.5702H28.8862C29.2693 28.5702 29.6366 28.7207 29.9075 28.9886C30.1784 29.2566 30.3305 29.62 30.3305 29.9989V38.5391C30.33 38.7271 30.3669 38.9134 30.4392 39.0872C30.5115 39.2611 30.6178 39.4191 30.752 39.5523C30.8862 39.6854 31.0456 39.7911 31.2211 39.8631C31.3966 39.9352 31.5848 39.9723 31.7749 39.9723L41.887 40C42.2701 40 42.6374 39.8495 42.9083 39.5815C43.1792 39.3136 43.3313 38.9502 43.3313 38.5713V23.9268L26.6917 10.3771C26.4961 10.2211 26.2524 10.136 26.0012 10.136C25.7499 10.136 25.5062 10.2211 25.3106 10.3771ZM51.6002 19.5933L44.0535 13.4399V1.07155C44.0535 0.787356 43.9394 0.514804 43.7362 0.313849C43.5331 0.112895 43.2576 0 42.9703 0H37.9151C37.6278 0 37.3523 0.112895 37.1491 0.313849C36.946 0.514804 36.8318 0.787356 36.8318 1.07155V7.55531L28.7499 0.977788C27.9743 0.346449 27.0011 0.00126206 25.9966 0.00126206C24.9922 0.00126206 24.019 0.346449 23.2434 0.977788L0.393128 19.5933C0.283438 19.6829 0.192687 19.7931 0.126059 19.9175C0.0594324 20.0419 0.0182354 20.1781 0.00482241 20.3182C-0.00859058 20.4583 0.00604332 20.5997 0.047888 20.7343C0.0897326 20.8688 0.157968 20.9939 0.248695 21.1024L2.5506 23.8705C2.64108 23.9794 2.75237 24.0695 2.8781 24.1357C3.00383 24.2019 3.14153 24.243 3.28332 24.2565C3.42511 24.27 3.5682 24.2557 3.70441 24.2145C3.84061 24.1732 3.96725 24.1058 4.07708 24.0161L25.3106 6.71593C25.5062 6.55995 25.7499 6.47489 26.0012 6.47489C26.2524 6.47489 26.4961 6.55995 26.6917 6.71593L47.9261 24.0161C48.0358 24.1058 48.1622 24.1733 48.2982 24.2147C48.4342 24.2561 48.5772 24.2706 48.7189 24.2573C48.8605 24.244 48.9982 24.2033 49.1239 24.1374C49.2497 24.0715 49.361 23.9817 49.4517 23.8732L51.7536 21.105C51.8442 20.996 51.9122 20.8702 51.9535 20.7351C51.9949 20.6 52.0088 20.4581 51.9946 20.3176C51.9803 20.1771 51.9381 20.0408 51.8704 19.9165C51.8028 19.7922 51.7109 19.6823 51.6002 19.5933Z" fill="#D8F9FF"/>
</svg>
